<svg xmlns="http://www.w3.org/2000/svg" width="281.244" height="181.309" viewBox="0 0 281.244 181.309">
    <defs>
        <clipPath id="2x5sftobaa">
            <path data-name="Path 16" d="M202 153h47.215v32.4H202zm0 0" transform="translate(-202 -153)"/>
        </clipPath>
        <clipPath id="dilfz8pj5b">
            <path data-name="Path 15" d="m210.018 144.586 40.044 8.643-8.643 40.044-40.044-8.643zm0 0" transform="translate(-201.375 -144.586)"/>
        </clipPath>
        <clipPath id="b5nby39rbc">
            <path data-name="Path 32" d="M163 213h32.4v10.958H163zm0 0" transform="translate(-163 -213)"/>
        </clipPath>
        <clipPath id="dayelbbzud">
            <path data-name="Path 35" d="M121.277 113h54.365v92.578h-54.365zm0 0" transform="translate(-121.277 -113)"/>
        </clipPath>
        <clipPath id="3dbfjdgtte">
            <path data-name="Path 72" d="M137 90.586h54.621v43.9H137zm0 0" transform="translate(-137 -90.586)" style="fill:#222e6a"/>
        </clipPath>
        <clipPath id="qvr7sebvzf">
            <path data-name="Path 78" d="M124 118h95.88v35.18H124zm0 0" transform="translate(-124 -118)"/>
        </clipPath>
    </defs>
    <g data-name="Group 506">
        <g data-name="Group 505">
            <g data-name="Background Complete">
                <g data-name="Group 474">
                    <path data-name="Rectangle 494" transform="translate(37.947 159.333)" style="fill:#ebebeb" d="M0 0h243.297v.122H0z"/>
                    <path data-name="Rectangle 495" transform="translate(83.141 162.647)" style="fill:#ebebeb" d="M0 0h35.905v.122H0z"/>
                    <path data-name="Rectangle 496" transform="translate(226.595 163.464)" style="fill:#ebebeb" d="M0 0h4.23v.122H0z"/>
                    <path data-name="Rectangle 497" transform="translate(73.315 167.165)" style="fill:#ebebeb" d="M0 0h9.339v.122H0z"/>
                    <path data-name="Rectangle 498" transform="translate(160.244 165.519)" style="fill:#ebebeb" d="M0 0h23.681v.122H0z"/>
                    <path data-name="Rectangle 499" transform="translate(188.258 165.519)" style="fill:#ebebeb" d="M0 0h11.863v.122H0z"/>
                    <path data-name="Rectangle 500" transform="translate(239.589 163.464)" style="fill:#ebebeb" d="M0 0h16.129v.122H0z"/>
                    <path data-name="Path 616" d="M40.984 192.585h93.961a2.781 2.781 0 0 0 2.777-2.777V57.73a2.78 2.78 0 0 0-2.777-2.777H40.984a2.78 2.78 0 0 0-2.777 2.777v132.077a2.781 2.781 0 0 0 2.777 2.778zm93.961-137.51a2.658 2.658 0 0 1 2.655 2.655v132.077a2.659 2.659 0 0 1-2.656 2.656h-93.96a2.658 2.658 0 0 1-2.655-2.656V57.73a2.658 2.658 0 0 1 2.655-2.655z" transform="translate(124.93 -54.953)" style="fill:#ebebeb"/>
                    <path data-name="Path 617" d="M257.283 192.585h93.96a2.78 2.78 0 0 0 2.777-2.777V57.73a2.78 2.78 0 0 0-2.777-2.777h-93.96a2.781 2.781 0 0 0-2.778 2.777v132.077a2.781 2.781 0 0 0 2.778 2.778zm93.96-137.51a2.658 2.658 0 0 1 2.657 2.655v132.077a2.658 2.658 0 0 1-2.655 2.656h-93.96a2.659 2.659 0 0 1-2.656-2.656V57.73a2.659 2.659 0 0 1 2.656-2.655z" transform="translate(-196.617 -54.953)" style="fill:#ebebeb"/>
                </g>
                <path data-name="Rectangle 501" transform="translate(121.277 157.935)" style="fill:#f0f0f0" d="M0 0h75.304v1.398H0z"/>
                <g data-name="Group 482">
                    <path data-name="Path 618" d="M382.267 193.726s-6.234 8.742-15.373 1.277c-8.484-6.93-.145-23.709-.145-23.709s-9.862 3.1-11.458-9.909 12.4-9.7 12.4-9.7c-4.984-9.919.732-10.211 5-9.344-1.3-2.443-1.707-5.418 1.376-7.936 7.049-5.757 11.857.984 11.857.984s3.667-12.612 12.348-5.251v70.4c-11.251 9.542-16.005-6.812-16.005-6.812z" transform="translate(-289.854 -92.369)" style="fill:#f5f5f5"/>
                    <g data-name="Group 481">
                        <g data-name="Group 475">
                            <path data-name="Rectangle 502" transform="translate(105.178 32.487)" style="fill:#fafafa" d="M0 0h143.789v126.846H0z"/>
                            <path data-name="Path 619" d="M76.678 81.222h123.1l10.345 19.7H66.333z" transform="translate(38.845 -68.44)" style="fill:#f0f0f0"/>
                        </g>
                        <g data-name="Group 476">
                            <path data-name="Path 620" d="M182.151 328.156v-13.022h8.449v-13.023h61.5v13.022h-8.45v13.022h-8.45v13.023h-61.5v-13.022z" transform="translate(-55.378 -181.846)" style="fill:#f5f5f5"/>
                            <path data-name="Path 621" d="M83.23 302.111v13.022h-8.448v13.022h-8.449v13.023h69.142v-39.067z" transform="translate(113.491 -181.846)" style="fill:#ebebeb"/>
                            <path data-name="Rectangle 503" transform="translate(135.222 131.889)" style="fill:#f0f0f0" d="M0 0h61.499v1.398H0z"/>
                            <path data-name="Rectangle 504" transform="translate(126.773 144.911)" style="fill:#f0f0f0" d="M0 0h61.499v1.398H0z"/>
                        </g>
                        <g data-name="Group 477" transform="translate(200.956 43.978)">
                            <path data-name="Rectangle 505" style="fill:#f0f0f0" d="M0 0h40.441v76.287H0z"/>
                            <path data-name="Rectangle 506" transform="translate(40.441)" style="fill:#e6e6e6" d="M0 0h.757v76.287H0z"/>
                            <circle data-name="Ellipse 22" cx="2.244" cy="2.244" r="2.244" transform="translate(3.798 35.9)" style="fill:#fafafa"/>
                        </g>
                        <g data-name="Group 480">
                            <g data-name="Group 479">
                                <g data-name="Group 478">
                                    <path data-name="Rectangle 507" style="fill:#f5f5f5" d="M0 0h58.785v58.662H0z" transform="translate(128.131 43.978)"/>
                                    <path data-name="Rectangle 508" transform="rotate(90 68.867 115.598)" style="fill:#fff" d="M0 0h53.156v53.883H0z"/>
                                    <path data-name="Path 622" d="M209.771 150.991v53.156h-1.588s-7.266-17.4-9.292-53.156z" transform="translate(-25.306 -104.26)" style="fill:#fafafa"/>
                                    <path data-name="Path 623" d="M287.266 150.991v53.156h1.588s7.266-17.4 9.292-53.156z" transform="translate(-156.684 -104.26)" style="fill:#fafafa"/>
                                    <path data-name="Rectangle 509" transform="translate(129.145 71.461)" style="fill:#f5f5f5" d="M0 0h56.757v3.696H0z"/>
                                    <path data-name="Rectangle 510" transform="rotate(90 57.22 102.15)" style="fill:#f5f5f5" d="M0 0h56.757v3.696H0z"/>
                                </g>
                            </g>
                        </g>
                    </g>
                </g>
            </g>
            <ellipse data-name="&lt;Path&gt;" cx="94.345" cy="5.51" rx="94.345" ry="5.51" transform="translate(65.25 170.289)" style="fill:#f5f5f5"/>
            <g data-name="Group 489">
                <g data-name="Group 483">
                    <path data-name="Rectangle 511" d="M0 0h19.691v24.422a4.477 4.477 0 0 1-4.477 4.478H4.477A4.477 4.477 0 0 1 0 24.422V0z" transform="translate(189.241 146.9)" style="fill:#5965b1"/>
                    <path data-name="Path 624" d="M148.609 356.848H168.3v11.6l-19.691-4.268z" transform="translate(40.632 -209.948)" style="opacity:.2"/>
                </g>
                <g data-name="Group 487">
                    <g data-name="Group 484" style="isolation:isolate">
                        <path data-name="Path 625" d="M261.959 255.538a27.739 27.739 0 0 0-55.479 0v35.055h55.479z" transform="translate(-81.187 -143.694)" style="fill:#407bff"/>
                        <path data-name="Path 626" d="M261.959 255.538a27.739 27.739 0 0 0-55.479 0v35.055h55.479z" transform="translate(-81.187 -143.694)" style="fill:#262e61"/>
                    </g>
                    <g data-name="Group 485">
                        <path data-name="Path 627" d="M165.325 255.532v31.6a3.459 3.459 0 0 1-3.459 3.459h-61.839v-35.059A27.75 27.75 0 0 0 72.291 227.8h65.3a27.749 27.749 0 0 1 27.736 27.736z" transform="translate(80.742 -143.692)" style="fill:#5965b1"/>
                        <path data-name="Rectangle 512" transform="translate(180.769 126.828)" style="opacity:.2" d="M0 0h65.298v9.731H0z"/>
                        <path data-name="Rectangle 513" transform="translate(180.769 114.067)" style="opacity:.2" d="M0 0h65.298v9.731H0z"/>
                    </g>
                    <g data-name="Group 486">
                        <path data-name="Rectangle 514" transform="translate(176.679 82.401)" style="fill:#407bff" d="M0 0h7.948v.487H0z"/>
                        <path data-name="Rectangle 515" transform="translate(188.79 82.401)" style="fill:#407bff" d="M0 0h4.271v.487H0z"/>
                    </g>
                </g>
                <path data-name="Path 628" d="M109.877 260.795v-39.426a1.083 1.083 0 0 1 1.259-1.069l13.757 2.274v5.709h-10.515V260.7a5.162 5.162 0 1 1-4.5.092z" transform="translate(104.256 -139.836)" style="fill:#263238"/>
                <g data-name="Group 488">
                    <path data-name="Path 629" d="M279.615 360.8h-71.162a1.973 1.973 0 0 1-1.973-1.973 1.973 1.973 0 0 1 1.973-1.973h75.108a3.946 3.946 0 0 1-3.946 3.946z" transform="translate(-102.789 -209.951)" style="fill:#47518e"/>
                    <path data-name="Path 630" d="M237.533 360.8h-29.08a1.973 1.973 0 0 1-1.973-1.973 1.973 1.973 0 0 1 1.973-1.973h33.026a3.945 3.945 0 0 1-3.946 3.946z" transform="translate(-60.707 -209.951)" style="fill:#262e61"/>
                </g>
            </g>
            <g data-name="Group 504">
                <g data-name="Group 502">
                    <g data-name="Group 501">
                        <path data-name="Path 668" d="M239.071 220.874 228.7 251.479a4.8 4.8 0 0 0 2.993 6.063l69.65 23.61a4.8 4.8 0 0 0 6.062-2.993l10.375-30.605a4.68 4.68 0 0 0 .241-1.8 4.791 4.791 0 0 0-3.234-4.26l-69.649-23.61a4.8 4.8 0 0 0-5.156 1.411 4.7 4.7 0 0 0-.911 1.579z" transform="translate(-147.941 -138.472)" style="fill:#407bff"/>
                        <path data-name="Path 669" d="M239.071 220.874 228.7 251.479a4.8 4.8 0 0 0 2.993 6.063l69.65 23.61a4.8 4.8 0 0 0 6.062-2.993l10.375-30.605a4.68 4.68 0 0 0 .241-1.8 4.791 4.791 0 0 0-3.234-4.26l-69.649-23.61a4.8 4.8 0 0 0-5.156 1.411 4.7 4.7 0 0 0-.911 1.579z" transform="translate(-147.941 -138.472)" style="fill:#f3ca9c"/>
                    </g>
                    <path data-name="Path 670" d="m228.464 219.293 28.811 25.755a14.419 14.419 0 0 0 10.7 3.628l38.529-2.924a4.791 4.791 0 0 0-3.234-4.26l-69.649-23.61a4.8 4.8 0 0 0-5.157 1.411z" transform="translate(-136.428 -138.472)" style="fill:#ff8856"/>
                </g>
            </g>
        </g>
        <g data-name="Group 109">
            <g data-name="Group 108">
                <g data-name="Group 12" transform="translate(74.732 86.294)" style="clip-path:url(#2x5sftobaa)">
                    <g data-name="Group 11" transform="translate(-.579 -7.79)" style="clip-path:url(#dilfz8pj5b)">
                        <g data-name="Group 10" style="clip-path:url(#dilfz8pj5b)">
                            <path data-name="Path 13" d="M202.148 185.922a1.285 1.285 0 0 0 .134.343l.622.958 4.173-2.69zm4.116-2.654" transform="translate(-201.432 -147.917)" style="fill:#fff"/>
                        </g>
                    </g>
                </g>
                <path data-name="Path 21" d="M207.578 166.59c.976 3.916 2.205 7.706 5.033 10.787 1.765 2.033 5.49 1.515 7.24-.579.3 2.535-1.674 4.748-5.308 5.143-3.663.394-10.386-1.819-16.621-9.859zm0 0" transform="translate(-126.965 -67.715)" style="fill:#dac9db"/>
                <path data-name="Path 22" d="M213.385 177.286c-2.813-3.081-4.058-6.871-5.033-10.787l1.992-1.136c3 4.535 8.7 7.294 9.869 9.948a4.975 4.975 0 0 1 .4 1.4c-1.738 2.089-5.463 2.608-7.228.575zm0 0" transform="translate(-127.739 -67.624)" style="fill:#fff"/>
                <path data-name="Path 23" d="M209.088 165.623a14.443 14.443 0 0 0 1.722 2.242c.622.7 1.291 1.353 1.975 1.99 1.37 1.243 2.846 2.364 4.166 3.565.321.3.64.6.929.922a5.837 5.837 0 0 1 .731.959c.043.076.076.166.118.242a2.276 2.276 0 0 1 .109.271 5.7 5.7 0 0 1 .166.561 3.51 3.51 0 0 1 .062 1.125 3.347 3.347 0 0 1-.944 1.985 5.044 5.044 0 0 1-2.022 1.215 7.932 7.932 0 0 1-2.449.393 10.619 10.619 0 0 1-2.539-.332l-.626-.17-.622-.2-.3-.1-.3-.123-.611-.242c-.2-.076-.394-.181-.593-.275s-.394-.181-.593-.286l-.576-.319-.289-.152-.152-.076-.138-.09a26.6 26.6 0 0 1-4.274-3.2 39.6 39.6 0 0 1-3.7-3.917v-.011a.541.541 0 0 0-.85.668 35.663 35.663 0 0 0 3.663 4.2l1.034.955 1.081.892c.366.29.76.565 1.125.836.181.137.394.256.579.393l.593.38a18.591 18.591 0 0 0 5.215 2.275 12.28 12.28 0 0 0 2.889.393 9.4 9.4 0 0 0 2.95-.469 6.289 6.289 0 0 0 2.614-1.61 4.715 4.715 0 0 0 1.353-2.878 5.1 5.1 0 0 0-.1-1.6 7.677 7.677 0 0 0-.228-.759c-.047-.119-.091-.243-.152-.362a2.8 2.8 0 0 0-.2-.365 6.8 6.8 0 0 0-.926-1.212 13.261 13.261 0 0 0-1.049-.987c-.716-.622-1.432-1.182-2.144-1.761a54.766 54.766 0 0 1-2.1-1.729 21.07 21.07 0 0 1-3.652-3.86.566.566 0 0 0-.944.621zm0 0" transform="translate(-126.925 -67.58)" style="fill:#775e82"/>
                <path data-name="Path 24" d="M216.72 132.658c1.247.655-.152 2.275-.973 2.535-1.642.546-3.226 1.226-4.777 1.909a3.562 3.562 0 0 0 2.191 1.715c3.786.441 7.192-1.563 9.656-4.6a9.486 9.486 0 0 0 1.765-4.459A2.759 2.759 0 0 1 225.2 131c.213 2.55-2.141 9.146-14.947 13.135h-.091c-2.129.455-1.645-2.047-2.129-4.336a39.8 39.8 0 0 0-3.346-9.768l1.61-.806c-.2-.014-.409-.043-.622-.057 3.725-.068 7.471 1.472 11.045 3.49zm0 0" transform="translate(-127.468 -64.937)" style="fill:#752b0b"/>
                <path data-name="Path 25" d="M147.518 145.8c-.108 1.335-.668 3.215-.517 4.488.061.546-.684 2.278-.593 2.792-.835-.091-1.946-1.591-2.785-1.848-.622-.2-1.291-.4-1.975-.622-3.558-1.168-7.605-2.944-8.378-7.009a131.986 131.986 0 0 0 14.248 2.199zm0 0" transform="translate(-122.167 -66.009)" style="fill:#752b0b"/>
                <path data-name="Path 26" d="M125.664 142.637c2.3 6.842 10.14 11.6 20.36 11.163-.152-.636-.3-1.363-.441-2.152a13.367 13.367 0 0 1-2.525-.5c-.622-.2-1.291-.394-1.975-.622a17.873 17.873 0 0 1-15.419-7.889zm0 0" transform="translate(-121.603 -65.937)" style="fill:#752b0b"/>
                <path data-name="Path 27" d="M156.311 175.145a36.46 36.46 0 0 1-7.786 8.78c-6.539 5.612-14.751 6.676-22.2 10.314-.336.169-.655.35-.972.531.3-.243.621-.5.958-.774a53.666 53.666 0 0 0 9.945-10.557 7.417 7.417 0 0 0 3.449 1.2c3.595.379 10.448-1.759 16.606-9.494zm0 0" transform="translate(-121.579 -68.35)" style="fill:#dac9db"/>
                <path data-name="Path 28" d="M150.665 147.295c-.057.38-.119.759-.181 1.139-.806.1-1.613.167-2.434.213.929-9.677 3.316-32.445 28-33.751a26 26 0 0 1 23.875 12.441 30.161 30.161 0 0 1 2.918 6.459c-7.558-2.669-16.255-1.957-23.585 1.215-8.364 3.642-15.662 9.1-24.179 12.285a20.455 20.455 0 0 1-4.593 1.139c.06-.381.122-.761.179-1.14zm0 0" transform="translate(-123.264 -63.875)" style="fill:#dac9db"/>
                <path data-name="Path 29" d="M147.692 152.778c.047-.437.094-.926.138-1.44a26.894 26.894 0 0 0 2.434-.213 44.22 44.22 0 0 1-5.186 15.228 73.754 73.754 0 0 0 2.614-13.575zm0 0" transform="translate(-123.043 -66.567)" style="fill:#dac9db"/>
                <path data-name="Path 30" d="M125.1 191.682c.318-.2.636-.362.972-.531 7.45-3.638 15.662-4.7 22.2-10.314a36.461 36.461 0 0 0 7.786-8.78c.108-.123.2-.243.307-.38-.108.138-.2.257-.307.38.2-.3.383-.608.579-.926-.181.318-.38.621-.579.926-6.158 7.735-13.016 9.873-16.621 9.478a7.258 7.258 0 0 1-3.45-1.2 52.545 52.545 0 0 0 7.283-15.076c.015-.015.03-.047.044-.062-.014.015-.029.047-.044.062.015-.076.044-.152.062-.228a44.181 44.181 0 0 0 5.185-15.229 19.722 19.722 0 0 0 4.593-1.139c8.514-3.186 15.814-8.647 24.18-12.285 7.33-3.171 16.027-3.884 23.585-1.215 2.6 7.963 2.676 17.611 3.012 29.032.456 15.623.958 20.024 3.193 29.122 1.034 4.188 1.917 5.522 1.064 7.736-2.434 6.372-8.517 8.19-15.1 7.478-1.7-.181-3.388.5-5.443 2.4-6.234 5.764-11.709 7.128-19.163 4.549-4.835-1.667-4.864-4.4-8.209-3.338-7.482 2.384-13.413 3.324-18.252-.6-4.1-3.337-1.975-5.826-4.409-5.613-9.048.774-14.219-4.216-15.359-8.19-.759-2.825.612-4.177 2.891-6.057zm0 0" transform="translate(-121.331 -65.261)" style="fill:#fff"/>
                <g data-name="Group 16" transform="translate(38.626 141.841)" style="clip-path:url(#b5nby39rbc)">
                    <path data-name="Path 31" d="M164.524 218.783a2.082 2.082 0 0 1 1.4.332c.5.29 1.034.728 1.613 1.125a14.575 14.575 0 0 0 3.815 1.91 26.832 26.832 0 0 0 4.061 1 18.122 18.122 0 0 0 4.228.137l.531-.061a3.322 3.322 0 0 0 .531-.076l1.049-.2 1.019-.286c.17-.046.337-.108.5-.169l.5-.181a19.646 19.646 0 0 0 3.739-1.941c.152-.091.29-.2.442-.286l.854-.607c.137-.108.271-.214.408-.318l.821-.636.792-.669.76-.651a9.393 9.393 0 0 1 .763-.579 7.87 7.87 0 0 1 1.58-.879.913.913 0 1 0-.669-1.7c-.014.014-.047.014-.061.032a9.367 9.367 0 0 0-1.884 1.2c-.29.228-.565.456-.825.7l-.745.7-.727.665-.763.641c-.119.1-.243.209-.38.318l-.394.285-.394.29c-.137.1-.26.2-.4.289l-.821.546c-.275.167-.561.318-.85.484a4.153 4.153 0 0 1-.427.229l-.442.213-.441.21-.1.046-.109.044-.228.094-.455.166a2.831 2.831 0 0 1-.456.153l-.929.27-.944.185a2.535 2.535 0 0 1-.469.057l-.485.062a16.7 16.7 0 0 1-3.88-.152 24.357 24.357 0 0 1-3.8-1.016 13.138 13.138 0 0 1-1.75-.774 12.617 12.617 0 0 1-1.6-1.03c-.518-.394-1.019-.836-1.66-1.273l-.119-.076-.137-.076c-.091-.047-.184-.109-.275-.152a3.812 3.812 0 0 0-.607-.243 2.2 2.2 0 0 0-.318-.091l-.336-.047a2.566 2.566 0 0 0-.333-.014h-.336a.91.91 0 1 0-.029 1.819h.09zm0 0" transform="translate(-163.034 -213.073)" style="fill:#222e6a"/>
                </g>
                <path data-name="Path 33" d="M139.262 212.568c.047 0 .047 0 .032-.015s-.018-.029.015.015a.989.989 0 0 1 .1.243c.047.108.076.245.123.38a9.429 9.429 0 0 0 .683 1.728 7.758 7.758 0 0 0 1.081 1.548 10.093 10.093 0 0 0 1.324 1.258 13.128 13.128 0 0 0 3.07 1.881 12.166 12.166 0 0 0 3.468.926 17.338 17.338 0 0 0 3.545.061c.593-.047 1.167-.1 1.746-.2s1.157-.184 1.718-.29a61.02 61.02 0 0 0 3.377-.788c.565-.138 1.11-.29 1.656-.442.275-.076.565-.166.792-.213a6.7 6.7 0 0 1 .668-.091.91.91 0 1 0-.029-1.819h-.093a5.041 5.041 0 0 0-1 .214c-.337.1-.565.2-.836.285-.535.185-1.067.366-1.6.532a39.978 39.978 0 0 1-3.24.879 19.4 19.4 0 0 1-6.524.5 13.757 13.757 0 0 1-1.58-.3 10.4 10.4 0 0 1-1.5-.531 11 11 0 0 1-2.676-1.715 10.392 10.392 0 0 1-1.11-1.121 5.46 5.46 0 0 1-.806-1.277 6.759 6.759 0 0 1-.474-1.454c-.029-.138-.076-.29-.119-.442a3.164 3.164 0 0 0-.213-.546 1.865 1.865 0 0 0-.532-.636 2.118 2.118 0 0 0-.763-.332h-.029a.913.913 0 1 0-.366 1.79c.03-.042.063-.042.092-.028zm0 0" transform="translate(-122.55 -70.995)" style="fill:#222e6a"/>
                <g data-name="Group 17" transform="translate(0 49.263)" style="clip-path:url(#dayelbbzud)">
                    <path data-name="Path 34" d="M174 113.913a43.699 43.699 0 0 0-3.938.438 31.226 31.226 0 0 0-3.876.882 26.318 26.318 0 0 0-7.207 3.352 24.615 24.615 0 0 0-5.8 5.428 30.516 30.516 0 0 0-2.2 3.291 33.205 33.205 0 0 0-1.751 3.537 44.507 44.507 0 0 0-2.372 7.475 69.923 69.923 0 0 0-1.248 7.692c-.137 1.288-.256 2.578-.38 3.851l-.228 1.9-.123.958c-.029.318-.076.637-.133.941l-.307 1.88-.152.941-.2.94-.4 1.866-.044.228-.184.683-.243.922-.243.926c-.046.152-.076.3-.122.456l-.138.455-.56 1.819c-.047.152-.094.3-.138.455l-.166.441-.337.893-.332.9c-.062.152-.108.3-.17.438l-.181.441-.745 1.743c-.123.289-.26.579-.412.865l-.427.85-.423.849c-.061.138-.152.29-.228.424l-.228.412-.929 1.667-1.02 1.609-.256.408-.123.2-.137.2-1.092 1.548-.275.394-.289.38-1.187 1.486c-.09.119-.2.243-.3.362l-.318.366-.626.712c-.214.243-.409.484-.622.713l-1.338 1.366c-.228.228-.442.455-.669.666l-1.4 1.305c-.123.1-.228.214-.351.318l-.365.3-1.461 1.244c-.243.213-.5.408-.745.607-.5.408-1 .817-1.5 1.273a9.379 9.379 0 0 0-1.414 1.562 5.366 5.366 0 0 0-.532 1.017l-.09.275c-.032.091-.047.181-.076.286l-.062.289c-.014.091-.014.2-.032.29a6.127 6.127 0 0 0 .246 2.2 10.347 10.347 0 0 0 2.007 3.637 13.275 13.275 0 0 0 3.07 2.7 14.055 14.055 0 0 0 1.794.988 16.131 16.131 0 0 0 1.9.727 17.942 17.942 0 0 0 3.986.759 22.02 22.02 0 0 0 2.022.058l.5-.015.5-.029.469-.03a1.359 1.359 0 0 1 .275.015.908.908 0 1 0 .38-1.776h-.076a2.58 2.58 0 0 0-.7-.029l-.485.029-.456.029-.459.019a14.8 14.8 0 0 1-1.838-.032 17.024 17.024 0 0 1-3.6-.637 11.455 11.455 0 0 1-1.7-.636 12.494 12.494 0 0 1-1.6-.85 11.832 11.832 0 0 1-2.735-2.337 8.661 8.661 0 0 1-1.721-3.062 4.59 4.59 0 0 1-.2-1.61 3 3 0 0 1 .526-1.446 8.12 8.12 0 0 1 1.154-1.305c.456-.409.943-.817 1.432-1.23.242-.209.5-.408.744-.621l1.49-1.273.365-.318c.119-.1.243-.228.366-.333l1.414-1.352a9.043 9.043 0 0 0 .683-.7l.684-.713.683-.7c.213-.243.427-.484.655-.727l.64-.742.318-.365c.108-.123.214-.243.318-.38l1.218-1.534.3-.376.29-.4.56-.8.565-.8.137-.2.138-.209.256-.413 1.034-1.653.944-1.714.242-.423a4.409 4.409 0 0 0 .229-.442l.853-1.757c.138-.29.29-.579.409-.883l.759-1.8.2-.455c.061-.152.108-.3.167-.452l.336-.912.332-.911.17-.455c.044-.148.091-.3.152-.47l.579-1.863.134-.47c.046-.152.076-.321.122-.473l.243-.941.246-.941.119-.469.061-.243.047-.243.394-1.909.2-.958.152-.955.318-1.924c.062-.321.091-.64.138-.958l.122-.969.229-1.927c.133-1.287.242-2.563.393-3.836a65.727 65.727 0 0 1 1.248-7.522c.289-1.23.607-2.46 1-3.671s.839-2.383 1.324-3.551a32.237 32.237 0 0 1 1.7-3.367 27.129 27.129 0 0 1 2.115-3.1 23.227 23.227 0 0 1 5.475-5.033 24.646 24.646 0 0 1 6.8-3.049 32.343 32.343 0 0 1 7.42-1.14.91.91 0 1 0-.09-1.818zm0 0" transform="translate(-121.267 -113.063)" style="fill:#222e6a"/>
                </g>
                <path data-name="Path 36" d="M194.965 208.334a4.079 4.079 0 0 1 1.537-.38h.394c.061 0 .137.019.2.019l.242.014c.333.03.669.058.988.076a20.916 20.916 0 0 0 4-.137 15.334 15.334 0 0 0 3.923-1.017 11.88 11.88 0 0 0 3.483-2.17 11.009 11.009 0 0 0 1.414-1.5 11.947 11.947 0 0 0 1.111-1.714l.228-.455.213-.456c.076-.152.138-.318.2-.469l.091-.243.09-.256a6.138 6.138 0 0 0 .261-1.079 5.45 5.45 0 0 0 .029-1.106 11.833 11.833 0 0 0-.394-2.032c-.167-.637-.351-1.244-.531-1.852s-.336-1.212-.488-1.834l-.456-1.852c-.592-2.473-1.124-4.961-1.475-7.464s-.608-5.034-.774-7.584-.275-5.095-.383-7.644c-.091-2.546-.167-5.11-.243-7.674-.138-5.114-.256-10.253-.806-15.381a59.733 59.733 0 0 0-1.277-7.659 35.972 35.972 0 0 0-2.6-7.389l-.213-.437-.455-.882c-.076-.134-.167-.286-.243-.423l-.246-.427c-.076-.134-.181-.271-.256-.409l-.531-.831-.275-.412-.3-.394-.593-.789c-.108-.137-.2-.271-.3-.394l-.322-.38-.651-.742-.169-.184a1.886 1.886 0 0 1-.167-.181l-.351-.347-.7-.7c-.243-.228-.5-.442-.745-.655s-.5-.438-.744-.651l-.792-.593-.393-.3-.2-.152a2.328 2.328 0 0 0-.214-.133l-.835-.546-.412-.275c-.134-.091-.286-.167-.423-.243a27.3 27.3 0 0 0-7.33-2.958 28.575 28.575 0 0 0-7.877-.756.9.9 0 1 0 .076 1.805h.014a25.818 25.818 0 0 1 14.31 3.276 4.062 4.062 0 0 1 .409.228l.4.256.788.5c.061.047.138.076.2.123l.184.137.38.271.745.561c.243.2.47.408.713.607s.473.394.7.607l.669.651.332.333.17.169.152.181.622.7.3.347c.108.122.2.242.29.365l.564.742.289.365.257.394.517.774c.091.138.181.257.257.394l.245.408c.076.138.167.275.243.413l.456.817.214.426a32.6 32.6 0 0 1 2.524 7.066 58.787 58.787 0 0 1 1.263 7.478c.549 5.052.683 10.162.835 15.275.061 2.561.137 5.11.231 7.674s.2 5.129.361 7.689.4 5.143.778 7.692.882 5.1 1.461 7.6l.442 1.88c.152.637.318 1.258.484 1.88s.351 1.244.518 1.838a11.094 11.094 0 0 1 .336 1.742 3.491 3.491 0 0 1-.032.807 3.946 3.946 0 0 1-.2.788l-.076.2-.094.214a3.357 3.357 0 0 1-.181.408l-.2.408-.213.394a9.727 9.727 0 0 1-.987 1.487 9.123 9.123 0 0 1-1.233 1.291 10.638 10.638 0 0 1-3.042 1.834 13.546 13.546 0 0 1-3.512.85 19.86 19.86 0 0 1-3.681.076c-.3-.03-.622-.044-.926-.091l-.228-.029c-.094-.015-.184-.015-.29-.032-.184-.015-.38-.015-.564-.015a6.244 6.244 0 0 0-2.188.5.9.9 0 0 0-.489 1.2.857.857 0 0 0 1.172.484zm0 0" transform="translate(-125.436 -63.802)" style="fill:#222e6a"/>
                <path data-name="Path 37" d="M205.846 205.394c.441-3.7-1.476 3.248-9.049 1.776-4.242-.835-1.931-2.517-4.593.29a12.566 12.566 0 0 1-14.675 2.954c-4.109-2.047-2.847-2.821-6.22-.879a19.405 19.405 0 0 1-22.537-1.776c-3.559-3.107-2.662-3.548-6.082-2.365s-8.394 2.289-13.185-1.182c-3.255-2.365-4.911-3.808-4.152-1.335 1.262 4.112 7.3 6.355 13.579 5.642.868-.09 1.675 0 2.387 2.517 1.415 5.067 8.715 7.8 17.963 4.249 4.441-1.7 3.938-1.229 7.069 1.229 4.669 3.638 13.2 4.549 21.655-3.034 2.723-2.445 3.544-1.762 8.654-1.762 3.573 0 8.53-1.985 9.228-5.822" transform="translate(-121.566 -70.312)" style="fill:#ff8856"/>
                <path data-name="Path 38" d="M125.8 202.628a2.422 2.422 0 0 1-.2-.575.333.333 0 0 1-.014-.108v-.03a.166.166 0 0 1-.015.062.3.3 0 0 1-.032.043c-.015.018-.029.047-.044.061a.266.266 0 0 1-.123.076c-.014 0-.032.015-.047.015h-.014a.471.471 0 0 1 .108.032c.076.029.167.076.256.119.181.091.38.213.579.336.774.485 1.538 1.045 2.3 1.606l.579.426.622.424c.1.076.2.137.3.213l.318.181c.213.123.427.243.655.366a13.263 13.263 0 0 0 2.827 1.016 14.481 14.481 0 0 0 5.931-.014 24.512 24.512 0 0 0 2.831-.759c.455-.153.9-.3 1.338-.442a2.694 2.694 0 0 1 1.092-.181.825.825 0 0 1 .351.152 3.19 3.19 0 0 1 .455.394c.322.3.669.651 1.005.987s.7.666 1.064.983.744.652 1.142.955a20.078 20.078 0 0 0 5.168 2.824 20.66 20.66 0 0 0 5.768 1.242 19.132 19.132 0 0 0 5.883-.528 22.313 22.313 0 0 0 2.813-.911l.687-.29a2.8 2.8 0 0 0 .333-.152l.336-.167c.213-.1.442-.209.655-.318l.636-.347c.214-.123.427-.243.626-.351s.409-.228.608-.347.393-.214.592-.3a1.766 1.766 0 0 1 .47-.167.334.334 0 0 1 .123 0c.029 0 .09.029.166.043a3.356 3.356 0 0 1 .518.3c.394.243.806.517 1.233.774s.85.484 1.291.7l.166.076.17.076.347.152c.123.044.228.1.351.152l.351.119a12.272 12.272 0 0 0 2.933.668c.245.03.5.047.744.062a6.777 6.777 0 0 0 .764.015l.759-.015c.243-.015.5-.047.745-.076.122-.015.242-.032.38-.047l.73-.152c.123-.029.243-.044.365-.076l.73-.2.181-.047.184-.061.347-.119.351-.123c.061-.014.123-.044.184-.057l.167-.076.683-.322a1.047 1.047 0 0 0 .167-.076l.169-.091.637-.361.166-.094c.047-.029.109-.072.153-.1a11.9 11.9 0 0 0 1.2-.879l.575-.47c.185-.167.351-.351.536-.518l.256-.256.26-.257.485-.531.473-.531c.076-.076.152-.167.2-.213l.015-.015-.015.015a.046.046 0 0 0-.029.014c-.015 0-.015 0-.032.018a.231.231 0 0 1-.1.014h-.123a.686.686 0 0 1-.076-.014c-.062-.032-.043-.032-.015 0l.138.1c.1.076.213.167.332.243a5.622 5.622 0 0 0 .73.38 8.037 8.037 0 0 0 1.476.455 11.472 11.472 0 0 0 3 .271 9.145 9.145 0 0 0 2.98-.636 9.467 9.467 0 0 0 2.586-1.578c.2-.166.38-.318.546-.484l.26-.243a2.433 2.433 0 0 1 .228-.2c.029-.029.057-.043.043-.029h-.043a.056.056 0 0 0-.047.015h-.076a.2.2 0 0 1-.091-.015l-.108-.047c-.029-.029-.057-.029-.076-.061-.014-.015-.044-.058-.057-.058-.018-.018-.018-.032-.032-.046l-.015-.03a.053.053 0 0 0-.015-.032v.123c0 .2-.032.423-.046.651a.538.538 0 0 0 .488.593.546.546 0 0 0 .592-.47c.03-.243.058-.488.077-.759v-.243a.112.112 0 0 0-.019-.076l-.015-.091c0-.032-.029-.076-.029-.122a.247.247 0 0 0-.032-.077.368.368 0 0 0-.044-.076l-.091-.09a.449.449 0 0 0-.122-.091.669.669 0 0 0-.152-.061.438.438 0 0 0-.138-.015h-.132c-.029 0-.057.015-.09.015a.143.143 0 0 1-.076.014l-.062.019a1.091 1.091 0 0 0-.256.148c-.123.094-.214.17-.318.26l-.275.243c-.184.152-.351.3-.531.442a8.621 8.621 0 0 1-2.3 1.349 7.544 7.544 0 0 1-2.586.5 10.587 10.587 0 0 1-2.662-.286 7.8 7.8 0 0 1-1.248-.4 4.21 4.21 0 0 1-.531-.285c-.076-.062-.152-.108-.243-.184l-.152-.119-.047-.03-.061-.046-.03-.015-.046-.032-.047-.029c-.015-.015-.029-.015-.058-.03-.061-.018-.108-.032-.169-.046a.924.924 0 0 0-.21-.015.847.847 0 0 0-.184.029c-.029.015-.061.015-.076.032l-.123.058-.044.032-.076.061c-.046.03-.076.058-.123.091a2.262 2.262 0 0 0-.289.3l-.484.529-.474.517-.119.123-.123.119-.243.243-.488.469-.531.427a11.576 11.576 0 0 1-1.1.789c-.044.029-.09.061-.137.091l-.152.076-.29.166-.285.167-.156.076c-.044.032-.106.047-.152.076l-.608.275-.152.076a.753.753 0 0 0-.152.057l-.318.109-.321.1-.152.061-.167.044-.655.17a2.219 2.219 0 0 1-.332.057l-.337.062-.332.061a2.574 2.574 0 0 1-.336.029c-.228.015-.442.047-.669.062l-.669.014c-.228.015-.441-.014-.668-.014a4.667 4.667 0 0 1-.669-.062 10.893 10.893 0 0 1-2.6-.6l-.318-.108a2.019 2.019 0 0 1-.3-.138l-.3-.133-.153-.076-.156-.076c-.408-.214-.8-.427-1.2-.669s-.774-.484-1.187-.742a5.913 5.913 0 0 0-.712-.412 2.613 2.613 0 0 0-.517-.152 1.953 1.953 0 0 0-.579 0 3.641 3.641 0 0 0-.882.275 7.357 7.357 0 0 0-.683.347c-.214.123-.427.245-.641.351s-.408.242-.621.347l-.612.336c-.2.1-.408.2-.621.3l-.3.148c-.1.047-.213.094-.318.138l-.641.275a19.212 19.212 0 0 1-2.614.831 18.2 18.2 0 0 1-5.432.5 18.588 18.588 0 0 1-5.338-1.139 18.809 18.809 0 0 1-4.8-2.593c-.717-.546-1.4-1.183-2.083-1.819-.337-.318-.673-.655-1.034-1a5.045 5.045 0 0 0-.641-.517 3.06 3.06 0 0 0-.427-.242 2.056 2.056 0 0 0-.517-.138 3.1 3.1 0 0 0-.941.047 8.983 8.983 0 0 0-.763.2c-.47.148-.926.318-1.367.47a21.4 21.4 0 0 1-2.662.741 13.449 13.449 0 0 1-5.384.076 12.25 12.25 0 0 1-2.538-.864c-.2-.106-.394-.214-.593-.318l-.3-.167a5.464 5.464 0 0 0-.29-.184l-.564-.362-.575-.412c-.778-.546-1.552-1.106-2.405-1.62a6.443 6.443 0 0 0-.668-.365c-.123-.062-.243-.106-.394-.167a1.161 1.161 0 0 0-.243-.061l-.061-.015-.076-.015h-.185a.257.257 0 0 0-.1.015c-.047.015-.091.029-.137.047a.654.654 0 0 0-.275.166.806.806 0 0 0-.228.485 1.483 1.483 0 0 0 .046.56 7.732 7.732 0 0 0 .271.76.543.543 0 0 0 .717.271.632.632 0 0 0 .326-.775zm0 0" transform="translate(-121.51 -70.277)" style="fill:#222e6a"/>
                <path data-name="Path 39" d="M197.243 146.145a5.205 5.205 0 1 1-5.02 5.2 5.119 5.119 0 0 1 5.02-5.2zm0 0" transform="translate(-126.542 -66.197)" style="fill:#222e6a"/>
                <path data-name="Path 40" d="M165.243 147.98a5.206 5.206 0 1 1-5.02 5.2 5.121 5.121 0 0 1 5.02-5.2zm0 0" transform="translate(-124.167 -66.334)" style="fill:#222e6a"/>
                <path data-name="Path 41" d="M162.113 151.678c0 1.092 1.428 2 3.27 2s3.193-.882 3.207-1.975c0-1.182-1.428-2.517-3.222-2.531s-3.24 1.328-3.255 2.506zm0 0" transform="translate(-124.308 -66.422)" style="fill:#fff"/>
                <path data-name="Path 42" d="M194.129 149.826c0 1.092 1.428 2 3.269 2s3.193-.882 3.208-1.974c0-1.183-1.428-2.517-3.222-2.532s-3.24 1.339-3.255 2.506zm0 0" transform="translate(-126.684 -66.285)" style="fill:#fff"/>
                <path data-name="Path 43" d="M179.177 161.322a13.359 13.359 0 0 1-.655-2.792c2.206 1.927 7.5 1.638 9.063-.214-.366 1.534-.351 3.885-1.2 5.475-1.46-2.151-4.592-2.806-7.208-2.469zm0 0" transform="translate(-125.526 -67.101)" style="fill:#a65a7f"/>
                <path data-name="Path 44" d="M186.438 164.025a3.238 3.238 0 0 1-.821 1.035c-1.613 1.334-4.853.846-6.387-3.5 2.615-.341 5.747.314 7.208 2.465zm0 0" transform="translate(-125.578 -67.335)" style="fill:#ffb0d7"/>
                <path data-name="Path 45" d="M187.077 158.173c-.214.789-.322 1.563-.455 2.3a13.543 13.543 0 0 1-.489 2.141 5.372 5.372 0 0 1-.412.926 2.811 2.811 0 0 1-.271.38.958.958 0 0 1-.152.167l-.17.152a2.253 2.253 0 0 1-1.641.514 3.063 3.063 0 0 1-1.732-.7 4.881 4.881 0 0 1-.73-.7 5.649 5.649 0 0 1-.608-.85 12.666 12.666 0 0 1-1.446-4.109.478.478 0 0 0-.575-.38.494.494 0 0 0-.4.518 12.6 12.6 0 0 0 .412 2.351 10.445 10.445 0 0 0 .9 2.26c.091.181.214.362.318.528a5.951 5.951 0 0 0 .38.5 5.7 5.7 0 0 0 .915.908 4.486 4.486 0 0 0 2.477 1 3.564 3.564 0 0 0 2.614-.865l.261-.209a2.113 2.113 0 0 0 .228-.275 6.308 6.308 0 0 0 .38-.561 7.743 7.743 0 0 0 .488-1.182 13.369 13.369 0 0 0 .423-2.369c.076-.773.138-1.529.246-2.241v-.019a.489.489 0 0 0-.958-.2zm0 0" transform="translate(-125.486 -67.063)" style="fill:#46334d"/>
                <path data-name="Path 46" d="M178.169 158.858a4.794 4.794 0 0 0 1.091.817 6.252 6.252 0 0 0 1.233.5 9.275 9.275 0 0 0 5.154-.093 5.7 5.7 0 0 0 1.218-.546 3.4 3.4 0 0 0 1.049-.941.5.5 0 0 0-.1-.68.484.484 0 0 0-.611.029l-.03.015a4.411 4.411 0 0 1-1.884.879 8.809 8.809 0 0 1-1.11.2 9.062 9.062 0 0 1-1.129.076 6.865 6.865 0 0 1-1.125-.047 8.619 8.619 0 0 1-1.11-.167 5.692 5.692 0 0 1-2.007-.8l-.014-.015a.5.5 0 0 0-.684.119.539.539 0 0 0 .059.654zm0 0" transform="translate(-125.489 -67.064)" style="fill:#46334d"/>
                <path data-name="Path 47" d="M148.495 137.959c8.82-2.455 16.4-7.446 24.349-11.9 8.289-4.672 17.532-6.04 26.717-6.054.991.014 2.007.047 3.012.123a42.067 42.067 0 0 0-6.951-1.154h-.061a42.67 42.67 0 0 0-8.028.138c-12.332 1.316-23.282 7.417-32.012 12.208a29.517 29.517 0 0 1-2.8 1.349c-.864.366-1.732.7-2.614 1-1.1.366-2.188.684-3.284.941a48.845 48.845 0 0 1-9.427 1.273 56.627 56.627 0 0 1-9.4-.376c-2.177-.275-3.013.408-3.056 1.757 8.029.836 15.56 3.136 23.555.695zm0 0" transform="translate(-121.549 -64.171)" style="fill:#f3ca9c"/>
                <path data-name="Path 48" d="M223.977 127.6c.668.8 1.319 1.666 1.974 2.563a4.337 4.337 0 0 0 .076-.5 13 13 0 0 0-2.05-2.063zm0 0" transform="translate(-128.899 -64.821)" style="fill:#b777ba"/>
                <path data-name="Path 49" d="M210.106 122.886a43.48 43.48 0 0 0-7.515-2.654c-1-.076-2.007-.108-3.009-.123-9.2.033-18.447 1.382-26.722 6.054-7.966 4.459-15.543 9.449-24.345 11.906-8 2.426-15.513.123-23.528-.683 0 .152 0 .321.015.488a13.216 13.216 0 0 0 .64 3.11 17.935 17.935 0 0 0 15.406 7.9c-3.559-1.167-7.605-2.943-8.379-7.008 4.181.865 8.289 2.214 12.56 2.564 0-.091.014-.185.014-.275a29.981 29.981 0 0 0 4.365-.455 33.728 33.728 0 0 0 2.068-.423c.337-.076.669-.153 1.005-.243a75.377 75.377 0 0 0 10.3-3.656c.2-.076.394-.167.608-.257 5.1-2.184 10.476-4.777 16.346-7.145a47.383 47.383 0 0 1 14.509-3.519c.835-.062 1.66-.076 2.448-.091 1.02 0 1.993.047 2.923.123 3.724-.094 7.464 1.468 11.04 3.487 1.244.655-.152 2.275-.976 2.535-1.642.546-3.223 1.226-4.774 1.909a3.566 3.566 0 0 0 2.192 1.715c3.786.441 7.192-1.563 9.655-4.6a9.231 9.231 0 0 0 1.69-3.956c-.655-.9-1.3-1.747-1.978-2.564a31.969 31.969 0 0 0-6.558-4.139zm0 0" transform="translate(-121.552 -64.265)" style="fill:#f25510"/>
                <path data-name="Path 50" d="M163.322 123.379a4.145 4.145 0 0 1-.9-3.809l-1.566.774a.974.974 0 0 0-.412 1.244l.123.286L161.86 125a.823.823 0 0 0 1.125.488l2.466-1.216a2.506 2.506 0 0 1-2.129-.893zm0 0" transform="translate(-124.178 -64.225)" style="fill:#38263b"/>
                <path data-name="Path 51" d="m166.353 117.555-3.786 1.865a4.123 4.123 0 0 0 .9 3.809 2.539 2.539 0 0 0 2.127.892l3.316-1.623c.148-2.076-.673-4.216-2.557-4.943zm0 0" transform="translate(-124.334 -64.075)" style="fill:#5f5061"/>
                <path data-name="Path 52" d="m171.316 120.348-1.353-3.262-.062-.167a.83.83 0 0 0-1.125-.485l-2.1 1.031c1.884.727 2.69 2.867 2.553 4.944l1.659-.817a1 1 0 0 0 .428-1.244zm0 0" transform="translate(-124.647 -63.986)" style="fill:#38263b"/>
                <path data-name="Path 53" d="M156.652 118.793a.97.97 0 0 0-.408 1.244l1.017 2.455-.106.047-.228.133q.819 1.753 1.642 3.5c.85-3.167 1.674-6.339 2.434-9.525zm0 0" transform="translate(-123.866 -64.008)" style="fill:#e6d093"/>
                <path data-name="Path 54" d="m160.98 122.894-.546-1.319-.122-.286a.97.97 0 0 1 .408-1.244l1.309-.636c.412-1.292.821-2.582 1.248-3.87l-2.116 1.045a334.38 334.38 0 0 1-2.43 9.525c.271.593.546 1.186.836 1.776.454-1.685.925-3.337 1.413-4.991zm0 0" transform="translate(-124.057 -63.926)" style="fill:#fff"/>
                <path data-name="Path 55" d="m163.3 128.854 1.1-3.793-1.461.716a.819.819 0 0 1-1.125-.488l-.744-1.805a291.672 291.672 0 0 0-1.415 4.991c.29.622.593 1.244.883 1.88.875-.499 1.819-1.002 2.762-1.501zm0 0" transform="translate(-124.125 -64.516)" style="fill:#e6d093"/>
                <path data-name="Path 56" d="m167.48 113.441-3.924 1.927a296.141 296.141 0 0 0-1.247 3.866l4.246-2.076c.317-1.229.621-2.473.925-3.717zm0 0" transform="translate(-124.322 -63.77)" style="fill:#e6d093"/>
                <path data-name="Path 57" d="M164.685 125.019c-.365 1.262-.73 2.535-1.1 3.793 1.49-.788 3.041-1.591 4.625-2.365.256-1.167.518-2.351.759-3.536zm0 0" transform="translate(-124.417 -64.473)" style="fill:#fff"/>
                <path data-name="Path 58" d="M172.9 114.443a.677.677 0 0 1-.076.033l-.868-2.08a.86.86 0 0 0-.759-.56c-.047.3-.09.607-.137.911-.228 1.5-.485 3-.76 4.488l1.14 2.777a.972.972 0 0 1-.409 1.244l-1.689.831a211.55 211.55 0 0 1-.759 3.536 94.824 94.824 0 0 1 7.938-3.474c-1.274-2.531-2.536-5.081-3.621-7.706zm0 0" transform="translate(-124.788 -63.651)" style="fill:#e6d093"/>
                <path data-name="Path 59" d="M171.075 111.836a.782.782 0 0 0-.365.076l-2.889 1.425a222.12 222.12 0 0 1-.926 3.7l1.9-.926a.82.82 0 0 1 1.125.484l.062.167.2.485c.275-1.487.532-2.988.76-4.488.043-.316.086-.619.133-.923zm0 0" transform="translate(-124.663 -63.651)" style="fill:#fff"/>
                <path data-name="Path 60" d="M189.766 111.276a41.913 41.913 0 0 0-16.516 3.111c1.081 2.639 2.343 5.175 3.62 7.706a57.28 57.28 0 0 1 14.263-3.548 45.42 45.42 0 0 1 4.64-.26 21.588 21.588 0 0 0-6.007-7.009zm0 0" transform="translate(-125.134 -63.608)" style="fill:#5f5061"/>
                <path data-name="Path 61" d="M197.1 118.286c1.125 0 2.25.032 3.392.122l.015-.393a47.816 47.816 0 0 0-5.978-6.6l-.091.123a36.68 36.68 0 0 0-3.345-.261 21.587 21.587 0 0 1 6.007 7.009zm0 0" transform="translate(-126.458 -63.61)" style="fill:#ab9bad"/>
                <path data-name="Path 62" d="M152.988 125.188c-.409.213-.806.393-1.172.545h-.016a18.329 18.329 0 0 1-3.208 9.316v.029c1.1-.256 2.191-.575 3.284-.941a34.55 34.55 0 0 0 2.129-.788 33.953 33.953 0 0 0-1.017-8.161zm0 0" transform="translate(-123.304 -64.642)" style="fill:#38263b"/>
                <path data-name="Path 63" d="M156.684 123.156c-1.229.73-2.354 1.367-3.36 1.866a34.875 34.875 0 0 1 1.034 8.162c.167-.061.318-.137.489-.2a33.97 33.97 0 0 0 2.795-1.349c.778-.427 1.584-.864 2.405-1.319-1.125-2.379-2.235-4.762-3.363-7.16zm0 0" transform="translate(-123.655 -64.491)" style="fill:#5f5061"/>
                <path data-name="Path 64" d="M150.7 117.031c.256 4.991-.854 10.01-4.047 13.482a7.173 7.173 0 0 1-4.9 2.535 14.741 14.741 0 0 1-3.33 2.716 49.38 49.38 0 0 0 9.427-1.277v-.03a18.273 18.273 0 0 0 3.208-9.312h.019c.1-.047.2-.094.3-.138a45.779 45.779 0 0 0-.677-7.976zm0 0" transform="translate(-122.55 -64.037)" style="fill:#8e5e1f"/>
                <path data-name="Path 65" d="M170.67 95.242c3.772.242 6.068 5.157 9.764 6.538a36.786 36.786 0 0 1 3.937 1.606c-6.1-4.655-8.65-10.694-14.523-11.862-4.014-.8-11.435 1.956-20.483 11.392-5.945 6.191-2.586 15.213-4.3 22.617 1.808-3.9 2.083-9.407 3.07-13.272 2.327-10.571 13.154-17.351 22.535-17.019zm0 0" transform="translate(-123.042 -62.134)" style="fill:#f3ca9c"/>
                <path data-name="Path 66" d="M152.375 125.311c.275-.123.564-.275.867-.412a52.36 52.36 0 0 0-1.019-3.61c.122 1.334.152 2.669.152 4.022zm0 0" transform="translate(-123.574 -64.353)" style="fill:#eebef0"/>
                <path data-name="Path 67" d="M183.27 103.9a47.393 47.393 0 0 1 7.316 6.553 38.29 38.29 0 0 1 2.966.243l.09-.123c-1.945-1.834-3.178-3.989-6.115-6.1-.21-.152-.423-.3-.622-.455a32.016 32.016 0 0 0-3.938-1.606 11.235 11.235 0 0 1-3.591-2.488 16.2 16.2 0 0 0 3.894 3.976zm0 0" transform="translate(-125.589 -62.767)" style="fill:#eebef0"/>
                <path data-name="Path 68" d="M180.5 103.576a15.943 15.943 0 0 1-3.9-3.976c-1.946-1.819-3.754-3.884-6.158-4.036-9.4-.333-20.227 6.448-22.552 17.033-.987 3.855-1.262 9.374-3.07 13.272a12.431 12.431 0 0 1-2.813 5.6 7.164 7.164 0 0 0 4.9-2.532 17.224 17.224 0 0 0 4.061-11.073c-.383-1.124-.792-2.231-1.2-3.337l.169-.015-.169.015a82.33 82.33 0 0 1 1.2 3.337c.029-.806.029-1.609-.019-2.412a29.986 29.986 0 0 0-.423-1.942l.181.167-.181-.167c.167.651.3 1.288.423 1.942a29.587 29.587 0 0 0-.958-6.054l.184.167-.184-.167a29.386 29.386 0 0 1 .958 6.054 37.787 37.787 0 0 1 .518 3.942c.38 1.2.716 2.4 1.019 3.612 1.081-.546 2.267-1.229 3.587-2l.108-.047-1.019-2.455a.973.973 0 0 1 .412-1.244l13.276-6.524a.822.822 0 0 1 1.125.489l.867 2.076a41.551 41.551 0 0 1 16.971-3.125 44.87 44.87 0 0 0-7.313-6.6zm0 0" transform="translate(-122.816 -62.443)" style="fill:#f25510"/>
                <path data-name="Path 69" d="M134.066 142.679a24.43 24.43 0 0 0 10.4 2.726 28.9 28.9 0 0 0 5.4-.347c.442-.061.882-.152 1.324-.242l1.324-.257c.864-.2 1.732-.427 2.6-.668a85.123 85.123 0 0 0 9.992-3.733c3.251-1.4 6.463-2.882 9.671-4.292q2.419-1.069 4.834-2.094l1.219-.5c.408-.152.806-.318 1.215-.47l1.233-.456c.409-.152.821-.286 1.229-.423s.839-.26 1.248-.394.835-.243 1.248-.351a52.516 52.516 0 0 1 2.524-.607 43.044 43.044 0 0 1 5.139-.756 32.661 32.661 0 0 1 5.185-.061 30.9 30.9 0 0 1 5.129.759 25.126 25.126 0 0 1 4.878 1.653c.4.181.778.38 1.142.576l.275.152.228.137-.018-.015.018.015c.015.015.03.047.044.061a.114.114 0 0 1 .032.077c0 .029.015.043.03.076a.677.677 0 0 1-.03.332.928.928 0 0 0-.046.091l-.015.046-.032.044-.058.091a.355.355 0 0 0-.076.094 4.363 4.363 0 0 1-.882.713l-.018.015a.522.522 0 0 0-.167.741.527.527 0 0 0 .73.185 5.028 5.028 0 0 0 1.186-.912c.047-.044.091-.1.138-.152l.123-.181.057-.091.047-.108a1.276 1.276 0 0 0 .09-.21 1.721 1.721 0 0 0 .091-.972c-.014-.076-.044-.167-.057-.243a1.7 1.7 0 0 0-.109-.228 1.881 1.881 0 0 0-.137-.214c-.029-.029-.061-.076-.091-.1l-.046-.061a.284.284 0 0 0-.076-.058l-.043-.032a.05.05 0 0 0-.032-.015l-.03-.029-.076-.047-.152-.09-.289-.184a20.841 20.841 0 0 0-1.2-.637 25.41 25.41 0 0 0-5.1-1.833 31.717 31.717 0 0 0-5.338-.85 35.191 35.191 0 0 0-5.384.014 45.118 45.118 0 0 0-10.523 2.123c-.423.138-.85.275-1.277.427-.427.134-.836.3-1.263.455s-.835.318-1.247.485l-1.229.5c-1.642.668-3.27 1.381-4.883 2.079-3.225 1.425-6.433 2.911-9.655 4.322a93.778 93.778 0 0 1-9.811 3.732 33.082 33.082 0 0 1-10.2 1.591 22.941 22.941 0 0 1-5.1-.651 19.5 19.5 0 0 1-2.463-.76c-.806-.285-1.6-.636-2.39-1a.542.542 0 0 0-.727.261.587.587 0 0 0 .247.751zm0 0" transform="translate(-122.204 -64.869)" style="fill:#222e6a"/>
                <path data-name="Path 70" d="M194.381 111.794c.469.579.972 1.125 1.475 1.686l1.5 1.638 1.491 1.639 1.49 1.623v.015a.539.539 0 0 0 .778.029.525.525 0 0 0 .1-.665 16.751 16.751 0 0 0-1.277-1.927c-.228-.3-.469-.59-.716-.893s-.5-.579-.759-.865-.518-.564-.789-.821-.535-.531-.825-.788a19.91 19.91 0 0 0-1.746-1.472.537.537 0 0 0-.76.108.586.586 0 0 0 .038.693zm0 0" transform="translate(-126.693 -63.58)" style="fill:#31133d"/>
                <g data-name="Group 18" transform="translate(14.556 28.512)" style="clip-path:url(#3dbfjdgtte)">
                    <path data-name="Path 71" d="M138.606 134.287a15.979 15.979 0 0 0 2.3-1.609 12.334 12.334 0 0 0 1.946-2.062 13.8 13.8 0 0 0 1.446-2.459 15.425 15.425 0 0 0 .883-2.683 26.35 26.35 0 0 0 .56-5.522c.032-1.834-.015-3.638.015-5.429a26.251 26.251 0 0 1 .535-5.25 13.576 13.576 0 0 1 .774-2.456 11.631 11.631 0 0 1 1.247-2.213c.257-.337.518-.669.806-.988l.214-.243.228-.242.47-.485c.318-.321.64-.64.958-.943s.64-.618.973-.922a52.488 52.488 0 0 1 4.09-3.461c.716-.546 1.432-1.06 2.177-1.544s1.49-.958 2.264-1.381a20.9 20.9 0 0 1 4.838-1.989 12 12 0 0 1 1.262-.242c.21-.029.423-.043.622-.076.214-.014.427-.029.622-.029a8 8 0 0 1 1.219.09c.2.029.408.09.607.137s.412.1.607.181a12.255 12.255 0 0 1 4.3 2.73c1.294 1.2 2.48 2.55 3.728 3.869a47.243 47.243 0 0 0 3.952 3.837l.532.437.545.427 1.1.8a17.5 17.5 0 0 1 1.992 1.715c1.248 1.229 2.344 2.7 3.725 3.974a.535.535 0 0 0 .763-.029.549.549 0 0 0-.018-.76 25.256 25.256 0 0 1-1.779-1.971 43.369 43.369 0 0 0-1.823-2.064 17.936 17.936 0 0 0-2.083-1.866l-1.081-.817-.518-.409-.5-.427a42.779 42.779 0 0 1-3.8-3.761c-1.216-1.32-2.4-2.7-3.758-3.989a18.067 18.067 0 0 0-2.2-1.776 11.413 11.413 0 0 0-2.586-1.287c-.228-.09-.473-.137-.7-.213s-.47-.123-.713-.166a7.239 7.239 0 0 0-1.49-.123c-.246 0-.489.014-.73.032s-.489.043-.717.076a14.154 14.154 0 0 0-1.414.271 22.961 22.961 0 0 0-5.2 2.108 29.04 29.04 0 0 0-2.387 1.443c-.778.5-1.523 1.045-2.268 1.591a52.969 52.969 0 0 0-4.2 3.566c-.332.318-.668.636-.987.954s-.655.637-.973.969l-.47.488-.245.243-.243.257a13.519 13.519 0 0 0-.912 1.12 12.615 12.615 0 0 0-1.4 2.5 15.731 15.731 0 0 0-.854 2.715 26.683 26.683 0 0 0-.518 5.537c-.014 1.837.047 3.641.047 5.432a26.083 26.083 0 0 1-.47 5.261 13.7 13.7 0 0 1-.763 2.474 11.367 11.367 0 0 1-1.262 2.242 13.3 13.3 0 0 1-3.848 3.461.539.539 0 0 0-.181.742.55.55 0 0 0 .744.207zm0 0" transform="translate(-137.058 -90.587)" style="fill:#222e6a"/>
                </g>
                <path data-name="Path 73" d="m169.1 117.208.7 1.714.351.865.167.408.091.214.014.061.019.029a.118.118 0 0 1 .015.076.618.618 0 0 1-.123.517.646.646 0 0 1-.091.076c-.015.015-.032.015-.047.029l-.1.047-.427.2-1.671.788-3.349 1.6-1.671.8-.213.106-.047.032-.014.014c-.015 0-.03 0-.03.015a.187.187 0 0 1-.152-.015.3.3 0 0 1-.137-.1c-.015-.032-.047-.061-.062-.094l-.014-.03-.015-.061-.047-.1-.716-1.715-.366-.85-.181-.423-.091-.213-.018-.047-.015-.029c-.014-.015-.014-.03-.014-.062a.541.541 0 0 1 .076-.441c.014-.03.047-.044.061-.058s.029-.015.047-.032l.1-.044.413-.213 1.656-.85 3.3-1.682 1.66-.835.214-.1.043-.033.033-.014c.014-.015.029-.015.057-.015a.428.428 0 0 1 .231.015.47.47 0 0 1 .21.152.3.3 0 0 1 .076.119l.018.032.015.061zm.7-.29-.046-.1-.015-.062-.029-.076a2.834 2.834 0 0 0-.17-.271 1.213 1.213 0 0 0-.531-.38 1.333 1.333 0 0 0-.683-.047.793.793 0 0 0-.167.062l-.076.029-.047.032-.213.106-1.671.8-3.345 1.594-1.675.789-.427.2-.1.047c-.047.029-.108.061-.152.09a1.051 1.051 0 0 0-.275.243 1.473 1.473 0 0 0-.318 1.305c.015.062.03.106.043.167l.032.076.015.061.091.214.166.423.351.864.7 1.715.044.1.015.062.032.076a1.11 1.11 0 0 0 .2.3 1.377 1.377 0 0 0 .592.427 1.306 1.306 0 0 0 .759.044.739.739 0 0 0 .181-.062l.09-.029.047-.029.214-.108 1.656-.832 3.3-1.685 1.656-.85.413-.214.1-.043c.047-.033.108-.062.152-.091a1.974 1.974 0 0 0 .26-.228 1.383 1.383 0 0 0 .271-1.229c-.015-.047-.029-.106-.043-.152l-.032-.076-.015-.062-.09-.209-.184-.427-.362-.85zm0 0" transform="translate(-124.137 -63.957)" style="fill:#31133d"/>
                <path data-name="Path 74" d="M173.328 114.877c1.594-.532 3.193-1.031 4.821-1.44a44.578 44.578 0 0 1 4.9-1.017 42.848 42.848 0 0 1 2.477-.318c.82-.09 1.66-.137 2.495-.166a45.371 45.371 0 0 1 5 .09.535.535 0 0 0 .579-.5.572.572 0 0 0-.441-.575 29.412 29.412 0 0 0-5.154-.441c-.867 0-1.736.032-2.6.108-.427.029-.868.091-1.3.119-.427.047-.85.108-1.291.167-.854.137-1.7.3-2.542.488s-1.671.408-2.492.666a37.655 37.655 0 0 0-4.821 1.8.538.538 0 0 0-.275.712.492.492 0 0 0 .644.307zm0 0" transform="translate(-125.089 -63.552)" style="fill:#31133d"/>
                <path data-name="Path 75" d="M152.254 126.035a7.549 7.549 0 0 0 1.338-.441 13.021 13.021 0 0 0 1.248-.607 13.456 13.456 0 0 0 2.267-1.544.549.549 0 0 0-.55-.926 9.914 9.914 0 0 0-1.244.531c-.412.2-.806.394-1.186.622-.4.209-.778.437-1.157.665s-.745.456-1.11.713h-.015a.574.574 0 0 0-.137.774.53.53 0 0 0 .546.213zm0 0" transform="translate(-123.529 -64.441)" style="fill:#31133d"/>
                <path data-name="Path 76" d="M159.934 129.305a.64.64 0 0 0 .228-.044.619.619 0 0 0 .336-.789l-3.757-9.087a.387.387 0 0 1 .123-.47l13.276-6.52a.144.144 0 0 1 .137 0 .289.289 0 0 1 .167.181l3.848 9.312a.606.606 0 0 0 1.125-.452l-3.848-9.316a1.489 1.489 0 0 0-.867-.85 1.322 1.322 0 0 0-1.092.062l-13.261 6.524a1.576 1.576 0 0 0-.716 2.017l3.739 9.07a.6.6 0 0 0 .562.362zm0 0" transform="translate(-123.817 -63.602)" style="fill:#31133d"/>
                <g data-name="Group 19" transform="translate(2.521 53.891)" style="clip-path:url(#qvr7sebvzf)">
                    <path data-name="Path 77" d="M145.871 151.453c-.351.015-.763.015-1.142.015s-.774-.015-1.172-.033c-.774-.029-1.547-.1-2.325-.194a23.584 23.584 0 0 1-4.532-1.031 20.237 20.237 0 0 1-4.18-1.941 15.908 15.908 0 0 1-3.53-2.915 13.663 13.663 0 0 1-2.449-3.79 11.763 11.763 0 0 1-.683-2.155 9.091 9.091 0 0 1-.2-1.106 7.603 7.603 0 0 1-.061-.56 3.029 3.029 0 0 1-.015-.5 1.367 1.367 0 0 1 .214-.742.66.66 0 0 1 .243-.2 1.373 1.373 0 0 1 .365-.134 4.116 4.116 0 0 1 .987-.061c.185.015.351.029.55.061l.593.076a64.53 64.53 0 0 0 4.806.347 55.206 55.206 0 0 0 9.624-.531 41.314 41.314 0 0 0 9.37-2.47c.745-.3 1.49-.64 2.22-.987.366-.181.73-.366 1.078-.561l1.053-.579c1.4-.755 2.781-1.515 4.181-2.256 2.8-1.491 5.627-2.9 8.5-4.173a73.268 73.268 0 0 1 8.835-3.291 53.25 53.25 0 0 1 9.186-1.913 41.878 41.878 0 0 1 18.476 2.018 43.178 43.178 0 0 1 4.337 1.753 28.069 28.069 0 0 1 4 2.365c.637.441 1.262.911 1.855 1.41a18.406 18.406 0 0 1 1.656 1.563 5.565 5.565 0 0 1 .64.85 1.28 1.28 0 0 1 .181.393.156.156 0 0 1 .014.076v.091c0 .076.015.167.015.26a6.414 6.414 0 0 1-.408 2.09 11.179 11.179 0 0 1-2.434 3.765 16.293 16.293 0 0 1-1.69 1.543 20.738 20.738 0 0 1-1.884 1.353 35.175 35.175 0 0 1-8.545 3.79.539.539 0 0 0-.351.683.551.551 0 0 0 .669.366 36.4 36.4 0 0 0 8.863-3.837c.687-.441 1.37-.9 2.011-1.4a19.139 19.139 0 0 0 1.837-1.639 12.422 12.422 0 0 0 2.738-4.159 7.39 7.39 0 0 0 .518-2.546 2.908 2.908 0 0 0-.015-.351v-.091c0-.043-.015-.076-.015-.119-.014-.076-.032-.152-.046-.213a3.576 3.576 0 0 0-.3-.7 6.889 6.889 0 0 0-.792-1.045 16.333 16.333 0 0 0-1.793-1.714 28.855 28.855 0 0 0-1.931-1.487 30.425 30.425 0 0 0-4.181-2.506 46.338 46.338 0 0 0-4.473-1.848 41.737 41.737 0 0 0-9.428-2.17 43.914 43.914 0 0 0-9.67.015 54.244 54.244 0 0 0-9.461 1.942 75.424 75.424 0 0 0-9.019 3.352c-2.933 1.287-5.779 2.73-8.589 4.231-1.4.745-2.8 1.519-4.2 2.275l-1.035.579c-.336.181-.683.362-1.034.531-.7.347-1.4.651-2.13.954a39.187 39.187 0 0 1-9.015 2.394 53.8 53.8 0 0 1-9.385.565 64.55 64.55 0 0 1-4.7-.3l-.579-.062a8.524 8.524 0 0 0-.64-.061 4.925 4.925 0 0 0-1.381.09 3.085 3.085 0 0 0-.749.29 2.113 2.113 0 0 0-.651.575 2.659 2.659 0 0 0-.366.759 2.6 2.6 0 0 0-.108.745 3.282 3.282 0 0 0 .032.68c.015.214.044.413.076.622a11.041 11.041 0 0 0 .229 1.229 13.73 13.73 0 0 0 .773 2.365 14.757 14.757 0 0 0 2.709 4.141 17.885 17.885 0 0 0 3.83 3.1 20.971 20.971 0 0 0 4.459 2.017 25.582 25.582 0 0 0 4.759 1.031c.806.09 1.613.152 2.415.181.413.018.806.018 1.219.018s.792-.018 1.229-.032a.534.534 0 0 0 .517-.56.541.541 0 0 0-.56-.518zm0 0" transform="translate(-124.014 -118.009)" style="fill:#222e6a"/>
                </g>
                <path data-name="Path 79" d="M148.979 134.82c.137-.166.242-.3.365-.455.105-.152.214-.3.318-.455s.2-.318.3-.47l.275-.484a16.532 16.532 0 0 0 .941-2c.122-.347.274-.68.383-1.031l.166-.531c.062-.181.091-.347.152-.528s.091-.351.138-.531l.119-.546c.094-.366.137-.73.2-1.078.061-.366.09-.728.137-1.092s.076-.727.091-1.092a20.252 20.252 0 0 0-.015-2.2 21.55 21.55 0 0 0-.683-4.307.545.545 0 0 0-.669-.38.53.53 0 0 0-.4.589 37.909 37.909 0 0 1 .337 4.141 24.739 24.739 0 0 1-.29 4.112 22.8 22.8 0 0 1-.973 3.988 20.229 20.229 0 0 1-.777 1.9l-.456.911c-.076.152-.166.3-.242.442s-.185.286-.261.408l-.014.03a.525.525 0 0 0 .167.744.476.476 0 0 0 .691-.085zm0 0" transform="translate(-123.263 -64.08)" style="fill:#222e6a"/>
                <path data-name="Path 80" d="M144.307 167.738c-3 4.535-7.634 7.142-8.806 9.8-1.353 3.067.622 6.083 4.911 6.539 3.667.394 10.386-1.819 16.621-9.859" transform="translate(-122.301 -67.8)" style="fill:#fff"/>
                <path data-name="Path 81" d="M143.793 167.391a25.868 25.868 0 0 1-3.483 3.927c-.64.608-1.309 1.2-1.964 1.808s-1.338 1.212-1.992 1.881a11 11 0 0 0-.926 1.091 5.405 5.405 0 0 0-.413.622l-.09.167-.091.181a3.02 3.02 0 0 0-.152.351 5.148 5.148 0 0 0-.275 3.077 4.61 4.61 0 0 0 .622 1.458 5.582 5.582 0 0 0 1.034 1.167 7.18 7.18 0 0 0 2.662 1.364 8.083 8.083 0 0 0 1.428.275 8 8 0 0 0 1.461.044 11 11 0 0 0 1.428-.152 13.652 13.652 0 0 0 1.385-.3 18.978 18.978 0 0 0 5.081-2.3 27.109 27.109 0 0 0 4.319-3.428q.982-.954 1.869-2a37.378 37.378 0 0 0 1.7-2.137.541.541 0 0 0-.85-.669q-.846 1.025-1.736 2a42.953 42.953 0 0 1-1.87 1.852 25.994 25.994 0 0 1-4.166 3.153 17.921 17.921 0 0 1-4.715 2.062c-.409.108-.821.2-1.248.275a8.6 8.6 0 0 1-1.244.137 7.917 7.917 0 0 1-1.218-.047 6.041 6.041 0 0 1-1.2-.242 5.569 5.569 0 0 1-2.1-1.045 3.8 3.8 0 0 1-.744-.836 3.342 3.342 0 0 1-.427-1 3.676 3.676 0 0 1 .181-2.2 6.571 6.571 0 0 1 1.356-1.989c.575-.637 1.229-1.241 1.869-1.848s1.306-1.229 1.946-1.881a25.52 25.52 0 0 0 3.483-4.248.548.548 0 0 0-.167-.742.622.622 0 0 0-.753.172zm0 0" transform="translate(-122.242 -67.756)" style="fill:#222e6a"/>
                <path data-name="Path 82" d="M156.609 162.535a1.228 1.228 0 0 0 .351.825 2.958 2.958 0 0 0 1 .7 6.461 6.461 0 0 0 1.49.469 9.56 9.56 0 0 0 3.515 0 6.476 6.476 0 0 0 1.49-.469 2.953 2.953 0 0 0 .994-.7 1.145 1.145 0 0 0 0-1.65 2.991 2.991 0 0 0-.994-.7 6.259 6.259 0 0 0-1.49-.467 9.56 9.56 0 0 0-3.515 0 6.245 6.245 0 0 0-1.49.467 3 3 0 0 0-1 .7 1.23 1.23 0 0 0-.351.825zm0 0" transform="translate(-123.899 -67.254)" style="fill:#ff8856"/>
                <path data-name="Path 83" d="M198.2 160.05a1.326 1.326 0 0 0 .293.806 2.629 2.629 0 0 0 .842.683 4.661 4.661 0 0 0 1.258.455 6.827 6.827 0 0 0 2.965 0 4.679 4.679 0 0 0 1.259-.455 2.65 2.65 0 0 0 .842-.683 1.324 1.324 0 0 0 .293-.806 1.309 1.309 0 0 0-.293-.806 2.545 2.545 0 0 0-.842-.684 4.843 4.843 0 0 0-1.259-.459 6.983 6.983 0 0 0-2.965 0 4.823 4.823 0 0 0-1.258.459 2.526 2.526 0 0 0-.842.684 1.31 1.31 0 0 0-.293.806zm0 0" transform="translate(-126.986 -67.073)" style="fill:#ff8856"/>
            </g>
        </g>
    </g>
</svg>
