<svg xmlns="http://www.w3.org/2000/svg" width="304.854" height="300.554" viewBox="0 0 304.854 300.554">
    <defs>
        <clipPath id="z947n36p9a">
            <path data-name="Path 32" d="M163 213h41.62v14.075H163zm0 0" transform="translate(-163 -213)"/>
        </clipPath>
        <clipPath id="6dnvjn58xb">
            <path data-name="Path 35" d="M121.277 113h69.831v118.915h-69.831zm0 0" transform="translate(-121.277 -113)"/>
        </clipPath>
        <clipPath id="e45lix66gc">
            <path data-name="Path 72" d="M137 90.586h70.16v56.383H137zm0 0" transform="translate(-137 -90.586)" style="fill:#222e6a"/>
        </clipPath>
        <clipPath id="smadi4qlrd">
            <path data-name="Path 78" d="M124 118h123.156v45.188H124zm0 0" transform="translate(-124 -118)"/>
        </clipPath>
    </defs>
    <g data-name="Group 408" transform="translate(-20 -30)">
        <circle data-name="Ellipse 1" cx="116" cy="116" r="116" transform="translate(64.444 96.904)" style="fill:#5965b1;opacity:.22"/>
        <g data-name="Group 407">
            <g data-name="Group 334">
                <path data-name="Path 381" d="M303.034 789.425c-2.035 1.839-4.646 4.463-7.527 4.617a1.1 1.1 0 0 1-1.038-1.58c1.324-2.363 4.265-3.843 6.239-5.647 2.12-1.937 3.911-4.134 6.489-5.455a.547.547 0 0 1 .827.56c-.535 3.118-2.694 5.43-4.99 7.505z" transform="translate(-171.307 -520.602)" style="fill:#f03561"/>
                <path data-name="Path 382" d="M301.329 836.337c-2.336-.179-4.6-.357-6.623-1.621a.719.719 0 0 1 .091-1.3c2.252-1 4.6-.821 7.016-.666 1.953.125 4.406-.11 5.823 1.436a1.011 1.011 0 0 1-.106 1.562c-1.67 1.374-4.195.743-6.201.589z" transform="translate(-171.301 -553.048)" style="fill:#f03561"/>
                <path data-name="Path 383" d="M292.756 850.9c3.3 1.847 5.567 5.353 8.137 8.058 2.008 2.114 5.865 4.613 6.144 7.724a.6.6 0 0 1-.559.63c-3.3.078-6.191-3.986-8.208-6.172-2.508-2.719-5.613-5.683-6.5-9.379-.138-.561.403-1.189.986-.861z" transform="translate(-169.665 -564.538)" style="fill:#f03561"/>
                <path data-name="Path 384" d="M36.391 767.967c-3.587-2.052-6.41-5.493-9.2-8.48s-5.883-6.154-7.545-9.929a.746.746 0 0 1 1.051-.971c3.523 2.138 6.303 5.513 9.069 8.513s6.045 5.943 8.026 9.569a.994.994 0 0 1-1.401 1.298z" transform="translate(2.345 -499.862)" style="fill:#f03561"/>
                <path data-name="Path 385" d="M14.962 808.046c3.085-.543 6.431.479 9.485.982 3.123.514 6.588.344 9.421 1.847a1.074 1.074 0 0 1-.072 1.843c-3.168 1.491-7.077.692-10.416.107-3.081-.539-6.516-1.246-8.813-3.488a.786.786 0 0 1 .395-1.291z" transform="translate(5.639 -537.415)" style="fill:#f03561"/>
                <path data-name="Path 386" d="M40.464 842.454c2.219-1.265 4.275-2.808 6.542-3.985 1.088-.564 2.531.77 1.708 1.848-3.09 4.047-8.6 7.3-13.73 7.142a.623.623 0 0 1-.394-1.068 34.734 34.734 0 0 1 5.874-3.937z" transform="translate(-7.024 -556.655)" style="fill:#f03561"/>
            </g>
            <g data-name="Group 337">
                <path data-name="Path 387" d="M122.936 819.012c1.239-21.161 2.782-75.419 2.775-81.364 0-.937.711-2.087 1.792-2.021 16.869 1.023 33.725 1.151 50.617.949.977-.011 2.2.756 2.122 1.881-.356 5.129 3.915 74.479 4.236 79.683a1.942 1.942 0 0 1-2.31 1.99c-14.758-2.143-53 .005-57.17.711a1.949 1.949 0 0 1-2.062-1.829z" transform="translate(-62.977 -491.743)" style="fill:#976eff"/>
                <path data-name="Path 388" d="M145.575 823.117c.784-18.053 1.3-36.117 1.467-54.2.046-5.072.111-10.149.067-15.223-.007-.8.516-1.777 1.322-1.714 12.573.984 25.13 1.2 37.712 1.142a1.627 1.627 0 0 1 1.593 1.62 120.321 120.321 0 0 0 .086 13.175q.238 2.64.428 5.286c.363 3.455.83 6.9 1.031 10.365a1.284 1.284 0 0 1-.287.925l.081 1.241q.78 11.857 1.519 23.716l.82 13.33a1.5 1.5 0 0 1-1.708 1.683 119.612 119.612 0 0 0-33.22-1.135q-4.7.5-9.362 1.366c-.712.129-1.585-.747-1.549-1.577z" transform="translate(-77.286 -502.075)" style="fill:#b195ef"/>
                <path data-name="Path 389" d="M81.469 691.714c9.857-1.287 41.356-1.957 46.165-1.43 4.713.517 24.885 17.33 25.121 17.913a2.376 2.376 0 0 0-1.282-.39c-16.892.2-33.748.074-50.617-.949-1.081-.066-1.793 1.085-1.792 2.021v.67c-1.373-1.036-2.647-2.22-3.948-3.333q-6.421-5.5-12.862-10.97c-1.212-1.029-2.208-3.346-.785-3.532z" transform="translate(-36.33 -462.974)" style="fill:#9675ce"/>
                <g data-name="Group 335">
                    <path data-name="Path 390" d="M132.37 966.442a1.921 1.921 0 0 1-.4.065z" transform="translate(-68.688 -637.617)" style="fill:#7c52ff"/>
                    <path data-name="Path 391" d="M78.122 695.459c.129-1.479 2.064-1.768 3.027-1a178.883 178.883 0 0 1 16.864 15.151 2.236 2.236 0 0 0-.883 1.759c.007 5.945-.133 11.894-.247 17.837-.4 20.944-.885 43.619-2.1 64.53-4.39-4.235-9.2-10.194-13.577-14.438a12.452 12.452 0 0 1-2.826-3.467c-.717-1.505-.945-72.494-.258-80.372z" transform="translate(-34.396 -465.467)" style="fill:#7c52ff"/>
                </g>
                <path data-name="Path 392" d="M158.614 841.335a17.178 17.178 0 0 1 9.2-8.863 17.8 17.8 0 0 1 6.494-1.216c14.08-.183 16.2 11.392 17.471 16.393 1.968 7.736-.887 16.813-7.3 21.709-7.411 5.661-17.286.025-22.445-6.08a20.952 20.952 0 0 1-3.42-21.943z" transform="translate(-84.446 -552.18)" style="fill:#7c52ff"/>
                <path data-name="Path 393" d="M179.191 760.44a9.8 9.8 0 0 1 8.574-3.349 10.619 10.619 0 0 1 4.476 1.773 11.62 11.62 0 0 1 3.239 3.5 1.021 1.021 0 0 1 .172.7 10.658 10.658 0 0 1 2.627 4.842 11.856 11.856 0 0 1-15.5 13.286 10.133 10.133 0 0 1-5.213-5.112c-2.366-4.796-2.016-11.55 1.625-15.64z" transform="translate(-96.557 -505.258)" style="fill:#7c52ff"/>
                <path data-name="Path 394" d="M181.367 846.657a10.859 10.859 0 0 1 10.192 2.263c1.833 1.654 3.856 4.7 4.043 7.513a20.274 20.274 0 0 1 1.015 6.919c-.04 3.193-.48 6.566-2.5 9.164a9.143 9.143 0 0 1-9.154 3.082c-6.651-1.337-11.8-7.777-12.82-14.283a13.034 13.034 0 0 1 9.224-14.658z" transform="translate(-93.976 -561.654)" style="fill:#976eff"/>
                <path data-name="Path 395" d="m186.815 875.479.251.333a9.951 9.951 0 0 0 2.04-.206l-1.078-1.424 1.967-2.1c.672-.718 1.338-1.442 2.007-2.164l2.035 2.755c.04-.05.084-.1.123-.146a9.68 9.68 0 0 0 .89-1.379q-.914-1.271-1.838-2.536l2.7-2.926.547.782a26.58 26.58 0 0 0 .2-3.105c.006-.468 0-.944-.025-1.423l-.584.631q-1.246-1.81-2.508-3.609c.7-.9 1.39-1.812 2.08-2.722a8.5 8.5 0 0 0-.476-2.044q-1.3 1.665-2.624 3.318-1.469-2.08-2.958-4.146 1.283-1.821 2.539-3.661 1.107 1.52 2.179 3.063.365.528.726 1.058a13.973 13.973 0 0 0-3.407-4.9 9.474 9.474 0 0 0-.5-.419q-1.25 1.754-2.527 3.488-1.07-1.477-2.149-2.947.821-1.1 1.625-2.209a10.725 10.725 0 0 0-1.868-.459l-.865 1.164-.45-.611-.5-.677a11.768 11.768 0 0 0-2.238.238q1 1.332 1.986 2.667-1.388 1.855-2.809 3.683-1.131-1.461-2.272-2.913 1.282-1.642 2.536-3.306c-.054.014-.108.024-.162.039a12.3 12.3 0 0 0-3.293 1.43l-.265.334-.084-.106a12.463 12.463 0 0 0-1.407 1.095l.338.434-.906 1.113q-1.414 1.72-2.848 3.424a13.458 13.458 0 0 0-.893 4.086c.224-.263.452-.525.675-.789l2.343 2.908q-.673.815-1.348 1.629c-.347.418-.7.831-1.049 1.246a18.008 18.008 0 0 0 .732 2.027q1-1.181 1.989-2.373c.291-.349.577-.7.866-1.052q1.16 1.443 2.315 2.89l-1.4 1.747c-.6.744-1.219 1.482-1.843 2.221a18.724 18.724 0 0 0 1.168 1.49c.69-.837 1.369-1.677 2.047-2.5.407-.492.807-.989 1.209-1.486q1.336 1.679 2.663 3.366-.7.835-1.408 1.67c-.484.576-.974 1.147-1.462 1.719a15.578 15.578 0 0 0 1.466.925c.486-.546.975-1.09 1.458-1.639.361-.41.716-.827 1.073-1.241q.824 1.053 1.643 2.109l.484.629-1.332 1.477c.222.057.444.109.669.154a10.582 10.582 0 0 0 1.512.188zm-5.9-10.493q1.9-2.4 3.735-4.853 1.4 1.832 2.787 3.671-1.908 2.318-3.849 4.608-1.328-1.712-2.669-3.426zm-.752-10.684q-1.927 2.432-3.9 4.832-1.165-1.441-2.344-2.87 1.738-2.081 3.43-4.2c.18-.226.358-.454.537-.68q1.146 1.456 2.281 2.916zm3.373 4.371q-1.88 2.426-3.795 4.824c-.512-.648-1.02-1.3-1.534-1.945-.25-.315-.5-.628-.754-.941q1.946-2.4 3.839-4.849 1.128 1.454 2.248 2.911zm3.843-5.058q-1.346 1.807-2.716 3.6-.629-.823-1.259-1.644-.487-.636-.978-1.27 1.393-1.809 2.787-3.638 1.087 1.471 2.17 2.952zm3.907 5.442q-1.34 1.672-2.691 3.333-1.412-1.876-2.837-3.743l.023-.03q1.32-1.789 2.609-3.6 1.278 1.769 2.546 3.545zm-1.606 4.781.026-.033q1.32-1.631 2.612-3.282 1.213 1.734 2.417 3.477-1.363 1.486-2.725 2.974-1.155-1.574-2.326-3.136zm-2.822 8.817q-1.068-1.4-2.141-2.79 1.932-2.283 3.812-4.609c.478.637.96 1.272 1.436 1.911.281.377.559.756.839 1.134q-1.134 1.244-2.265 2.49z" transform="translate(-94.02 -561.662)" style="fill:#7c52ff"/>
                <path data-name="Path 396" d="M187.845 779.375a7.384 7.384 0 0 1 9.551-2.536 6.394 6.394 0 0 1 3.066 4.28 5.307 5.307 0 0 1-.465 3.7 4.827 4.827 0 0 1-.547 1.084c-1.866 2.759-5.911 3.356-8.766 1.9-3.084-1.587-4.827-5.303-2.839-8.428z" transform="translate(-103.465 -517.258)" style="fill:#976eff"/>
                <path data-name="Path 397" d="M187.02 782.662a5.628 5.628 0 0 0 .4 1.636l.02-.024c.21-.252.418-.507.627-.761q.84 1.045 1.676 2.092l-.774.965a7.185 7.185 0 0 0 1.031.83l.591-.727q.632.794 1.259 1.592a7.587 7.587 0 0 0 2.848.275q1.134-1.354 2.248-2.724c.346.461.694.921 1.039 1.384l.088.118a5.732 5.732 0 0 0 .948-.858q-.619-.836-1.241-1.67l.019-.023q.956-1.181 1.891-2.376c.268.383.534.767.8 1.151a6.351 6.351 0 0 0-.026-2.416 6.676 6.676 0 0 0-.382-1.227l-.245.311q-1.064-1.506-2.141-3l.085-.123a6.464 6.464 0 0 0-.382-.24 6.384 6.384 0 0 0-2.245-.768l.961 1.312q-.974 1.308-1.966 2.6-.455-.6-.911-1.191l-.708-.92q.718-.932 1.436-1.875a7.525 7.525 0 0 0-1.827.273c-.141.183-.279.369-.421.552l-.257-.329a7.821 7.821 0 0 0-1.2.575q.315.4.629.808-1.4 1.76-2.82 3.5c-.25-.309-.5-.616-.755-.924a5.134 5.134 0 0 0-.313 1.735l.2.247zm7.921-1.629.017-.022q.955-1.3 1.889-2.607.925 1.28 1.843 2.566l.254.359q-.97 1.21-1.948 2.413-1.023-1.358-2.054-2.71zm-3.506 4.589q1.377-1.737 2.7-3.514 1.012 1.326 2.018 2.658-1.382 1.678-2.787 3.336-.96-1.243-1.93-2.48zm-2.507-3.167q1.409-1.74 2.78-3.51.814 1.052 1.625 2.107-1.361 1.757-2.748 3.492c-.37-.469-.738-.94-1.111-1.408-.18-.229-.364-.455-.546-.682z" transform="translate(-103.469 -517.265)" style="fill:#7c52ff"/>
                <g data-name="Group 336">
                    <path data-name="Path 398" d="M139.885 743.109a1.853 1.853 0 0 1 1.3.449 2 2 0 0 1 .6 1.235 1.815 1.815 0 0 1-.449 1.3 1.8 1.8 0 0 1-2.534.152 2 2 0 0 1-.6-1.235 1.814 1.814 0 0 1 .449-1.3 1.865 1.865 0 0 1 1.234-.601z" transform="translate(-72.625 -496.471)" style="fill:#7c52ff"/>
                    <path data-name="Path 399" d="M266.4 747.683a1.5 1.5 0 0 1 1.052.363 1.454 1.454 0 0 1 .124 2.052 1.454 1.454 0 0 1-2.052.124 1.454 1.454 0 0 1-.124-2.052 1.511 1.511 0 0 1 1-.487z" transform="translate(-152.785 -499.362)" style="fill:#7c52ff"/>
                    <path data-name="Path 400" d="M278.589 951.393a1.4 1.4 0 0 1 .979.338 1.353 1.353 0 0 1 .115 1.91 1.352 1.352 0 0 1-1.91.115 1.353 1.353 0 0 1-.115-1.91 1.405 1.405 0 0 1 .931-.453z" transform="translate(-160.547 -628.105)" style="fill:#7856c1"/>
                    <path data-name="Path 401" d="M141.343 945.048q-.109-.013-.216-.016a.776.776 0 0 1 .216.016z" transform="translate(-74.474 -624.084)" style="fill:#7c52ff"/>
                    <path data-name="Path 402" d="M133.521 950.451a2.439 2.439 0 0 0 .322.052 1.973 1.973 0 0 1 .238-.039 1.346 1.346 0 0 1 1.137 2.233c-.049.056-.426.494-.583.489l.149-.134-.3.263a2.05 2.05 0 0 1-.559.249 1.629 1.629 0 0 1-2.126-1.426 1.658 1.658 0 0 1 .4-1.164 1.6 1.6 0 0 1 1.322-.523z" transform="translate(-68.577 -627.511)" style="fill:#7c52ff"/>
                    <path data-name="Path 403" d="M115.339 941.575a1.147 1.147 0 0 1 .8.278 1.113 1.113 0 0 1-.671 1.943 1.149 1.149 0 0 1-.805-.278 1.113 1.113 0 0 1 .672-1.943z" transform="translate(-57.517 -621.9)" style="fill:#7856c1"/>
                    <path data-name="Path 404" d="M119.751 736.475A1.268 1.268 0 0 1 119.9 739a1.268 1.268 0 0 1-.149-2.525z" transform="translate(-60.24 -492.279)" style="fill:#7856c1"/>
                    <path data-name="Path 405" d="M86.731 708.5a1.269 1.269 0 0 1 .452-.3 1.056 1.056 0 0 1 .825.058l.3.2a1.162 1.162 0 0 1 .5.894 1.062 1.062 0 0 1-.983 1.109 1.152 1.152 0 0 1-.948-.392l-.235-.271-.123-.247a.807.807 0 0 1-.044-.422 1.012 1.012 0 0 1 .256-.629z" transform="translate(-39.929 -474.376)" style="fill:#7856c1"/>
                    <path data-name="Path 406" d="M82.935 907.012a1.332 1.332 0 0 1 1.881-.113 1.333 1.333 0 0 1 .113 1.88 1.332 1.332 0 0 1-1.881.113 1.331 1.331 0 0 1-.113-1.88z" transform="translate(-37.487 -599.775)" style="fill:#7856c1"/>
                    <path data-name="Path 407" d="M253.729 728.758a1.146 1.146 0 0 1 .138 2.286 1.146 1.146 0 0 1-.138-2.286z" transform="translate(-144.982 -487.402)" style="fill:#b195ef"/>
                    <path data-name="Path 408" d="M206.362 693.086a1.191 1.191 0 0 1 .834.288 1.154 1.154 0 0 1 .1 1.628 1.153 1.153 0 0 1-1.628.1 1.154 1.154 0 0 1-.1-1.628 1.2 1.2 0 0 1 .794-.388z" transform="translate(-115.019 -464.858)" style="fill:#b195ef"/>
                    <path data-name="Path 409" d="M134.309 723.872a.875.875 0 0 1 1.484-.089l.131.167a1 1 0 1 1-1.725.1z" transform="translate(-70.017 -484.025)" style="fill:#b195ef"/>
                    <path data-name="Path 410" d="M103.5 696.418a1.149 1.149 0 0 1 .8.278 1.113 1.113 0 0 1-.671 1.943 1.149 1.149 0 0 1-.805-.278 1.113 1.113 0 0 1 .672-1.943z" transform="translate(-50.034 -466.964)" style="fill:#b195ef"/>
                </g>
            </g>
        </g>
        <g data-name="Group 109">
            <g data-name="Group 108">
                <path data-name="Path 21" d="M210.325 166.59c1.253 5.03 2.833 9.9 6.465 13.856 2.267 2.611 7.052 1.947 9.3-.743.391 3.256-2.15 6.1-6.819 6.606-4.705.507-13.341-2.337-21.349-12.663zm0 0" transform="translate(-86.779 -46.209)" style="fill:#dac9db"/>
                <path data-name="Path 22" d="M214.817 180.678c-3.614-3.957-5.212-8.826-6.465-13.856l2.559-1.459c3.851 5.826 11.176 9.369 12.676 12.779a6.389 6.389 0 0 1 .511 1.793c-2.229 2.69-7.014 3.354-9.281.743zm0 0" transform="translate(-84.806 -46.441)" style="fill:#fff"/>
                <path data-name="Path 23" d="M212.419 165.865a18.551 18.551 0 0 0 2.212 2.88c.8.9 1.658 1.737 2.536 2.555 1.76 1.6 3.655 3.037 5.351 4.579.413.386.822.777 1.193 1.184a7.5 7.5 0 0 1 .939 1.232c.055.1.1.213.152.31a2.925 2.925 0 0 1 .14.348 7.327 7.327 0 0 1 .213.721 4.509 4.509 0 0 1 .08 1.445 4.3 4.3 0 0 1-1.213 2.549 6.48 6.48 0 0 1-2.6 1.561 10.188 10.188 0 0 1-3.145.505 13.64 13.64 0 0 1-3.261-.427l-.8-.219-.8-.251-.39-.134-.39-.158-.785-.31c-.251-.1-.507-.233-.762-.353s-.507-.233-.761-.367l-.74-.409-.371-.195-.2-.1-.177-.115a34.171 34.171 0 0 1-5.49-4.111 50.86 50.86 0 0 1-4.747-5.031v-.018a.695.695 0 0 0-1.092.859 45.814 45.814 0 0 0 4.706 5.4l1.328 1.227 1.389 1.146c.47.372.976.725 1.445 1.074.232.176.507.329.743.505l.762.489a23.879 23.879 0 0 0 6.7 2.922 15.772 15.772 0 0 0 3.711.505 12.068 12.068 0 0 0 3.79-.6 8.078 8.078 0 0 0 3.358-2.068 6.056 6.056 0 0 0 1.737-3.7 6.546 6.546 0 0 0-.134-2.049 9.854 9.854 0 0 0-.293-.975c-.061-.153-.117-.312-.2-.465a3.6 3.6 0 0 0-.256-.469 8.737 8.737 0 0 0-1.189-1.557 17.04 17.04 0 0 0-1.347-1.268c-.919-.8-1.84-1.519-2.754-2.262a73.861 73.861 0 0 1-2.7-2.221 27.063 27.063 0 0 1-4.686-4.965.727.727 0 0 0-1.213.8zm0 0" transform="translate(-86.881 -46.554)" style="fill:#775e82"/>
                <path data-name="Path 24" d="M220.142 133.651c1.6.841-.2 2.922-1.25 3.256-2.11.7-4.144 1.574-6.136 2.452a4.575 4.575 0 0 0 2.815 2.2c4.864.566 9.239-2.007 12.4-5.9a12.185 12.185 0 0 0 2.267-5.727 3.544 3.544 0 0 1 .8 1.6c.274 3.275-2.75 11.748-19.2 16.872h-.117c-2.735.585-2.113-2.629-2.735-5.57a51.122 51.122 0 0 0-4.3-12.547l2.068-1.036c-.251-.018-.526-.055-.8-.074 4.79-.102 9.598 1.882 14.188 4.474zm0 0" transform="translate(-85.499 -53.288)" style="fill:#752b0b"/>
                <path data-name="Path 25" d="M151.571 146.429c-.139 1.715-.859 4.13-.664 5.765.078.7-.879 2.927-.762 3.586-1.073-.117-2.5-2.044-3.577-2.374-.8-.256-1.658-.511-2.536-.8-4.57-1.5-9.769-3.781-10.762-9a169.535 169.535 0 0 0 18.301 2.823zm0 0" transform="translate(-99.008 -50.557)" style="fill:#752b0b"/>
                <path data-name="Path 26" d="M125.664 142.637c2.95 8.788 13.025 14.906 26.152 14.339-.2-.817-.39-1.75-.566-2.764a17.171 17.171 0 0 1-3.243-.646c-.8-.251-1.658-.507-2.536-.8-7.757.062-15.471-3.329-19.807-10.129zm0 0" transform="translate(-100.447 -50.74)" style="fill:#752b0b"/>
                <path data-name="Path 27" d="M165.119 175.145a46.833 46.833 0 0 1-10 11.278c-8.4 7.209-18.948 8.575-28.517 13.248-.432.218-.841.449-1.249.683.39-.312.8-.641 1.231-.994a68.934 68.934 0 0 0 12.774-13.56 9.527 9.527 0 0 0 4.431 1.538c4.611.488 13.419-2.258 21.33-12.193zm0 0" transform="translate(-100.506 -44.591)" style="fill:#dac9db"/>
                <path data-name="Path 28" d="M151.409 156.523c-.074.488-.153.975-.232 1.463a43.04 43.04 0 0 1-3.126.273c1.194-12.43 4.26-41.675 35.962-43.353a33.4 33.4 0 0 1 30.667 15.98 38.741 38.741 0 0 1 3.748 8.3c-9.708-3.428-20.879-2.514-30.295 1.56-10.744 4.678-20.118 11.692-31.057 15.78a26.275 26.275 0 0 1-5.9 1.463c.08-.489.159-.979.233-1.466zm0 0" transform="translate(-96.213 -55.995)" style="fill:#dac9db"/>
                <path data-name="Path 29" d="M148.436 153.248a79.68 79.68 0 0 0 .177-1.849 35.161 35.161 0 0 0 3.126-.273c-1.171 6.782-3.126 13.675-6.662 19.56a94.734 94.734 0 0 0 3.359-17.438zm0 0" transform="translate(-96.775 -49.135)" style="fill:#dac9db"/>
                <path data-name="Path 30" d="M125.986 208.227a16.7 16.7 0 0 1 1.249-.683c9.569-4.673 20.118-6.04 28.517-13.248a46.832 46.832 0 0 0 10-11.278c.139-.158.256-.312.395-.489-.139.177-.256.331-.395.489.256-.391.492-.781.743-1.189-.232.408-.488.8-.743 1.189-7.91 9.935-16.718 12.681-21.349 12.175a9.323 9.323 0 0 1-4.432-1.538 67.494 67.494 0 0 0 9.355-19.365c.019-.019.038-.061.056-.08-.018.019-.037.061-.056.08.019-.1.056-.2.08-.293 3.535-5.886 5.486-12.761 6.66-19.562a25.332 25.332 0 0 0 5.9-1.463c10.935-4.092 20.313-11.107 31.058-15.78 9.416-4.073 20.587-4.989 30.295-1.56 3.34 10.228 3.438 22.621 3.87 37.291.585 20.067 1.231 25.72 4.1 37.407 1.328 5.38 2.463 7.093 1.366 9.937-3.126 8.185-10.94 10.52-19.4 9.606-2.188-.232-4.352.641-6.991 3.08-8.008 7.4-15.04 9.155-24.614 5.844-6.211-2.142-6.248-5.648-10.544-4.288-9.611 3.062-17.228 4.269-23.444-.775-5.273-4.287-2.536-7.483-5.663-7.21-11.622.994-18.264-5.415-19.728-10.52-.978-3.625.784-5.362 3.715-7.777zm0 0" transform="translate(-101.14 -52.464)" style="fill:#fff"/>
                <g data-name="Group 16" transform="translate(69.615 175.569)" style="clip-path:url(#z947n36p9a)">
                    <path data-name="Path 31" d="M164.826 220.148a2.674 2.674 0 0 1 1.8.427c.646.372 1.328.935 2.072 1.445a18.721 18.721 0 0 0 4.9 2.453 34.462 34.462 0 0 0 5.217 1.287 23.277 23.277 0 0 0 5.431.176l.683-.079a4.267 4.267 0 0 0 .683-.1l1.347-.256 1.309-.367c.219-.059.433-.139.646-.218l.646-.233a25.235 25.235 0 0 0 4.8-2.494c.2-.117.372-.251.567-.367l1.1-.78c.176-.139.348-.275.524-.409l1.055-.817 1.017-.86.976-.836a12.066 12.066 0 0 1 .98-.743 10.109 10.109 0 0 1 2.03-1.129 1.173 1.173 0 1 0-.86-2.183c-.018.018-.061.018-.078.042a12.031 12.031 0 0 0-2.42 1.538c-.372.293-.725.585-1.06.9l-.957.9-.933.854-.98.823c-.153.134-.312.269-.488.409l-.507.366-.507.372a9.645 9.645 0 0 1-.51.371l-1.055.7c-.353.214-.721.409-1.092.622a5.333 5.333 0 0 1-.548.294l-.567.274-.566.27-.134.059-.14.056-.293.121-.585.213a3.637 3.637 0 0 1-.585.2l-1.194.347-1.213.238a3.252 3.252 0 0 1-.6.074l-.623.08a21.45 21.45 0 0 1-4.984-.2 31.284 31.284 0 0 1-4.883-1.306 16.87 16.87 0 0 1-2.247-.994 16.2 16.2 0 0 1-2.049-1.324c-.665-.507-1.309-1.074-2.132-1.635l-.153-.1-.176-.1c-.117-.061-.237-.14-.353-.2a4.9 4.9 0 0 0-.78-.312 2.826 2.826 0 0 0-.409-.116l-.432-.061a3.294 3.294 0 0 0-.428-.018h-.432a1.168 1.168 0 1 0-.037 2.337h.115zm0 0" transform="translate(-162.913 -212.813)" style="fill:#222e6a"/>
                </g>
                <path data-name="Path 33" d="M139.5 213.074c.061 0 .061 0 .042-.019s-.023-.037.019.019a1.271 1.271 0 0 1 .134.312c.061.139.1.315.158.488a12.116 12.116 0 0 0 .878 2.22 9.966 9.966 0 0 0 1.389 1.988 12.962 12.962 0 0 0 1.7 1.616 16.864 16.864 0 0 0 3.943 2.416 15.626 15.626 0 0 0 4.455 1.189 22.267 22.267 0 0 0 4.553.078c.761-.061 1.5-.134 2.243-.251s1.486-.237 2.207-.372a81.289 81.289 0 0 0 4.338-1.012 68.517 68.517 0 0 0 2.127-.567c.353-.1.725-.213 1.018-.273a8.6 8.6 0 0 1 .859-.117 1.169 1.169 0 1 0-.037-2.337h-.12a6.475 6.475 0 0 0-1.287.275c-.433.134-.725.251-1.074.366-.687.238-1.37.47-2.052.684a50.544 50.544 0 0 1-4.162 1.128 24.916 24.916 0 0 1-8.38.646 17.669 17.669 0 0 1-2.03-.39 13.347 13.347 0 0 1-1.932-.683 14.127 14.127 0 0 1-3.438-2.2 13.354 13.354 0 0 1-1.426-1.44 7.013 7.013 0 0 1-1.036-1.64 8.681 8.681 0 0 1-.609-1.867c-.037-.177-.1-.372-.153-.567a4.063 4.063 0 0 0-.274-.7 2.4 2.4 0 0 0-.684-.817 2.72 2.72 0 0 0-.98-.427h-.037a1.173 1.173 0 1 0-.47 2.3c.036-.065.078-.065.118-.046zm0 0" transform="translate(-98.031 -37.849)" style="fill:#222e6a"/>
                <g data-name="Group 17" transform="translate(20 56.654)" style="clip-path:url(#6dnvjn58xb)">
                    <path data-name="Path 34" d="M189.044 113.931c-1.7.117-3.377.293-5.059.562a40.11 40.11 0 0 0-4.979 1.133 33.8 33.8 0 0 0-9.258 4.306 31.618 31.618 0 0 0-7.448 6.968 39.191 39.191 0 0 0-2.829 4.227 42.646 42.646 0 0 0-2.249 4.543 57.169 57.169 0 0 0-3.047 9.6 89.814 89.814 0 0 0-1.6 9.881c-.176 1.654-.329 3.312-.488 4.947l-.293 2.434-.158 1.231c-.037.409-.1.818-.171 1.208l-.395 2.415-.2 1.208-.251 1.207-.511 2.4-.056.293-.237.878-.312 1.184-.312 1.189c-.059.2-.1.39-.157.586l-.177.585-.719 2.337c-.061.2-.121.39-.177.585l-.213.566-.433 1.148-.427 1.152c-.08.2-.139.385-.219.562l-.232.566-.957 2.239c-.158.371-.334.743-.529 1.111l-.548 1.092-.543 1.09c-.078.177-.2.372-.293.545l-.293.529-1.194 2.142-1.31 2.067-.329.524-.158.251-.176.256-1.4 1.988-.353.507-.371.488-1.525 1.909a7.631 7.631 0 0 1-.39.465l-.408.47-.8.914c-.275.312-.526.622-.8.916l-1.718 1.755c-.293.293-.567.585-.86.855l-1.8 1.677c-.158.134-.293.275-.451.409l-.469.39-1.876 1.6c-.312.273-.641.524-.957.78-.641.524-1.287 1.05-1.932 1.635a12.047 12.047 0 0 0-1.816 2.006 6.891 6.891 0 0 0-.684 1.306l-.115.353c-.042.117-.061.232-.1.367l-.08.371c-.018.117-.018.251-.042.372a7.87 7.87 0 0 0 .316 2.824 13.29 13.29 0 0 0 2.578 4.672 17.051 17.051 0 0 0 3.943 3.47 18.052 18.052 0 0 0 2.3 1.269 20.72 20.72 0 0 0 2.442.933 23.045 23.045 0 0 0 5.119.975c.86.056 1.737.1 2.6.075l.646-.019.646-.037.6-.038a1.748 1.748 0 0 1 .353.019 1.166 1.166 0 1 0 .488-2.281h-.1a3.312 3.312 0 0 0-.9-.037l-.623.037-.585.037-.59.024a19.017 19.017 0 0 1-2.36-.042 21.866 21.866 0 0 1-4.631-.818 14.71 14.71 0 0 1-2.188-.817 16.054 16.054 0 0 1-2.052-1.092 15.2 15.2 0 0 1-3.513-3 11.125 11.125 0 0 1-2.211-3.934 5.9 5.9 0 0 1-.251-2.068 3.851 3.851 0 0 1 .665-1.848 10.428 10.428 0 0 1 1.482-1.677c.585-.526 1.212-1.05 1.84-1.58.31-.269.641-.524.956-.8l1.915-1.635.469-.409c.153-.134.312-.292.47-.428l1.816-1.736a11.61 11.61 0 0 0 .878-.9l.879-.916.878-.9c.274-.312.548-.622.841-.934l.822-.953.409-.469c.139-.158.275-.312.409-.488l1.565-1.97.39-.483.372-.511.719-1.031.725-1.031.176-.256.177-.269.329-.53 1.328-2.123 1.213-2.2.31-.543a5.669 5.669 0 0 0 .294-.567l1.1-2.257c.177-.372.372-.743.526-1.134l.975-2.318.256-.585c.078-.2.139-.385.214-.58l.432-1.171.427-1.17.219-.585c.056-.19.117-.385.2-.6l.743-2.393.172-.6c.059-.2.1-.413.157-.608l.312-1.208.316-1.208.153-.6.079-.312.061-.312.507-2.452.255-1.231.2-1.227.409-2.471c.08-.413.117-.822.177-1.231l.157-1.245.294-2.476c.171-1.653.31-3.293.505-4.928a84.428 84.428 0 0 1 1.6-9.662c.371-1.58.78-3.16 1.287-4.715s1.077-3.061 1.7-4.562a41.406 41.406 0 0 1 2.188-4.325 34.85 34.85 0 0 1 2.717-3.977 29.834 29.834 0 0 1 7.033-6.465 31.657 31.657 0 0 1 8.728-3.916 41.544 41.544 0 0 1 9.531-1.464 1.169 1.169 0 1 0-.115-2.335zm0 0" transform="translate(-121.303 -112.839)" style="fill:#222e6a"/>
                </g>
                <path data-name="Path 36" d="M199.984 235.206a5.239 5.239 0 0 1 1.974-.488h.507c.078 0 .176.024.256.024l.31.018c.428.038.86.075 1.269.1a26.869 26.869 0 0 0 5.137-.176 19.7 19.7 0 0 0 5.04-1.306 15.259 15.259 0 0 0 4.474-2.787 14.143 14.143 0 0 0 1.816-1.928 15.348 15.348 0 0 0 1.427-2.2l.293-.585.274-.586c.1-.2.177-.408.256-.6l.117-.312.115-.329a7.88 7.88 0 0 0 .335-1.385 7 7 0 0 0 .037-1.421 15.194 15.194 0 0 0-.507-2.61c-.214-.818-.451-1.6-.683-2.378s-.432-1.557-.627-2.356l-.586-2.378c-.761-3.176-1.444-6.373-1.894-9.587-.47-3.214-.781-6.467-.994-9.742s-.353-6.544-.492-9.819c-.117-3.27-.214-6.564-.312-9.857-.177-6.569-.329-13.17-1.036-19.757a76.721 76.721 0 0 0-1.64-9.838 46.206 46.206 0 0 0-3.34-9.491l-.274-.561-.585-1.133c-.1-.172-.214-.367-.312-.543l-.316-.548c-.1-.172-.232-.348-.329-.526l-.683-1.068-.353-.529-.39-.507L207.5 127c-.139-.176-.256-.348-.39-.507l-.41-.493-.836-.952-.218-.237a2.425 2.425 0 0 1-.214-.232l-.451-.446-.9-.9c-.312-.293-.646-.567-.957-.841s-.646-.562-.956-.836l-1.018-.762-.505-.39-.256-.2a3.119 3.119 0 0 0-.275-.171l-1.073-.7-.529-.353c-.172-.117-.367-.214-.543-.312a35.069 35.069 0 0 0-9.416-3.8 36.705 36.705 0 0 0-10.117-.972 1.16 1.16 0 1 0 .1 2.319h.018a33.163 33.163 0 0 1 18.381 4.208 5.22 5.22 0 0 1 .526.293l.511.329 1.012.641c.078.061.177.1.256.158l.237.176.488.348.957.721c.312.256.6.524.916.78.293.256.608.507.9.78l.86.836.427.428.219.218.2.233.8.9.39.446c.139.157.256.31.372.469l.724.953.371.469.331.507.664.994c.117.177.233.331.331.507l.315.524c.1.177.214.353.312.53l.585 1.05.275.547a41.875 41.875 0 0 1 3.242 9.077 75.512 75.512 0 0 1 1.622 9.606c.705 6.489.878 13.053 1.073 19.621.078 3.289.176 6.564.3 9.857s.251 6.588.464 9.876.511 6.606 1 9.881c.47 3.293 1.133 6.545 1.876 9.759l.567 2.415c.2.818.409 1.616.622 2.415s.451 1.6.665 2.36a14.25 14.25 0 0 1 .432 2.238 4.483 4.483 0 0 1-.042 1.037 5.071 5.071 0 0 1-.251 1.012l-.1.251-.12.275a4.311 4.311 0 0 1-.233.524l-.256.524-.274.507a12.5 12.5 0 0 1-1.268 1.91 11.718 11.718 0 0 1-1.584 1.658 13.664 13.664 0 0 1-3.908 2.356 17.4 17.4 0 0 1-4.51 1.092 25.513 25.513 0 0 1-4.728.1c-.39-.038-.8-.056-1.189-.117l-.293-.037c-.121-.019-.237-.019-.372-.042-.237-.019-.488-.019-.724-.019a8.021 8.021 0 0 0-2.81.646 1.16 1.16 0 0 0-.628 1.538 1.1 1.1 0 0 0 1.505.622zm0 0" transform="translate(-90.676 -56.181)" style="fill:#222e6a"/>
                <path data-name="Path 37" d="M228.8 206.477c.566-4.752-1.9 4.172-11.623 2.281-5.449-1.073-2.481-3.233-5.9.372a16.14 16.14 0 0 1-18.849 3.795c-5.277-2.629-3.657-3.623-7.99-1.129a24.926 24.926 0 0 1-28.949-2.281c-4.571-3.991-3.419-4.557-7.813-3.038-4.376 1.52-10.782 2.941-16.936-1.519-4.181-3.038-6.308-4.891-5.333-1.715 1.621 5.282 9.374 8.162 17.443 7.247 1.115-.115 2.151 0 3.066 3.233 1.817 6.508 11.195 10.015 23.073 5.458 5.7-2.183 5.059-1.579 9.08 1.579 6 4.673 16.955 5.844 27.816-3.9 3.5-3.141 4.552-2.263 11.116-2.263 4.589 0 10.957-2.55 11.853-7.479" transform="translate(-100.541 -39.589)" style="fill:#ff8856"/>
                <path data-name="Path 38" d="M126.192 203.06a3.111 3.111 0 0 1-.256-.738.427.427 0 0 1-.018-.139v-.038a.213.213 0 0 1-.019.08.381.381 0 0 1-.042.056c-.019.023-.037.061-.056.079a.342.342 0 0 1-.158.1c-.018 0-.042.019-.061.019h-.018a.6.6 0 0 1 .139.042c.1.037.214.1.329.153.233.117.489.273.743.432.994.623 1.975 1.343 2.95 2.063l.743.547.8.545c.134.1.256.176.39.273l.409.232c.273.158.548.312.841.47a17.037 17.037 0 0 0 3.632 1.3 18.6 18.6 0 0 0 7.619-.018 31.494 31.494 0 0 0 3.636-.975c.585-.2 1.152-.391 1.718-.567a3.459 3.459 0 0 1 1.4-.232 1.06 1.06 0 0 1 .451.195 4.1 4.1 0 0 1 .585.507c.414.39.86.836 1.291 1.268.451.427.9.855 1.366 1.263.451.409.956.837 1.467 1.227a25.79 25.79 0 0 0 6.638 3.627 26.539 26.539 0 0 0 7.4 1.593 24.575 24.575 0 0 0 7.557-.678 28.656 28.656 0 0 0 3.614-1.17l.882-.372a3.589 3.589 0 0 0 .428-.2l.432-.214c.273-.134.567-.269.841-.408l.817-.446c.275-.158.548-.312.8-.451s.526-.293.781-.446.505-.275.761-.39a2.269 2.269 0 0 1 .6-.214.429.429 0 0 1 .158 0c.037 0 .115.037.213.056a4.314 4.314 0 0 1 .665.39c.507.312 1.036.664 1.584.994.543.312 1.092.622 1.659.9l.213.1.219.1.446.195c.158.056.292.134.451.2l.451.153a15.765 15.765 0 0 0 3.767.859c.315.038.646.061.956.08a8.711 8.711 0 0 0 .981.019l.975-.019c.312-.019.646-.061.957-.1.157-.019.31-.042.488-.061l.938-.2c.158-.037.312-.056.469-.1l.938-.251.233-.061.237-.078.446-.153.451-.158c.078-.018.158-.056.237-.074l.214-.1.878-.414a1.344 1.344 0 0 0 .214-.1l.218-.117.818-.464.213-.121c.061-.037.14-.093.2-.134a15.294 15.294 0 0 0 1.546-1.128l.738-.6c.238-.214.451-.451.689-.665l.329-.329c.117-.117.237-.232.334-.331l.623-.683.608-.683c.1-.1.2-.214.251-.274l.019-.019-.019.019a.059.059 0 0 0-.037.018c-.019 0-.019 0-.042.024a.3.3 0 0 1-.134.018h-.158a.882.882 0 0 1-.1-.018c-.08-.042-.056-.042-.019 0l.177.134c.134.1.274.214.427.312a7.222 7.222 0 0 0 .938.488 10.325 10.325 0 0 0 1.9.585 14.739 14.739 0 0 0 3.851.348 11.747 11.747 0 0 0 3.828-.817 12.16 12.16 0 0 0 3.321-2.026c.251-.213.488-.408.7-.622l.334-.312a3.122 3.122 0 0 1 .293-.256c.037-.037.074-.055.056-.037h-.056a.073.073 0 0 0-.061.019h-.1a.254.254 0 0 1-.117-.019l-.139-.061c-.037-.037-.074-.037-.1-.078-.018-.019-.056-.075-.074-.075-.024-.023-.024-.042-.042-.059l-.019-.038a.068.068 0 0 0-.019-.042v.158c0 .251-.042.543-.059.836a.692.692 0 0 0 .627.762.7.7 0 0 0 .761-.6c.038-.312.075-.627.1-.975v-.312a.143.143 0 0 0-.024-.1l-.019-.117c0-.042-.037-.1-.037-.157a.317.317 0 0 0-.042-.1.473.473 0 0 0-.056-.1l-.117-.115a.577.577 0 0 0-.157-.117.858.858 0 0 0-.2-.078.563.563 0 0 0-.177-.019h-.137c-.037 0-.074.019-.115.019a.184.184 0 0 1-.1.018l-.08.024a1.4 1.4 0 0 0-.329.19 8.817 8.817 0 0 0-.409.334l-.353.312c-.237.2-.451.39-.683.567a11.074 11.074 0 0 1-2.949 1.733 9.69 9.69 0 0 1-3.321.641 13.6 13.6 0 0 1-3.419-.367 10.019 10.019 0 0 1-1.6-.511 5.41 5.41 0 0 1-.683-.366c-.1-.08-.195-.139-.312-.237l-.2-.153-.061-.038-.079-.059-.038-.019-.059-.042-.061-.037c-.019-.019-.037-.019-.075-.038-.078-.023-.139-.042-.218-.059a1.187 1.187 0 0 0-.27-.019 1.087 1.087 0 0 0-.237.037c-.037.019-.078.019-.1.042l-.158.075-.056.042-.1.078c-.059.038-.1.075-.158.117a2.9 2.9 0 0 0-.371.39l-.622.679-.609.664-.153.158-.158.153-.312.312-.627.6-.683.548a14.861 14.861 0 0 1-1.408 1.013c-.056.037-.115.078-.176.117l-.2.1-.372.213-.366.214-.2.1c-.056.042-.136.061-.2.1l-.781.353-.195.1a.972.972 0 0 0-.2.074l-.409.14-.413.134-.2.079-.214.056-.841.219a2.846 2.846 0 0 1-.427.074l-.433.08-.427.078a3.3 3.3 0 0 1-.432.037c-.293.019-.567.061-.86.08l-.86.018c-.293.019-.566-.018-.859-.018a6 6 0 0 1-.86-.08 13.991 13.991 0 0 1-3.339-.775l-.409-.139a2.589 2.589 0 0 1-.39-.177l-.39-.171-.2-.1-.2-.1a26.535 26.535 0 0 1-1.541-.86c-.507-.293-.994-.622-1.525-.953a7.6 7.6 0 0 0-.914-.529 3.356 3.356 0 0 0-.665-.195 2.508 2.508 0 0 0-.743 0 4.679 4.679 0 0 0-1.133.353 9.461 9.461 0 0 0-.878.446c-.275.158-.548.315-.823.451-.273.153-.524.31-.8.446l-.786.432c-.251.134-.524.251-.8.39l-.391.19c-.134.061-.274.121-.408.177l-.823.353a24.676 24.676 0 0 1-3.358 1.068 23.371 23.371 0 0 1-6.977.646 23.875 23.875 0 0 1-6.857-1.463 24.161 24.161 0 0 1-6.168-3.331c-.92-.7-1.8-1.52-2.676-2.337-.433-.409-.864-.841-1.328-1.287a6.483 6.483 0 0 0-.823-.665 3.932 3.932 0 0 0-.548-.31 2.639 2.639 0 0 0-.664-.177 3.986 3.986 0 0 0-1.208.061c-.353.079-.665.158-.98.256-.6.19-1.189.408-1.756.6a27.484 27.484 0 0 1-3.419.951 17.274 17.274 0 0 1-6.916.1 15.732 15.732 0 0 1-3.261-1.109c-.256-.136-.507-.275-.762-.409l-.39-.214a8.117 8.117 0 0 0-.372-.237l-.724-.465-.738-.529c-1-.7-1.993-1.421-3.089-2.081a8.282 8.282 0 0 0-.859-.469c-.158-.08-.312-.136-.507-.214a1.49 1.49 0 0 0-.312-.078l-.078-.019-.1-.019h-.238a.33.33 0 0 0-.134.019 2.151 2.151 0 0 0-.176.061.84.84 0 0 0-.353.213 1.035 1.035 0 0 0-.293.623 1.9 1.9 0 0 0 .059.719 9.928 9.928 0 0 0 .348.976.7.7 0 0 0 .92.348.812.812 0 0 0 .478-1.011zm0 0" transform="translate(-100.683 -39.679)" style="fill:#222e6a"/>
                <path data-name="Path 39" d="M198.671 146.145a6.686 6.686 0 1 1-6.448 6.684 6.575 6.575 0 0 1 6.448-6.684zm0 0" transform="translate(-87.857 -50.077)" style="fill:#222e6a"/>
                <path data-name="Path 40" d="M166.671 147.98a6.687 6.687 0 1 1-6.448 6.681 6.578 6.578 0 0 1 6.448-6.681zm0 0" transform="translate(-93.91 -49.73)" style="fill:#222e6a"/>
                <path data-name="Path 41" d="M162.113 152.39c0 1.4 1.835 2.573 4.2 2.573s4.1-1.133 4.119-2.536c0-1.519-1.835-3.233-4.138-3.251-2.286 0-4.162 1.696-4.181 3.214zm0 0" transform="translate(-93.553 -49.503)" style="fill:#fff"/>
                <path data-name="Path 42" d="M194.129 150.538c0 1.4 1.835 2.573 4.2 2.573s4.1-1.133 4.12-2.535c0-1.52-1.835-3.233-4.138-3.252-2.287 0-4.163 1.715-4.182 3.214zm0 0" transform="translate(-87.497 -49.854)" style="fill:#fff"/>
                <path data-name="Path 43" d="M179.364 162.177a17.156 17.156 0 0 1-.841-3.587c2.834 2.476 9.63 2.1 11.642-.275-.47 1.97-.451 4.99-1.542 7.033-1.877-2.763-5.9-3.604-9.259-3.171zm0 0" transform="translate(-90.449 -47.774)" style="fill:#a65a7f"/>
                <path data-name="Path 44" d="M188.489 164.751a4.16 4.16 0 0 1-1.055 1.33c-2.072 1.714-6.234 1.087-8.2-4.5 3.355-.434 7.378.407 9.255 3.17zm0 0" transform="translate(-90.315 -47.177)" style="fill:#ffb0d7"/>
                <path data-name="Path 45" d="M189.661 158.278c-.275 1.013-.414 2.007-.585 2.959a17.4 17.4 0 0 1-.628 2.751 6.9 6.9 0 0 1-.529 1.189 3.612 3.612 0 0 1-.348.488 1.23 1.23 0 0 1-.2.214l-.219.2a2.893 2.893 0 0 1-2.108.66 3.935 3.935 0 0 1-2.225-.9 6.271 6.271 0 0 1-.938-.9 7.257 7.257 0 0 1-.781-1.092 16.269 16.269 0 0 1-1.857-5.277.614.614 0 0 0-.738-.488.635.635 0 0 0-.511.665 16.183 16.183 0 0 0 .529 3.019 13.416 13.416 0 0 0 1.152 2.9c.117.232.275.465.409.678a7.644 7.644 0 0 0 .488.646 7.316 7.316 0 0 0 1.175 1.167 5.762 5.762 0 0 0 3.182 1.287 4.578 4.578 0 0 0 3.358-1.111l.335-.269a2.716 2.716 0 0 0 .293-.353 8.087 8.087 0 0 0 .488-.721 9.947 9.947 0 0 0 .627-1.519 17.171 17.171 0 0 0 .543-3.043c.1-.993.177-1.964.316-2.879v-.024a.629.629 0 0 0-1.231-.251zm0 0" transform="translate(-90.548 -47.871)" style="fill:#46334d"/>
                <path data-name="Path 46" d="M178.209 159.152a6.156 6.156 0 0 0 1.4 1.05 8.031 8.031 0 0 0 1.584.646 11.913 11.913 0 0 0 6.62-.12 7.32 7.32 0 0 0 1.565-.7 4.369 4.369 0 0 0 1.347-1.208.642.642 0 0 0-.134-.873.622.622 0 0 0-.785.037l-.038.019a5.665 5.665 0 0 1-2.42 1.128 11.321 11.321 0 0 1-1.426.256 11.638 11.638 0 0 1-1.45.1 8.819 8.819 0 0 1-1.445-.061 11.072 11.072 0 0 1-1.426-.214 7.311 7.311 0 0 1-2.578-1.031l-.018-.019a.649.649 0 0 0-.879.153.692.692 0 0 0 .083.837zm0 0" transform="translate(-90.543 -47.868)" style="fill:#46334d"/>
                <path data-name="Path 47" d="M155.2 143.4c11.329-3.154 21.061-9.564 31.276-15.291 10.646-6 22.519-7.758 34.318-7.776 1.272.018 2.578.061 3.87.158a54.035 54.035 0 0 0-8.928-1.483h-.078a54.809 54.809 0 0 0-10.312.177c-15.841 1.691-29.906 9.528-41.119 15.681a37.91 37.91 0 0 1-3.6 1.733c-1.109.47-2.225.9-3.358 1.287-1.408.47-2.81.879-4.218 1.208a62.742 62.742 0 0 1-12.109 1.635 72.736 72.736 0 0 1-12.074-.483c-2.8-.353-3.87.524-3.925 2.257 10.31 1.072 19.977 4.031 30.257.897zm0 0" transform="translate(-100.584 -55.241)" style="fill:#f3ca9c"/>
                <path data-name="Path 48" d="M223.977 127.6a64.34 64.34 0 0 1 2.535 3.293 5.562 5.562 0 0 0 .1-.646 16.7 16.7 0 0 0-2.635-2.647zm0 0" transform="translate(-81.851 -53.585)" style="fill:#b777ba"/>
                <path data-name="Path 49" d="M234.321 123.676a55.85 55.85 0 0 0-9.652-3.409 61.675 61.675 0 0 0-3.865-.158c-11.823.043-23.7 1.775-34.324 7.776-10.233 5.728-19.965 12.138-31.271 15.293-10.274 3.117-19.927.158-30.221-.878 0 .2 0 .413.019.627a16.976 16.976 0 0 0 .822 3.994c4.339 6.8 12.054 10.188 19.789 10.149-4.571-1.5-9.769-3.78-10.763-9 5.37 1.111 10.646 2.843 16.133 3.294 0-.117.018-.238.018-.353a38.509 38.509 0 0 0 5.607-.585 44.58 44.58 0 0 0 2.657-.543c.433-.1.86-.2 1.291-.312a96.824 96.824 0 0 0 13.225-4.7c.251-.1.507-.214.781-.331 6.545-2.805 13.456-6.136 21-9.178a60.863 60.863 0 0 1 18.636-4.52c1.073-.08 2.132-.1 3.144-.117 1.311 0 2.56.061 3.754.158 4.784-.121 9.587 1.886 14.181 4.478 1.6.841-.2 2.922-1.253 3.256-2.11.7-4.139 1.574-6.132 2.452a4.581 4.581 0 0 0 2.816 2.2c4.862.566 9.239-2.007 12.4-5.9a11.857 11.857 0 0 0 2.17-5.081 63.542 63.542 0 0 0-2.541-3.294 41.065 41.065 0 0 0-8.421-5.318zm0 0" transform="translate(-100.575 -55.001)" style="fill:#f25510"/>
                <path data-name="Path 50" d="M164.163 124.462c-1.291-1.213-1.445-3.08-1.152-4.892l-2.012.994a1.252 1.252 0 0 0-.529 1.6l.158.367 1.658 4.013a1.057 1.057 0 0 0 1.445.627l3.168-1.561a3.219 3.219 0 0 1-2.736-1.148zm0 0" transform="translate(-93.883 -55.103)" style="fill:#38263b"/>
                <path data-name="Path 51" d="m167.458 117.555-4.864 2.4c-.293 1.83-.139 3.7 1.152 4.892a3.261 3.261 0 0 0 2.731 1.146l4.26-2.085c.195-2.67-.859-5.42-3.279-6.353zm0 0" transform="translate(-93.485 -55.485)" style="fill:#5f5061"/>
                <path data-name="Path 52" d="m172.635 121.484-1.737-4.189-.08-.214a1.066 1.066 0 0 0-1.445-.623l-2.693 1.325c2.42.933 3.456 3.683 3.28 6.35l2.131-1.05a1.282 1.282 0 0 0 .544-1.599zm0 0" transform="translate(-92.689 -55.712)" style="fill:#38263b"/>
                <path data-name="Path 53" d="M156.791 119.4a1.247 1.247 0 0 0-.524 1.6l1.306 3.154-.136.061c-.1.056-.2.115-.293.171q1.052 2.251 2.11 4.5a448.297 448.297 0 0 0 3.126-12.235zm0 0" transform="translate(-94.678 -55.655)" style="fill:#e6d093"/>
                <path data-name="Path 54" d="m161.62 124.987-.7-1.695-.157-.367a1.245 1.245 0 0 1 .524-1.6l1.681-.817c.529-1.659 1.055-3.317 1.6-4.971l-2.718 1.343a429.49 429.49 0 0 1-3.122 12.235c.348.762.7 1.523 1.074 2.281a309.752 309.752 0 0 1 1.818-6.409zm0 0" transform="translate(-94.193 -55.866)" style="fill:#fff"/>
                <path data-name="Path 55" d="M164.336 130.382c.469-1.616.938-3.233 1.407-4.872l-1.876.919a1.052 1.052 0 0 1-1.445-.627l-.956-2.319a365.404 365.404 0 0 0-1.817 6.411c.372.8.762 1.6 1.134 2.415 1.133-.64 2.344-1.286 3.553-1.927zm0 0" transform="translate(-94.019 -54.363)" style="fill:#e6d093"/>
                <path data-name="Path 56" d="m168.952 113.441-5.041 2.476a355.722 355.722 0 0 0-1.6 4.966l5.453-2.666c.406-1.58.796-3.178 1.188-4.776zm0 0" transform="translate(-93.516 -56.263)" style="fill:#e6d093"/>
                <path data-name="Path 57" d="M165 125.619c-.469 1.621-.938 3.256-1.407 4.872a207.356 207.356 0 0 1 5.941-3.038c.329-1.5.665-3.019.975-4.543zm0 0" transform="translate(-93.273 -54.472)" style="fill:#fff"/>
                <path data-name="Path 58" d="M174.132 115.185a.867.867 0 0 1-.1.043l-1.115-2.672a1.1 1.1 0 0 0-.975-.719c-.061.39-.115.78-.176 1.17a182.845 182.845 0 0 1-.976 5.765l1.464 3.567a1.248 1.248 0 0 1-.526 1.6L169.561 125c-.31 1.523-.646 3.043-.975 4.543 3.261-1.6 6.662-3.117 10.2-4.463-1.644-3.248-3.265-6.523-4.654-9.895zm0 0" transform="translate(-92.328 -56.566)" style="fill:#e6d093"/>
                <path data-name="Path 59" d="M172.264 111.836a1 1 0 0 0-.469.1l-3.711 1.83c-.391 1.6-.781 3.177-1.189 4.757l2.438-1.189a1.053 1.053 0 0 1 1.445.622l.08.214.254.623c.353-1.91.684-3.837.976-5.765.061-.412.112-.802.176-1.192zm0 0" transform="translate(-92.648 -56.566)" style="fill:#fff"/>
                <path data-name="Path 60" d="M194.465 111.28a53.836 53.836 0 0 0-21.215 4c1.389 3.39 3.01 6.647 4.65 9.9a73.577 73.577 0 0 1 18.32-4.557 58.35 58.35 0 0 1 5.96-.334 27.729 27.729 0 0 0-7.715-9.009zm0 0" transform="translate(-91.446 -56.675)" style="fill:#5f5061"/>
                <path data-name="Path 61" d="M198.805 120.28c1.445 0 2.89.042 4.357.157l.019-.505a61.417 61.417 0 0 0-7.678-8.478l-.117.158a47.042 47.042 0 0 0-4.3-.335 27.729 27.729 0 0 1 7.719 9.003zm0 0" transform="translate(-88.071 -56.672)" style="fill:#ab9bad"/>
                <path data-name="Path 62" d="M154.238 125.188c-.526.274-1.036.505-1.505.7h-.018c-.665 7.661-4.12 11.966-4.12 11.966v.037a47.315 47.315 0 0 0 4.218-1.208c.919-.31 1.84-.641 2.735-1.012a43.612 43.612 0 0 0-1.31-10.483zm0 0" transform="translate(-96.11 -54.041)" style="fill:#38263b"/>
                <path data-name="Path 63" d="M157.639 123.156c-1.579.938-3.024 1.756-4.315 2.4a44.8 44.8 0 0 1 1.328 10.484c.214-.078.409-.176.628-.256a43.638 43.638 0 0 0 3.59-1.733c1-.548 2.035-1.109 3.089-1.695-1.444-3.056-2.87-6.12-4.32-9.2zm0 0" transform="translate(-95.215 -54.425)" style="fill:#5f5061"/>
                <path data-name="Path 64" d="M154.192 117.031c.329 6.411-1.1 12.858-5.2 17.318a9.214 9.214 0 0 1-6.292 3.251 18.933 18.933 0 0 1-4.277 3.489 63.427 63.427 0 0 0 12.109-1.64v-.038s3.462-4.306 4.12-11.961h.024c.134-.061.251-.121.39-.177a58.8 58.8 0 0 0-.874-10.242zm0 0" transform="translate(-98.033 -55.584)" style="fill:#8e5e1f"/>
                <path data-name="Path 65" d="M177.955 96.337c4.845.311 7.794 6.624 12.542 8.4a47.248 47.248 0 0 1 5.057 2.063c-7.831-5.979-11.11-13.736-18.654-15.236-5.156-1.031-14.688 2.513-26.31 14.632-7.637 7.952-3.321 19.541-5.527 29.051 2.322-5.008 2.676-12.083 3.943-17.048C152 104.62 165.905 95.91 177.955 96.337zm0 0" transform="translate(-96.778 -60.433)" style="fill:#f3ca9c"/>
                <path data-name="Path 66" d="M152.418 126.455c.353-.158.724-.353 1.114-.529a67.055 67.055 0 0 0-1.309-4.637c.157 1.711.195 3.428.195 5.166zm0 0" transform="translate(-95.423 -54.778)" style="fill:#eebef0"/>
                <path data-name="Path 67" d="M184.378 105.031a60.877 60.877 0 0 1 9.4 8.417c1.25.056 2.519.153 3.81.312l.115-.158c-2.5-2.356-4.082-5.124-7.854-7.832-.27-.2-.543-.39-.8-.585a41.124 41.124 0 0 0-5.059-2.063 14.431 14.431 0 0 1-4.613-3.2 20.811 20.811 0 0 0 5.001 5.109zm0 0" transform="translate(-90.287 -58.819)" style="fill:#eebef0"/>
                <path data-name="Path 68" d="M191.446 105.858a20.478 20.478 0 0 1-5-5.105c-2.5-2.337-4.822-4.989-7.91-5.184-12.069-.427-25.981 8.282-28.968 21.879-1.268 4.952-1.621 12.04-3.943 17.048a15.967 15.967 0 0 1-3.614 7.191 9.2 9.2 0 0 0 6.289-3.252c3.438-3.763 5-8.885 5.217-14.223a162.5 162.5 0 0 0-1.547-4.287l.218-.019-.218.019a114.489 114.489 0 0 1 1.547 4.287 32.7 32.7 0 0 0-.024-3.1 38.971 38.971 0 0 0-.543-2.495l.232.214-.232-.214c.214.836.39 1.654.543 2.495a38 38 0 0 0-1.231-7.776l.237.214-.237-.214a37.746 37.746 0 0 1 1.231 7.776 48.539 48.539 0 0 1 .665 5.063c.488 1.542.919 3.08 1.309 4.64 1.389-.7 2.912-1.579 4.608-2.573l.139-.061-1.309-3.154a1.25 1.25 0 0 1 .529-1.6l17.052-8.38a1.056 1.056 0 0 1 1.445.628l1.114 2.666a53.373 53.373 0 0 1 21.8-4.013 57.635 57.635 0 0 0-9.399-8.47zm0 0" transform="translate(-97.356 -59.646)" style="fill:#f25510"/>
                <path data-name="Path 69" d="M134.15 146.785a31.38 31.38 0 0 0 13.359 3.5 37.122 37.122 0 0 0 6.935-.446c.567-.078 1.133-.2 1.7-.31l1.7-.331a76.177 76.177 0 0 0 3.339-.859 109.342 109.342 0 0 0 12.835-4.795c4.176-1.793 8.3-3.7 12.422-5.513q3.107-1.374 6.21-2.69l1.566-.641c.524-.2 1.036-.409 1.56-.6l1.584-.585c.526-.2 1.055-.367 1.579-.543s1.077-.334 1.6-.507 1.073-.312 1.6-.451a68.083 68.083 0 0 1 3.242-.78 55.288 55.288 0 0 1 6.6-.972 41.951 41.951 0 0 1 6.66-.078 39.692 39.692 0 0 1 6.588.975 32.276 32.276 0 0 1 6.266 2.123c.511.233 1 .489 1.467.74l.353.2.292.176-.023-.019.023.019c.019.019.038.061.056.078a.147.147 0 0 1 .042.1c0 .037.019.055.038.1a.87.87 0 0 1-.038.427 1.194 1.194 0 0 0-.059.117l-.019.059-.042.056-.075.117a.457.457 0 0 0-.1.12 5.6 5.6 0 0 1-1.133.916l-.023.019a.67.67 0 0 0-.214.951.677.677 0 0 0 .938.238 6.457 6.457 0 0 0 1.523-1.171c.061-.056.117-.134.177-.2l.158-.232.074-.117.061-.139a1.639 1.639 0 0 0 .115-.27 2.211 2.211 0 0 0 .117-1.249c-.018-.1-.056-.214-.074-.312a2.183 2.183 0 0 0-.14-.293 2.419 2.419 0 0 0-.176-.275c-.037-.037-.078-.1-.117-.134l-.059-.078a.364.364 0 0 0-.1-.075l-.056-.042a.064.064 0 0 0-.042-.019l-.038-.037-.1-.061-.2-.115-.371-.237a27.369 27.369 0 0 0-1.542-.818 32.637 32.637 0 0 0-6.545-2.355 40.739 40.739 0 0 0-6.857-1.092 45.2 45.2 0 0 0-6.916.018 57.954 57.954 0 0 0-13.517 2.727c-.543.177-1.092.353-1.64.548-.548.172-1.074.39-1.622.585s-1.073.409-1.6.623l-1.579.641c-2.11.859-4.2 1.774-6.272 2.671-4.143 1.83-8.263 3.739-12.4 5.551a120.452 120.452 0 0 1-12.6 4.793 42.493 42.493 0 0 1-13.1 2.044 29.469 29.469 0 0 1-6.545-.836 25.042 25.042 0 0 1-3.163-.976c-1.036-.366-2.052-.817-3.07-1.287a.7.7 0 0 0-.934.335.753.753 0 0 0 .322.973zm0 0" transform="translate(-98.913 -53.462)" style="fill:#222e6a"/>
                <path data-name="Path 70" d="M194.417 112.054c.6.743 1.249 1.445 1.894 2.165l1.932 2.1 1.915 2.1 1.913 2.085v.019a.693.693 0 0 0 1 .037.674.674 0 0 0 .134-.854 21.518 21.518 0 0 0-1.64-2.476c-.293-.391-.6-.757-.919-1.148-.312-.372-.641-.743-.975-1.111s-.665-.724-1.013-1.055c-.353-.348-.687-.683-1.06-1.012a25.576 25.576 0 0 0-2.243-1.891.69.69 0 0 0-.976.139.752.752 0 0 0 .038.902zm0 0" transform="translate(-87.473 -56.747)" style="fill:#31133d"/>
                <g data-name="Group 18" transform="translate(38.697 30)" style="clip-path:url(#e45lix66gc)">
                    <path data-name="Path 71" d="M138.84 146.715a20.523 20.523 0 0 0 2.949-2.067 15.839 15.839 0 0 0 2.5-2.648 17.718 17.718 0 0 0 1.857-3.158 19.813 19.813 0 0 0 1.134-3.446 33.849 33.849 0 0 0 .72-7.096c.042-2.356-.019-4.673.019-6.973a33.714 33.714 0 0 1 .687-6.744 17.436 17.436 0 0 1 .994-3.155 14.94 14.94 0 0 1 1.6-2.842c.331-.433.665-.86 1.036-1.269l.275-.312.293-.31.6-.623c.409-.413.822-.822 1.231-1.212s.822-.794 1.25-1.184a67.416 67.416 0 0 1 5.254-4.446c.919-.7 1.84-1.361 2.8-1.984s1.914-1.231 2.909-1.774a26.846 26.846 0 0 1 6.214-2.555 15.422 15.422 0 0 1 1.621-.311c.27-.037.543-.056.8-.1.275-.019.548-.037.8-.037a10.273 10.273 0 0 1 1.566.116c.251.037.524.116.78.177.256.079.529.135.78.232a15.742 15.742 0 0 1 5.528 3.507c1.662 1.538 3.186 3.275 4.789 4.97a60.687 60.687 0 0 0 5.076 4.929l.684.561.7.548 1.408 1.031a22.465 22.465 0 0 1 2.559 2.2c1.6 1.579 3.011 3.47 4.785 5.105a.687.687 0 0 0 .98-.037.7.7 0 0 0-.023-.976 32.453 32.453 0 0 1-2.286-2.532 59.268 59.268 0 0 0-2.341-2.652 23.038 23.038 0 0 0-2.676-2.4l-1.392-1.038-.665-.526-.646-.548a54.955 54.955 0 0 1-4.881-4.831c-1.561-1.7-3.085-3.47-4.827-5.124a23.21 23.21 0 0 0-2.829-2.281 14.659 14.659 0 0 0-3.321-1.654c-.293-.116-.608-.176-.9-.274-.312-.079-.6-.158-.916-.214a9.3 9.3 0 0 0-1.913-.158c-.316 0-.628.019-.938.042s-.628.056-.92.1a18.185 18.185 0 0 0-1.816.348 29.494 29.494 0 0 0-6.679 2.708 37.362 37.362 0 0 0-3.066 1.853c-1 .641-1.956 1.342-2.913 2.044a68.039 68.039 0 0 0-5.393 4.58c-.427.409-.859.817-1.268 1.226s-.841.818-1.25 1.245l-.6.627-.315.312-.312.331a17.368 17.368 0 0 0-1.171 1.439 16.2 16.2 0 0 0-1.8 3.215 20.207 20.207 0 0 0-1.1 3.488 34.275 34.275 0 0 0-.665 7.112c-.018 2.359.061 4.677.061 6.977a33.5 33.5 0 0 1-.6 6.758 17.6 17.6 0 0 1-.98 3.177 14.6 14.6 0 0 1-1.621 2.88 17.079 17.079 0 0 1-4.942 4.445.693.693 0 0 0-.233.953.706.706 0 0 0 .959.255zm0 0" transform="translate(-136.852 -90.583)" style="fill:#222e6a"/>
                </g>
                <path data-name="Path 73" d="m171.745 117.565.9 2.2.451 1.111.214.524.117.275.018.078.024.037a.152.152 0 0 1 .019.1.794.794 0 0 1-.158.665.832.832 0 0 1-.117.1c-.019.019-.042.019-.061.037l-.134.061-.548.251-2.146 1.012-4.3 2.049-2.146 1.031-.273.136-.061.042-.018.018c-.019 0-.038 0-.038.019a.24.24 0 0 1-.195-.019.38.38 0 0 1-.176-.134c-.019-.042-.061-.078-.08-.12l-.018-.038-.019-.079-.061-.134-.919-2.2-.47-1.092-.232-.543-.117-.273-.023-.061-.019-.037c-.018-.019-.018-.038-.018-.08a.7.7 0 0 1 .1-.566c.018-.038.061-.056.078-.075s.037-.019.061-.042l.134-.056.53-.274 2.127-1.092 4.236-2.161 2.132-1.073.275-.134.055-.043.043-.018c.018-.019.037-.019.074-.019a.549.549 0 0 1 .3.019.6.6 0 0 1 .27.195.382.382 0 0 1 .1.153l.023.042.019.079zm.9-.372-.059-.134-.019-.08-.037-.1a3.636 3.636 0 0 0-.219-.348 1.558 1.558 0 0 0-.683-.488 1.713 1.713 0 0 0-.878-.061 1.017 1.017 0 0 0-.214.08l-.1.037-.061.042-.273.136-2.146 1.031-4.3 2.048-2.151 1.013-.548.251-.134.061c-.061.037-.139.078-.2.115a1.35 1.35 0 0 0-.353.312 1.891 1.891 0 0 0-.409 1.677c.019.08.038.136.056.214l.042.1.019.078.117.275.213.543.451 1.109.9 2.2.056.134.019.08.042.1a1.425 1.425 0 0 0 .256.39 1.769 1.769 0 0 0 .761.548 1.677 1.677 0 0 0 .975.056.949.949 0 0 0 .233-.08l.115-.037.061-.037.275-.139 2.127-1.069 4.241-2.164 2.127-1.092.53-.275.134-.055c.061-.043.139-.08.2-.117a2.538 2.538 0 0 0 .334-.293 1.776 1.776 0 0 0 .348-1.579c-.019-.061-.037-.136-.056-.2l-.042-.1-.019-.08-.115-.269-.237-.548-.465-1.092zm0 0" transform="translate(-93.987 -55.787)" style="fill:#31133d"/>
                <path data-name="Path 74" d="M173.524 116.12c2.048-.684 4.1-1.325 6.192-1.849a57.259 57.259 0 0 1 6.284-1.306c1.055-.176 2.108-.293 3.182-.409a43.546 43.546 0 0 1 3.2-.213 58.277 58.277 0 0 1 6.424.115.687.687 0 0 0 .743-.646.734.734 0 0 0-.566-.738 37.781 37.781 0 0 0-6.62-.566c-1.114 0-2.23.042-3.339.139-.548.037-1.115.117-1.664.153-.548.061-1.092.139-1.658.214-1.1.176-2.188.39-3.265.627s-2.146.524-3.2.855a48.37 48.37 0 0 0-6.192 2.318.69.69 0 0 0-.353.914.633.633 0 0 0 .832.392zm0 0" transform="translate(-91.561 -56.818)" style="fill:#31133d"/>
                <path data-name="Path 75" d="M152.436 127.045a9.7 9.7 0 0 0 1.718-.566 16.731 16.731 0 0 0 1.6-.78 17.283 17.283 0 0 0 2.912-1.984.7.7 0 0 0-.706-1.189 12.733 12.733 0 0 0-1.6.683c-.529.251-1.036.507-1.523.8-.511.269-1 .561-1.486.854s-.957.586-1.426.916h-.019a.738.738 0 0 0-.176.994.681.681 0 0 0 .706.272zm0 0" transform="translate(-95.539 -54.552)" style="fill:#31133d"/>
                <path data-name="Path 76" d="M161.193 134.461a.823.823 0 0 0 .293-.056.8.8 0 0 0 .432-1.013l-4.826-11.673a.5.5 0 0 1 .158-.6l17.05-8.379a.185.185 0 0 1 .176 0 .371.371 0 0 1 .214.233l4.942 11.961a.778.778 0 0 0 1.445-.58l-4.943-11.966a1.912 1.912 0 0 0-1.114-1.092 1.7 1.7 0 0 0-1.4.08l-17.033 8.38a2.024 2.024 0 0 0-.919 2.591l4.8 11.65a.772.772 0 0 0 .725.464zm0 0" transform="translate(-94.802 -56.69)" style="fill:#31133d"/>
                <g data-name="Group 19" transform="translate(23.238 62.6)" style="clip-path:url(#smadi4qlrd)">
                    <path data-name="Path 77" d="M152.038 160.935c-.451.019-.98.019-1.467.019-.507 0-.994-.019-1.506-.043a38.234 38.234 0 0 1-2.986-.25 30.3 30.3 0 0 1-5.821-1.325 26 26 0 0 1-5.369-2.494 20.434 20.434 0 0 1-4.534-3.745 17.55 17.55 0 0 1-3.145-4.868 15.11 15.11 0 0 1-.878-2.768 11.677 11.677 0 0 1-.256-1.421c-.037-.232-.059-.488-.079-.719a3.891 3.891 0 0 1-.019-.646 1.755 1.755 0 0 1 .275-.952.847.847 0 0 1 .312-.256 1.764 1.764 0 0 1 .469-.172 5.286 5.286 0 0 1 1.268-.078c.238.019.451.037.706.078l.762.1c2.048.233 4.12.367 6.173.446a70.912 70.912 0 0 0 12.361-.683 53.068 53.068 0 0 0 12.035-3.173c.957-.39 1.913-.822 2.852-1.268.47-.232.938-.47 1.384-.721l1.352-.743c1.793-.97 3.572-1.945 5.37-2.9 3.595-1.915 7.228-3.726 10.92-5.361a94.109 94.109 0 0 1 11.348-4.227 68.4 68.4 0 0 1 11.8-2.457A53.792 53.792 0 0 1 229.1 122.9a55.464 55.464 0 0 1 5.57 2.262 36.054 36.054 0 0 1 5.13 3.038c.818.566 1.621 1.17 2.383 1.811a23.643 23.643 0 0 1 2.127 2.007 7.149 7.149 0 0 1 .822 1.092 1.643 1.643 0 0 1 .233.505.2.2 0 0 1 .018.1v.117c0 .1.019.214.019.334a8.239 8.239 0 0 1-.524 2.685 14.359 14.359 0 0 1-3.126 4.836 20.929 20.929 0 0 1-2.17 1.982 26.627 26.627 0 0 1-2.42 1.737 45.181 45.181 0 0 1-10.976 4.868.692.692 0 0 0-.451.878.707.707 0 0 0 .86.47 46.754 46.754 0 0 0 11.385-4.929c.882-.566 1.76-1.151 2.583-1.792a24.586 24.586 0 0 0 2.359-2.1 15.957 15.957 0 0 0 3.516-5.342 9.494 9.494 0 0 0 .665-3.27 3.731 3.731 0 0 0-.019-.451v-.117c0-.056-.019-.1-.019-.153-.018-.1-.042-.2-.059-.273a4.593 4.593 0 0 0-.39-.9 8.847 8.847 0 0 0-1.018-1.343 20.977 20.977 0 0 0-2.3-2.2c-.8-.684-1.64-1.306-2.481-1.91a39.082 39.082 0 0 0-5.37-3.219 59.514 59.514 0 0 0-5.746-2.374 53.61 53.61 0 0 0-12.11-2.787 56.407 56.407 0 0 0-12.421.019 69.679 69.679 0 0 0-12.152 2.495 96.887 96.887 0 0 0-11.585 4.306c-3.767 1.653-7.423 3.507-11.032 5.434-1.8.957-3.6 1.951-5.393 2.922l-1.33.743c-.432.232-.878.465-1.328.683-.9.446-1.8.836-2.736 1.226a50.336 50.336 0 0 1-11.58 3.075 69.1 69.1 0 0 1-12.054.725 80.408 80.408 0 0 1-6.034-.39l-.743-.08a11.017 11.017 0 0 0-.822-.079 6.326 6.326 0 0 0-1.774.115 3.964 3.964 0 0 0-.962.372 2.714 2.714 0 0 0-.836.738 3.415 3.415 0 0 0-.47.975 3.342 3.342 0 0 0-.139.957 4.216 4.216 0 0 0 .042.873c.019.275.056.53.1.8a14.18 14.18 0 0 0 .294 1.579 17.639 17.639 0 0 0 .993 3.038 18.957 18.957 0 0 0 3.479 5.319 22.973 22.973 0 0 0 4.92 3.977 26.94 26.94 0 0 0 5.727 2.591 32.861 32.861 0 0 0 6.113 1.325 39.217 39.217 0 0 0 4.666.255c.53 0 1.017-.023 1.579-.042a.686.686 0 0 0 .664-.719.694.694 0 0 0-.719-.665zm0 0" transform="translate(-123.963 -117.976)" style="fill:#222e6a"/>
                </g>
                <path data-name="Path 79" d="M149.247 139.714c.176-.213.31-.39.469-.585.136-.2.275-.39.409-.585s.256-.409.39-.6l.353-.622a21.234 21.234 0 0 0 1.208-2.573c.157-.446.352-.874.492-1.325l.213-.683c.08-.232.117-.446.195-.678l.177-.683.153-.7c.12-.47.176-.938.256-1.384.078-.47.115-.935.176-1.4s.1-.933.117-1.4a26.017 26.017 0 0 0-.019-2.824 27.682 27.682 0 0 0-.878-5.532.7.7 0 0 0-.86-.488.681.681 0 0 0-.511.756 48.7 48.7 0 0 1 .433 5.319 31.779 31.779 0 0 1-.372 5.282 29.292 29.292 0 0 1-1.25 5.123 25.991 25.991 0 0 1-1 2.434l-.586 1.17c-.1.2-.213.39-.31.567s-.238.367-.335.524l-.018.038a.675.675 0 0 0 .214.956.612.612 0 0 0 .884-.107zm0 0" transform="translate(-96.215 -55.473)" style="fill:#222e6a"/>
                <path data-name="Path 80" d="M146.932 167.738c-3.85 5.826-9.806 9.174-11.311 12.584-1.737 3.94.8 7.814 6.308 8.4 4.71.507 13.341-2.337 21.349-12.663" transform="translate(-98.666 -45.992)" style="fill:#fff"/>
                <path data-name="Path 81" d="M146.5 167.459a33.229 33.229 0 0 1-4.474 5.044c-.822.781-1.681 1.542-2.522 2.322-.86.777-1.718 1.557-2.559 2.416a14.136 14.136 0 0 0-1.189 1.4 6.952 6.952 0 0 0-.53.8l-.115.214-.117.232a3.88 3.88 0 0 0-.2.451 6.612 6.612 0 0 0-.353 3.953 5.921 5.921 0 0 0 .8 1.873 7.171 7.171 0 0 0 1.328 1.5 9.222 9.222 0 0 0 3.419 1.752 10.377 10.377 0 0 0 1.835.353 10.269 10.269 0 0 0 1.876.056 14.127 14.127 0 0 0 1.835-.2 17.527 17.527 0 0 0 1.779-.39 24.377 24.377 0 0 0 6.526-2.96 34.821 34.821 0 0 0 5.547-4.4q1.261-1.225 2.4-2.573a50.214 50.214 0 0 0 2.188-2.745.695.695 0 0 0-1.092-.86q-1.086 1.316-2.23 2.573a56.028 56.028 0 0 1-2.4 2.378 33.388 33.388 0 0 1-5.351 4.05 23.021 23.021 0 0 1-6.056 2.648c-.526.139-1.055.256-1.6.353a11.037 11.037 0 0 1-1.6.176 10.173 10.173 0 0 1-1.565-.061 7.764 7.764 0 0 1-1.542-.31 7.154 7.154 0 0 1-2.695-1.343 4.883 4.883 0 0 1-.956-1.074 4.293 4.293 0 0 1-.548-1.287 4.721 4.721 0 0 1 .232-2.824 8.439 8.439 0 0 1 1.742-2.554c.738-.818 1.579-1.593 2.4-2.374a75.356 75.356 0 0 0 2.5-2.416 32.779 32.779 0 0 0 4.474-5.457.7.7 0 0 0-.214-.953.8.8 0 0 0-.973.237zm0 0" transform="translate(-98.816 -46.103)" style="fill:#222e6a"/>
                <path data-name="Path 82" d="M156.609 163.147a1.578 1.578 0 0 0 .451 1.06 3.8 3.8 0 0 0 1.278.9 8.3 8.3 0 0 0 1.913.6 12.278 12.278 0 0 0 4.515 0 8.318 8.318 0 0 0 1.913-.6 3.793 3.793 0 0 0 1.277-.9 1.471 1.471 0 0 0 0-2.119 3.842 3.842 0 0 0-1.277-.9 8.041 8.041 0 0 0-1.913-.6 12.28 12.28 0 0 0-4.515 0 8.023 8.023 0 0 0-1.913.6 3.848 3.848 0 0 0-1.278.9 1.58 1.58 0 0 0-.451 1.059zm0 0" transform="translate(-94.594 -47.383)" style="fill:#ff8856"/>
                <path data-name="Path 83" d="M198.2 160.65a1.7 1.7 0 0 0 .377 1.036 3.377 3.377 0 0 0 1.082.878 5.986 5.986 0 0 0 1.616.585 8.77 8.77 0 0 0 3.809 0 6.01 6.01 0 0 0 1.617-.585 3.4 3.4 0 0 0 1.082-.878 1.7 1.7 0 0 0 .376-1.036 1.681 1.681 0 0 0-.376-1.036 3.27 3.27 0 0 0-1.082-.879 6.22 6.22 0 0 0-1.617-.59 8.969 8.969 0 0 0-3.809 0 6.2 6.2 0 0 0-1.616.59 3.245 3.245 0 0 0-1.082.879 1.683 1.683 0 0 0-.377 1.036zm0 0" transform="translate(-86.726 -47.845)" style="fill:#ff8856"/>
            </g>
        </g>
        <g data-name="Group 317">
            <g data-name="Group 291">
                <g data-name="Group 267">
                    <g data-name="Group 249">
                        <path data-name="Path 240" d="M3046.068 2339.851a1.377 1.377 0 0 1-.933-2.391c13.135-12.07 10.415-36.124 10.385-36.366a1.378 1.378 0 0 1 2.735-.329c.126 1.043 2.927 25.691-11.256 38.724a1.382 1.382 0 0 1-.931.362z" transform="translate(-2859.15 -2071.768)" style="fill:#390075"/>
                    </g>
                    <g data-name="Group 250">
                        <path data-name="Path 241" d="M2939.487 2201.442a1.377 1.377 0 0 1-1.377-1.377v-51.537a1.377 1.377 0 0 1 2.755 0v51.537a1.377 1.377 0 0 1-1.378 1.377z" transform="translate(-2762.356 -1933.359)" style="fill:#390075"/>
                    </g>
                    <g data-name="Group 251" transform="translate(174.685 164.567)">
                        <ellipse data-name="Ellipse 12" cx="27.89" cy="23.267" rx="27.89" ry="23.267" transform="rotate(-89.61 28.081 27.89)" style="fill:#a659ff"/>
                    </g>
                    <g data-name="Group 252">
                        <path data-name="Path 242" d="M3123.93 2225.949c-.017 2.388-2.731 3.071-6.076 3.049s-6.05-.742-6.035-3.13 2.749-5.542 6.093-5.52 6.033 3.213 6.018 5.601z" transform="translate(-2920.115 -1999.836)" style="fill:#a659ff"/>
                    </g>
                    <g data-name="Group 253" style="opacity:.6">
                        <path data-name="Path 243" d="M3016.993 1657.647a31.482 31.482 0 0 0 4.774-16.7 31.022 31.022 0 0 0-5.822-18.643c-1.023.689-2.993.648-4.953-.2-2.478-1.081-4.012-3.049-3.424-4.4a2.514 2.514 0 0 1 2.429-1.174 20.238 20.238 0 0 0-11.272-3.584 21.136 21.136 0 0 0-15.5 6.951c4.284-6.722 11.056-11.044 18.647-10.991 12.829.085 23.144 12.626 23.042 28a30.432 30.432 0 0 1-7.921 20.741z" transform="translate(-2803.333 -1444.537)" style="fill:#fff"/>
                    </g>
                    <g data-name="Group 254" style="opacity:.2">
                        <path data-name="Path 244" d="M2973.847 1789.412c-3.831 8.906-11.605 14.976-20.526 14.913-12.637-.085-22.8-12.433-22.7-27.584a31.432 31.432 0 0 1 3.552-14.471s10.5 36.6 39.453 27.213c.074-.022.146-.049.221-.071z" transform="translate(-2755.556 -1583.82)" style="fill:#390075"/>
                    </g>
                    <g data-name="Group 257">
                        <g data-name="Group 255">
                            <path data-name="Path 245" d="M2935.79 1654.37h-.145c-6.7-.046-12.96-3.194-17.626-8.866a32.332 32.332 0 0 1-7.046-20.8c.111-16.265 11.374-29.406 25.074-29.327 13.716.094 24.783 13.4 24.673 29.666-.111 16.207-11.281 29.327-24.93 29.327zm.111-55.781c-11.887 0-21.617 11.693-21.715 26.136a29.117 29.117 0 0 0 6.313 18.736c4.051 4.924 9.437 7.656 15.167 7.695h.124c11.887 0 21.617-11.693 21.715-26.136.1-14.492-9.538-26.35-21.481-26.43zm23.211 26.441z" transform="translate(-2737.709 -1432.251)" style="fill:#390075"/>
                        </g>
                        <g data-name="Group 256">
                            <path data-name="Path 246" d="M3102.122 2214.7h-.173c-6.333-.043-7.645-2.606-7.63-4.748.022-3.235 3.442-7.116 7.664-7.116h.048a7.7 7.7 0 0 1 5.4 2.39 7.135 7.135 0 0 1 2.214 4.83 4.148 4.148 0 0 1-2.77 3.9 12.311 12.311 0 0 1-4.753.744zm-.138-8.651c-2.4 0-4.441 2.4-4.451 3.925-.009 1.338 3.1 1.5 4.438 1.512a9.616 9.616 0 0 0 3.648-.492c.806-.343.809-.7.811-.959a4.028 4.028 0 0 0-1.283-2.546 4.573 4.573 0 0 0-3.138-1.437z" transform="translate(-2904.221 -1983.936)" style="fill:#390075"/>
                        </g>
                    </g>
                    <g data-name="Group 258">
                        <path data-name="Path 247" d="M2734.36 1434.619a34.869 34.869 0 0 1-2.792 13.571c-4.207 9.78-12.744 16.446-22.541 16.377-13.877-.094-25.036-13.653-24.925-30.291a34.508 34.508 0 0 1 3.9-15.891c4.493-8.5 12.43-14.122 21.431-14.061 13.884.099 25.042 13.658 24.927 30.295z" transform="translate(-2531.671 -1258.742)" style="fill:#f96ebb"/>
                    </g>
                    <g data-name="Group 259" style="opacity:.6">
                        <path data-name="Path 248" d="M2774.183 1457.557a34.055 34.055 0 0 0 5.161-18.06 32.74 32.74 0 0 0-8.732-23.042c-.856 1-3.086 1.081-5.312.11-2.478-1.081-4.012-3.049-3.424-4.4a1.923 1.923 0 0 1 1.3-1.016 21.356 21.356 0 0 0-8.753-1.945 22.87 22.87 0 0 0-16.764 7.518c4.635-7.269 11.957-11.945 20.172-11.888 13.877.094 25.035 13.657 24.922 30.291a32.91 32.91 0 0 1-8.57 22.432z" transform="translate(-2580.311 -1259.205)" style="fill:#fff"/>
                    </g>
                    <g data-name="Group 260">
                        <path data-name="Path 249" d="M2895.219 2066.449c-.018 2.581-2.95 3.317-6.563 3.292s-6.534-.8-6.517-3.381 2.969-5.986 6.581-5.961 6.516 3.471 6.499 6.05z" transform="translate(-2711.524 -1854.573)" style="fill:#f96ebb"/>
                    </g>
                    <g data-name="Group 261" style="opacity:.2">
                        <path data-name="Path 250" d="M2730.678 1587.265c-4.207 9.78-12.744 16.445-22.541 16.377-13.877-.094-25.035-13.653-24.925-30.291a34.505 34.505 0 0 1 3.9-15.891s11.525 40.193 43.324 29.883c.082-.025.164-.053.242-.078z" transform="translate(-2530.863 -1397.816)" style="fill:#390075"/>
                    </g>
                    <g data-name="Group 262" style="opacity:.2">
                        <path data-name="Path 251" d="M2892.442 2081.48c-3.145 0-5.694-.659-5.694-2.905a4.349 4.349 0 0 1 .632-2.1 5.9 5.9 0 0 0-3.689 4.813c0 2.246 2.549 2.906 5.694 2.906s5.694-.659 5.694-2.906v-.011a14.716 14.716 0 0 1-2.637.203z" transform="translate(-2712.933 -1869.169)" style="fill:#390075"/>
                    </g>
                    <g data-name="Group 263" style="opacity:.2">
                        <path data-name="Path 252" d="M3124.5 2230.43c-3.145 0-5.694-.659-5.694-2.905a4.35 4.35 0 0 1 .632-2.1 5.9 5.9 0 0 0-3.689 4.813c0 2.246 2.549 2.905 5.694 2.905s5.694-.659 5.694-2.905v-.011a14.757 14.757 0 0 1-2.637.203z" transform="translate(-2923.685 -2004.442)" style="fill:#390075"/>
                    </g>
                    <g data-name="Group 266">
                        <g data-name="Group 264">
                            <path data-name="Path 253" d="M2693.3 1450.3h-.156c-14.741-.1-26.638-14.415-26.52-31.91.119-17.433 12.125-31.547 26.795-31.547h.155c14.741.1 26.638 14.415 26.52 31.91-.121 17.431-12.127 31.547-26.794 31.547zm.12-60.243c-12.909 0-23.474 12.685-23.581 28.355-.106 15.723 10.358 28.586 23.327 28.675h.134c12.909 0 23.473-12.685 23.581-28.355.106-15.723-10.357-28.586-23.327-28.674zm25.068 28.686z" transform="translate(-2515.795 -1242.863)" style="fill:#390075"/>
                        </g>
                        <g data-name="Group 265">
                            <path data-name="Path 254" d="M2872.911 2055.457h-.169c-6.733-.046-8.129-2.744-8.113-5 .023-3.435 3.659-7.558 8.149-7.558h.05c4.513.031 8.118 4.22 8.095 7.668-.016 2.233-1.423 4.89-8.012 4.89zm-.134-9.343c-2.709 0-4.923 2.634-4.935 4.366-.01 1.5 3.079 1.75 4.921 1.763s4.935-.191 4.945-1.7c.012-1.737-2.18-4.414-4.9-4.432z" transform="translate(-2695.621 -1838.682)" style="fill:#390075"/>
                        </g>
                    </g>
                </g>
                <g data-name="Group 268">
                    <path data-name="Path 255" d="M2723.759 2609.79h-.191c-1.357-.012-9.6-.13-15.606-1.561-3.71-.881-6.572-2.259-6.437-4.419.13-2.087 2.879-1.985 6.4-.974 5.157 1.484 11.974 4.924 14.668 6.335.432.224.754.4.949.5z" transform="translate(-2547.49 -2346.568)" style="fill:#e62036"/>
                    <path data-name="Path 256" d="M2707.855 2595.539h-.187c-1.62-.015-9.915-.161-15.981-1.6-1.96-.466-7.931-1.882-7.669-6.082a3.128 3.128 0 0 1 1.321-2.452c1.383-.976 3.648-.965 7.126.033 5.282 1.52 12.228 5.021 14.97 6.456.27.141.5.264.686.362l.515.276 5.425 3.012zm-20.626-7.534v.046c-.043.691 1.295 1.828 5.2 2.756a56.2 56.2 0 0 0 7.92 1.166 65.537 65.537 0 0 0-8.772-3.452c-3.177-.911-4.157-.604-4.348-.516z" transform="translate(-2531.587 -2330.71)" style="fill:#390075"/>
                </g>
                <g data-name="Group 269">
                    <path data-name="Path 257" d="M2768.248 2458.249c-.049-.033-.4-.249-.974-.62-2.389-1.541-8.635-5.765-12.732-10.29-3.657-4.032-5.606-8.308-1.611-11.138 3.775-2.675 7.085.807 9.653 5.74 3.307 6.339 5.385 15.08 5.638 16.188.018.078.026.12.026.12z" transform="translate(-2592.167 -2195.027)" style="fill:#e62036"/>
                    <path data-name="Path 258" d="M2752.347 2443.929h-.49l-.492-.324c-.159-.1-.457-.287-.868-.553-2.521-1.626-8.842-5.911-13.052-10.561-3.116-3.436-4.491-6.385-4.2-9.014a6.29 6.29 0 0 1 2.856-4.514 5.762 5.762 0 0 1 4.833-1.068c2.566.621 4.914 3.034 7.175 7.377 3.426 6.569 5.517 15.427 5.774 16.547.032.124.044.19.044.19l.347 1.9zm-12.7-22.976a2.916 2.916 0 0 0-1.694.633 3.181 3.181 0 0 0-1.518 2.24c-.177 1.616 1 3.866 3.39 6.507a61.147 61.147 0 0 0 9.911 8.341 67.067 67.067 0 0 0-4.483-11.917c-1.733-3.329-3.537-5.366-5.081-5.739a2.235 2.235 0 0 0-.524-.065z" transform="translate(-2576.266 -2179.101)" style="fill:#390075"/>
                </g>
                <g data-name="Group 270" style="opacity:.2">
                    <path data-name="Path 259" d="M2783.762 2524.2h-.191c-1.357-.012-9.6-.13-15.606-1.561a10.383 10.383 0 0 1-.036-5.394c5.157 1.484 11.974 4.924 14.668 6.335-2.389-1.541-8.635-5.765-12.732-10.29a15.676 15.676 0 0 1 8.044-5.4c3.306 6.339 5.385 15.08 5.638 16.188z" transform="translate(-2607.493 -2260.975)" style="fill:#390075"/>
                </g>
                <g data-name="Group 271">
                    <path data-name="Path 260" d="M2967.949 2603.794c.142 2.271-3.033 3.681-7.028 4.558a85.341 85.341 0 0 1-15.01 1.423h-.191l.216-.118c.2-.1.518-.277.949-.5a95.838 95.838 0 0 1 14.146-6.181c3.769-1.155 6.784-1.376 6.918.818z" transform="translate(-2769.267 -2346.553)" style="fill:#e62036"/>
                    <path data-name="Path 261" d="M2884.344 2595.534h-6.2l5.947-3.292c.183-.1.412-.219.685-.361a97.344 97.344 0 0 1 14.417-6.291c3.763-1.153 6.193-1.22 7.648-.212a3.119 3.119 0 0 1 1.344 2.469c.272 4.35-6.17 5.763-8.288 6.226a87.249 87.249 0 0 1-15.34 1.46zm19.781-7.657a14.4 14.4 0 0 0-4 .786 68.557 68.557 0 0 0-8.28 3.3 59.294 59.294 0 0 0 7.356-1.033c4.632-1.016 5.8-2.293 5.768-2.887v-.046a2.074 2.074 0 0 0-.844-.12z" transform="translate(-2707.892 -2330.706)" style="fill:#390075"/>
                </g>
                <g data-name="Group 272">
                    <path data-name="Path 262" d="M2961.16 2447.679a71.932 71.932 0 0 1-12.422 9.952c-.575.371-.926.587-.975.62s.008-.041.028-.118c.252-1.1 2.3-9.707 5.557-16.034 2.58-5.011 5.919-8.6 9.735-5.9 4.105 2.915 1.928 7.347-1.923 11.48z" transform="translate(-2771.12 -2195.029)" style="fill:#e62036"/>
                    <path data-name="Path 263" d="M2928.692 2443.937h-1.932l.352-1.919s.012-.065.043-.187c.251-1.088 2.334-9.872 5.689-16.388 2.285-4.438 4.656-6.9 7.249-7.536a5.758 5.758 0 0 1 4.844 1.065 6.279 6.279 0 0 1 2.86 4.554c.277 2.706-1.206 5.757-4.534 9.328a73.371 73.371 0 0 1-12.726 10.206c-.41.264-.708.453-.868.552l-.5.318zm12.693-22.976a2.224 2.224 0 0 0-.531.067c-1.566.382-3.4 2.472-5.153 5.885a67.492 67.492 0 0 0-4.408 11.771 62.828 62.828 0 0 0 9.619-8.022c3.266-3.5 3.808-5.637 3.688-6.809a3.179 3.179 0 0 0-1.521-2.26 2.923 2.923 0 0 0-1.694-.632z" transform="translate(-2752.048 -2179.108)" style="fill:#390075"/>
                </g>
                <g data-name="Group 273" style="opacity:.2">
                    <path data-name="Path 264" d="M2961.333 2521.4a10.45 10.45 0 0 1-.411 2.9 85.333 85.333 0 0 1-15.01 1.423h-.191l.216-.119c.252-1.1 2.3-9.706 5.556-16.034a15.359 15.359 0 0 1 7.815 5.581 71.917 71.917 0 0 1-12.422 9.952 95.788 95.788 0 0 1 14.146-6.18 10.209 10.209 0 0 1 .301 2.477z" transform="translate(-2769.267 -2262.501)" style="fill:#390075"/>
                </g>
                <g data-name="Group 274">
                    <path data-name="Rectangle 6" style="fill:#ffd215" d="M0 0h51.196v12.703H0z" transform="translate(150.67 263.222)"/>
                </g>
                <g data-name="Group 277">
                    <g data-name="Group 275">
                        <path data-name="Rectangle 7" style="fill:#e62036" d="M0 0h21.299v12.705H0z" transform="translate(165.619 263.22)"/>
                    </g>
                    <g data-name="Group 276">
                        <path data-name="Path 265" d="M2834.743 2683.888h-24.513v-15.918h24.513zm-21.3-3.213h18.085v-9.491h-18.085z" transform="translate(-2646.218 -2406.356)" style="fill:#390075"/>
                    </g>
                </g>
                <g data-name="Group 278" style="opacity:.6">
                    <path data-name="Path 266" d="M2716.154 2680.48h-51.194v12.7h4.083v-4.317a3.8 3.8 0 0 1 3.8-3.8h43.311v-4.587z" transform="translate(-2514.287 -2417.717)" style="fill:#fff"/>
                </g>
                <g data-name="Group 279">
                    <path data-name="Rectangle 8" style="fill:#ffd215" d="M0 0h44.47v26.157H0z" transform="translate(154.034 275.925)"/>
                </g>
                <g data-name="Group 280" style="opacity:.6">
                    <path data-name="Path 267" d="M3144.071 2925.938a2.011 2.011 0 0 1-2.011-2.011v-14.456a2.011 2.011 0 0 1 2.011-2.011 2.011 2.011 0 0 1 2.011 2.011v14.456a2.012 2.012 0 0 1-2.011 2.011z" transform="translate(-2947.578 -2623.855)" style="fill:#fff"/>
                </g>
                <g data-name="Group 281" style="opacity:.6">
                    <path data-name="Path 268" d="M2824.631 2920.877a2.011 2.011 0 0 1-2.011-2.011v-14.455a2.011 2.011 0 0 1 2.011-2.011 2.011 2.011 0 0 1 2.011 2.011v14.456a2.012 2.012 0 0 1-2.011 2.01z" transform="translate(-2657.47 -2619.26)" style="fill:#fff"/>
                </g>
                <g data-name="Group 282">
                    <path data-name="Path 269" d="M2700.259 2683.888h-51.192a1.607 1.607 0 0 1-1.607-1.607v-12.7a1.607 1.607 0 0 1 1.607-1.607h51.192a1.607 1.607 0 0 1 1.607 1.607v12.7a1.607 1.607 0 0 1-1.607 1.607zm-49.585-3.213h47.978v-9.491h-47.978z" transform="translate(-2498.394 -2406.356)" style="fill:#390075"/>
                </g>
                <g data-name="Group 283">
                    <path data-name="Path 270" d="M2833.136 2683.888h-21.3a1.607 1.607 0 0 1-1.607-1.607v-12.7a1.607 1.607 0 0 1 1.607-1.607h21.3a1.607 1.607 0 0 1 1.607 1.607v12.7a1.607 1.607 0 0 1-1.607 1.607zm-19.692-3.213h18.085v-9.491h-18.085z" transform="translate(-2646.218 -2406.356)" style="fill:#390075"/>
                </g>
                <g data-name="Group 284">
                    <path data-name="Path 271" d="M2730.154 2835.7h-44.467a1.607 1.607 0 0 1-1.607-1.607v-26.157a1.607 1.607 0 0 1 1.607-1.607h44.467a1.607 1.607 0 0 1 1.607 1.607v26.157a1.607 1.607 0 0 1-1.607 1.607zm-42.86-3.214h41.253v-22.943h-41.253z" transform="translate(-2531.651 -2532.011)" style="fill:#390075"/>
                </g>
                <g data-name="Group 287">
                    <g data-name="Group 285">
                        <path data-name="Rectangle 9" style="fill:#e62036" d="M0 0h14.573v26.157H0z" transform="translate(168.982 275.925)"/>
                    </g>
                    <g data-name="Group 286">
                        <path data-name="Path 272" d="M2864.647 2835.7h-17.787v-29.37h17.787zm-14.573-3.214h11.359v-22.943h-11.359z" transform="translate(-2679.485 -2532.011)" style="fill:#390075"/>
                    </g>
                </g>
                <g data-name="Group 288" style="opacity:.6">
                    <path data-name="Path 273" d="M2981.281 2920.877a2.011 2.011 0 0 1-2.011-2.011v-14.455a2.011 2.011 0 0 1 2.011-2.011 2.011 2.011 0 0 1 2.011 2.011v14.456a2.01 2.01 0 0 1-2.011 2.01z" transform="translate(-2799.736 -2619.26)" style="fill:#fff"/>
                </g>
                <g data-name="Group 289">
                    <path data-name="Path 274" d="M2863.04 2835.7h-14.573a1.607 1.607 0 0 1-1.607-1.607v-26.157a1.607 1.607 0 0 1 1.607-1.607h14.573a1.607 1.607 0 0 1 1.607 1.607v26.157a1.607 1.607 0 0 1-1.607 1.607zm-12.967-3.214h11.359v-22.943h-11.359z" transform="translate(-2679.485 -2532.011)" style="fill:#390075"/>
                </g>
                <g data-name="Group 290" style="opacity:.2">
                    <path data-name="Path 275" d="M2746.039 2823.811v4.814h-20.1a3.341 3.341 0 0 0-3.342 3.341v18.714h-5.895v-22.055h-4.455a2.974 2.974 0 0 0-2.973 2.973v18.368h-7.709v-26.156h44.469z" transform="translate(-2547.535 -2547.886)" style="fill:#390075"/>
                </g>
            </g>
        </g>
        <g data-name="Group 374">
            <path data-name="Path 590" d="M528.031 818.913c-.756.369-1.518.717-2.286 1.054a23.832 23.832 0 0 0 3.069-6.939.735.735 0 0 0-1.218-.709c-2.615 2.529-4.165 6.456-5.93 9.6-.5.892.352 2.309 1.447 1.881s2.186-.9 3.258-1.389a31.244 31.244 0 0 1-1.784 3.457c-.981 1.628-2.469 3.122-2.942 4.984-.139.546.4 1.268 1.014 1.014 3.97-1.65 6.091-7.768 7.148-11.59a1.224 1.224 0 0 0-1.776-1.363z" transform="translate(-277.938 -754.089)" style="fill:#f03561"/>
            <path data-name="Path 591" d="M438.815 826.407c-10.614 4.017-21.183 5.415-32.494 5.468a3.716 3.716 0 0 0-3.677 3.678 237.185 237.185 0 0 1-.359 30.339c-.081 1.006-.177 2.01-.273 3.015-4.166-1.776-9.4.017-12.057 4.215-4.252 6.723.378 18.39 7.612 21.163 11.215 4.3 13.157-21.242 13.09-40.23 8.453-2.011 16.62-4.917 25.166-6.691.053 3.276.1 6.552.179 9.827.008.37.025.743.036 1.115a11.059 11.059 0 0 0-12.1 3.932c-4.486 6-2.978 16.737 3.646 20.766 8.267 5.029 15.787-3.151 17-10.913 2.073-13.263.052-28.054-.2-41.442-.051-2.628-2.808-5.287-5.569-4.242z" transform="translate(-207.648 -761.513)" style="fill:#fde027"/>
            <g data-name="Group 371">
                <path data-name="Path 592" d="M546.267 891.958c-1.659-1.439-4.21-1.606-6.326-1.867-2.164-.267-4.621-.706-6.77-.178-.756.186-1.2 1.289-.417 1.773 1.919 1.18 4.36 1.539 6.545 1.952 2.2.417 4.669 1.044 6.793.129a1.065 1.065 0 0 0 .175-1.809z" transform="translate(-283.648 -795.02)" style="fill:#00b6aa"/>
                <path data-name="Path 593" d="M552.333 918.163a1.008 1.008 0 0 0 .751-1.412c-1.2-2.013-3.931-3.1-5.918-4.188-1.059-.582-2.1-1.254-3.211-1.741a6.082 6.082 0 0 0-3.186-.809.59.59 0 0 0-.435.818 6.143 6.143 0 0 0 2.266 2.5 32.21 32.21 0 0 0 3.167 2.036c1.909 1.176 4.252 2.872 6.566 2.796z" transform="translate(-287.845 -805.746)" style="fill:#00b6aa"/>
                <path data-name="Path 594" d="M532.546 935.635c-.72-.88-1.634-1.554-2.359-2.423-.782-.938-1.763-1.73-2.6-2.632a33.283 33.283 0 0 1-2.221-2.748c-.33-.441-.651-.883-.972-1.331a2.657 2.657 0 0 0-1.351-.947c-.487-.238-.931.2-1.029.629a2.281 2.281 0 0 0 .066 1.772 13.324 13.324 0 0 0 .926 1.829 18.163 18.163 0 0 0 2.421 3.121 11 11 0 0 0 6.656 3.588.532.532 0 0 0 .463-.858z" transform="translate(-278.122 -813.924)" style="fill:#00b6aa"/>
            </g>
            <g data-name="Group 372">
                <path data-name="Path 595" d="M414.329 885.078a1.949 1.949 0 0 0-1.082 2.252 10.589 10.589 0 0 0-.3 1.837c-.264 2.561-.418 5.13-.593 7.7-.346 5.083-.467 10.246-1.12 15.3-.5 3.842-1.857 8.339-5.6 10.217a6.693 6.693 0 0 1-4.819.358 13.226 13.226 0 0 1-2.48-.916c-.153-.078-.3-.16-.435-.242a12.379 12.379 0 0 0 4.715 3.4c11.215 4.3 13.157-21.242 13.09-40.23l1.649-.4a5.647 5.647 0 0 0-3.025.724z" transform="translate(-212.703 -792.209)" style="fill:#f7931e"/>
                <path data-name="Path 596" d="M488.979 872.278c2.073-13.263.052-28.054-.2-41.442a4.819 4.819 0 0 0-3.232-4.306c-.093 1.765.055 3.573.075 5.319q.041 3.657.053 7.314.023 7.034-.064 14.067c-.058 4.734-.059 9.486-.306 14.215a16.443 16.443 0 0 1-7.723 13.6 18.411 18.411 0 0 1-2.642 1.491c-.812.353-1.677.578-2.488.928 8.077 4.444 15.337-3.571 16.527-11.186z" transform="translate(-252.041 -761.702)" style="fill:#f7931e"/>
            </g>
            <g data-name="Group 373">
                <path data-name="Path 597" d="M399.095 923.667a6.509 6.509 0 0 0-3.9 8.58.962.962 0 0 0 .405.759 1.213 1.213 0 0 0 1.813-.081 1.358 1.358 0 0 0 .336-.492l2.918-7.2c.359-.895-.714-1.854-1.572-1.566z" transform="translate(-211.017 -812.936)" style="fill:#ffed9f"/>
                <path data-name="Path 598" d="M471.4 897.9a9.076 9.076 0 0 0-6.409 11.578 1.278 1.278 0 0 0 .523.667 1.2 1.2 0 0 0 1.621-.1 1.031 1.031 0 0 0 .374-.6l5.329-9.667a1.29 1.29 0 0 0-1.438-1.878z" transform="translate(-247.856 -799.347)" style="fill:#ffed9f"/>
                <path data-name="Path 599" d="m449.147 840.661-18.381 4.139a1.135 1.135 0 0 0-.536.184l-.029.02a1.187 1.187 0 0 0-.4 1.44 1.21 1.21 0 0 0 1.163.89 38.725 38.725 0 0 0 19.172-4.348c1.32-.686.375-2.632-.989-2.325z" transform="translate(-229.484 -769.141)" style="fill:#ffed9f"/>
            </g>
        </g>
        <g data-name="Group 343">
            <g data-name="Group 339">
                <path data-name="Path 411" d="M1725.81 257.321c2.063 1.865 4.711 4.526 7.633 4.682a1.114 1.114 0 0 0 1.052-1.6c-1.343-2.4-4.325-3.9-6.327-5.727-2.15-1.964-3.966-4.192-6.581-5.532a.555.555 0 0 0-.839.568c.544 3.16 2.734 5.505 5.062 7.609z" transform="translate(-1514.26 12.09)" style="fill:#fde027"/>
                <path data-name="Path 412" d="M1727.691 312.172c2.369-.182 4.663-.362 6.717-1.644a.729.729 0 0 0-.092-1.32c-2.284-1.014-4.67-.832-7.116-.675-1.981.127-4.468-.111-5.9 1.456a1.025 1.025 0 0 0 .108 1.584c1.692 1.395 4.248.755 6.283.599z" transform="translate(-1514.417 -28.091)" style="fill:#fde027"/>
                <path data-name="Path 413" d="M1733.2 329.516c-3.351 1.873-5.646 5.429-8.251 8.171-2.036 2.144-5.948 4.678-6.23 7.832a.609.609 0 0 0 .566.639c3.342.079 6.278-4.041 8.323-6.259 2.543-2.757 5.692-5.763 6.6-9.512.128-.565-.42-1.202-1.008-.871z" transform="translate(-1512.888 -42.32)" style="fill:#fde027"/>
                <path data-name="Path 414" d="M2025.27 230.909c3.638-2.081 6.5-5.571 9.333-8.6s5.965-6.241 7.651-10.069a.756.756 0 0 0-1.065-.985c-3.577 2.168-6.4 5.586-9.2 8.636s-6.13 6.027-8.139 9.7a1.008 1.008 0 0 0 1.42 1.318z" transform="translate(-1719.417 37.775)" style="fill:#fde027"/>
                <path data-name="Path 415" d="M2044.229 279.977c-3.129-.55-6.522.485-9.619 1-3.167.521-6.681.349-9.554 1.873a1.09 1.09 0 0 0 .074 1.869c3.213 1.512 7.177.7 10.563.108 3.124-.547 6.608-1.264 8.937-3.537a.8.8 0 0 0-.401-1.313z" transform="translate(-1719.985 -8.732)" style="fill:#fde027"/>
                <path data-name="Path 416" d="M2027.083 319.185c-2.251-1.283-4.335-2.848-6.635-4.041-1.1-.572-2.567.781-1.732 1.874 3.134 4.1 8.719 7.406 13.923 7.243a.632.632 0 0 0 .4-1.083 35.212 35.212 0 0 0-5.956-3.993z" transform="translate(-1715.859 -32.558)" style="fill:#fde027"/>
            </g>
            <g data-name="Group 342">
                <path data-name="Path 417" d="M1830.968 280.852c-1.256-21.46-2.821-76.483-2.814-82.512 0-.95-.722-2.117-1.818-2.05-17.107 1.037-34.2 1.167-51.331.963-.99-.012-2.231.767-2.152 1.908.361 5.2-3.97 75.53-4.3 80.807a1.969 1.969 0 0 0 2.342 2.018c14.966-2.173 53.743.005 57.977.721a1.977 1.977 0 0 0 2.096-1.855z" transform="translate(-1546.636 47.829)" style="fill:#d80043"/>
                <path data-name="Path 418" d="M1838.2 287.333c-.795-18.308-1.322-36.627-1.487-54.969-.046-5.143-.113-10.292-.068-15.437.007-.811-.524-1.8-1.34-1.738-12.75 1-25.484 1.22-38.244 1.158a1.65 1.65 0 0 0-1.616 1.642 121.863 121.863 0 0 1-.087 13.361q-.241 2.677-.434 5.361c-.368 3.5-.842 6.994-1.046 10.511a1.3 1.3 0 0 0 .291.938l-.082 1.258q-.791 12.024-1.541 24.05l-.831 13.518a1.52 1.52 0 0 0 1.732 1.707 121.306 121.306 0 0 1 33.689-1.151q4.77.5 9.494 1.386c.722.135 1.607-.753 1.57-1.595z" transform="translate(-1562.317 35.033)" style="fill:#ff5582"/>
                <path data-name="Path 419" d="M1856.8 145.308c-10-1.306-41.939-1.985-46.816-1.45-4.78.524-25.236 17.575-25.475 18.165a2.414 2.414 0 0 1 1.3-.395c17.13.2 34.224.075 51.332-.963 1.1-.067 1.818 1.1 1.817 2.05v.68c1.393-1.051 2.685-2.251 4-3.38q6.512-5.574 13.044-11.124c1.231-1.046 2.241-3.391.798-3.583z" transform="translate(-1557.439 83.455)" style="fill:#f03561"/>
                <g data-name="Group 340">
                    <path data-name="Path 420" d="M1950.166 463.081a1.967 1.967 0 0 0 .405.066z" transform="translate(-1669.609 -132.822)" style="fill:#af176e"/>
                    <path data-name="Path 421" d="M1970.542 149.664c-.131-1.5-2.093-1.793-3.069-1.011a181.51 181.51 0 0 0-17.1 15.364 2.27 2.27 0 0 1 .9 1.784c-.007 6.028.135 12.061.25 18.089.406 21.239.9 44.234 2.13 65.441 4.452-4.295 9.326-10.338 13.769-14.642a12.623 12.623 0 0 0 2.866-3.516c.719-1.529.95-73.52.254-81.509z" transform="translate(-1669.748 80.368)" style="fill:#af176e"/>
                </g>
                <path data-name="Path 422" d="M1845.391 317.046a17.419 17.419 0 0 0-9.33-8.988 18.056 18.056 0 0 0-6.585-1.233c-14.278-.186-16.428 11.553-17.718 16.624-2 7.845.9 17.05 7.4 22.015 7.515 5.741 17.53.026 22.761-6.165a21.247 21.247 0 0 0 3.472-22.253z" transform="translate(-1575.468 -27.016)" style="fill:#af176e"/>
                <path data-name="Path 423" d="M1849.5 224.486a9.933 9.933 0 0 0-8.694-3.4 10.767 10.767 0 0 0-4.54 1.8 11.784 11.784 0 0 0-3.285 3.547 1.032 1.032 0 0 0-.175.712 10.81 10.81 0 0 0-2.664 4.91 12.023 12.023 0 0 0 15.72 13.473 10.276 10.276 0 0 0 5.287-5.184c2.396-4.861 2.046-11.71-1.649-15.858z" transform="translate(-1588.166 31.092)" style="fill:#af176e"/>
                <path data-name="Path 424" d="M1843.263 324.568a11.011 11.011 0 0 0-10.335 2.3c-1.859 1.677-3.911 4.762-4.1 7.619a20.562 20.562 0 0 0-1.029 7.017c.041 3.238.486 6.658 2.535 9.293a9.274 9.274 0 0 0 9.283 3.126c6.745-1.356 11.971-7.887 13-14.485a13.218 13.218 0 0 0-9.354-14.87z" transform="translate(-1586.75 -38.748)" style="fill:#d80043"/>
                <path data-name="Path 425" d="M1838.084 354.12a10.791 10.791 0 0 0 1.533-.191c.228-.046.454-.1.678-.156l-1.35-1.5.49-.638q.83-1.071 1.666-2.138c.362.42.722.842 1.089 1.259.49.557.985 1.108 1.478 1.662a15.863 15.863 0 0 0 1.487-.938c-.5-.58-.992-1.159-1.483-1.743q-.713-.848-1.428-1.693 1.346-1.71 2.7-3.413c.407.5.813 1.008 1.225 1.507.688.83 1.376 1.682 2.076 2.531a18.974 18.974 0 0 0 1.184-1.511c-.633-.749-1.262-1.5-1.87-2.253q-.711-.885-1.42-1.771 1.172-1.467 2.347-2.93c.292.355.583.713.878 1.067q1 1.205 2.017 2.406a18.282 18.282 0 0 0 .742-2.056c-.355-.421-.712-.84-1.064-1.264q-.686-.824-1.367-1.652l2.376-2.949c.227.268.457.533.685.8a13.65 13.65 0 0 0-.906-4.143q-1.452-1.73-2.888-3.473c-.308-.375-.613-.752-.92-1.128l.343-.44a12.657 12.657 0 0 0-1.427-1.11l-.085.107c-.09-.112-.178-.226-.269-.339a12.486 12.486 0 0 0-3.34-1.45c-.055-.015-.109-.025-.164-.039q1.273 1.686 2.572 3.352-1.157 1.473-2.3 2.954-1.443-1.853-2.849-3.734 1-1.356 2.014-2.7a11.912 11.912 0 0 0-2.269-.241l-.508.686c-.153.206-.3.414-.457.62l-.877-1.181a10.879 10.879 0 0 0-1.895.465q.817 1.126 1.648 2.24-1.094 1.491-2.179 2.989-1.293-1.76-2.562-3.537c-.171.136-.34.277-.5.425a14.171 14.171 0 0 0-3.455 4.965q.367-.537.736-1.073 1.083-1.568 2.209-3.106 1.274 1.865 2.574 3.712-1.51 2.1-3 4.2-1.336-1.679-2.661-3.365a8.622 8.622 0 0 0-.483 2.074c.7.923 1.4 1.846 2.109 2.761q-1.279 1.824-2.543 3.66c-.2-.214-.4-.426-.592-.64-.021.486-.031.969-.025 1.444a26.978 26.978 0 0 0 .206 3.149l.555-.793q1.366 1.486 2.735 2.968-.936 1.282-1.864 2.571a9.915 9.915 0 0 0 .9 1.4c.04.052.084.1.125.148q1.031-1.4 2.064-2.794c.678.732 1.353 1.466 2.035 2.194l2 2.133q-.548.721-1.094 1.444a10.076 10.076 0 0 0 2.068.209l.255-.338zm2.968-7.489q-1.964-2.326-3.9-4.673 1.408-1.866 2.827-3.723 1.861 2.486 3.787 4.922-1.366 1.734-2.714 3.475zm5.778-17.27c.182.23.362.461.544.69q1.714 2.151 3.478 4.26-1.194 1.451-2.377 2.911-1.994-2.435-3.951-4.9 1.151-1.482 2.307-2.96zm-3.45 4.442q1.923 2.478 3.894 4.917c-.255.319-.511.636-.765.955-.521.655-1.037 1.315-1.556 1.972q-1.94-2.434-3.848-4.892 1.134-1.478 2.276-2.955zm-3.977-5.175q1.409 1.856 2.826 3.69-.5.644-.992 1.288-.639.833-1.276 1.667-1.39-1.814-2.754-3.647 1.093-1.503 2.193-2.997zm-5.8 8.014q1.282-1.8 2.582-3.595 1.31 1.835 2.646 3.651l.023.031q-1.443 1.894-2.876 3.8-1.371-1.685-2.729-3.381.174-.255.351-.506zm-1.09 8.532q-1.381-1.509-2.764-3.016 1.224-1.765 2.452-3.526 1.313 1.672 2.649 3.328l.027.033q-1.189 1.587-2.366 3.181zm3.522 3.871c-.762-.845-1.531-1.684-2.3-2.525.284-.383.566-.768.851-1.15.482-.648.971-1.292 1.456-1.938q1.913 2.353 3.866 4.674-1.09 1.412-2.172 2.829z" transform="translate(-1586.751 -38.76)" style="fill:#af176e"/>
                <path data-name="Path 426" d="M1858.049 246.38a7.488 7.488 0 0 0-9.685-2.572 6.481 6.481 0 0 0-3.109 4.34 5.382 5.382 0 0 0 .471 3.748 4.87 4.87 0 0 0 .555 1.1c1.892 2.8 5.995 3.4 8.89 1.922 3.129-1.601 4.894-5.369 2.878-8.538z" transform="translate(-1598.482 16.23)" style="fill:#d80043"/>
                <path data-name="Path 427" d="m1858.706 249.492.2-.251a5.207 5.207 0 0 0-.317-1.759c-.255.312-.512.623-.766.937q-1.444-1.763-2.86-3.547l.638-.82a7.892 7.892 0 0 0-1.217-.583l-.26.334c-.144-.185-.284-.374-.427-.56a7.626 7.626 0 0 0-1.853-.276q.728.953 1.456 1.9l-.718.932-.924 1.207q-1.006-1.314-1.994-2.64c.323-.445.649-.887.974-1.331a6.47 6.47 0 0 0-2.276.779 6.138 6.138 0 0 0-.387.243l.086.124q-1.093 1.517-2.171 3.044l-.249-.315a6.76 6.76 0 0 0-.388 1.244 6.45 6.45 0 0 0-.026 2.45l.812-1.167q.951 1.21 1.917 2.409l.02.024q-.632.845-1.259 1.694a5.788 5.788 0 0 0 .961.87l.089-.12c.349-.469.7-.935 1.054-1.4q1.129 1.389 2.28 2.762a7.688 7.688 0 0 0 2.887-.279l1.277-1.614.6.736a7.263 7.263 0 0 0 1.051-.842l-.785-.979q.849-1.062 1.7-2.121c.212.257.422.516.635.772l.02.025a5.7 5.7 0 0 0 .4-1.66zm-9.932 1.318q-.992-1.22-1.976-2.447l.257-.364q.928-1.306 1.869-2.6.949 1.328 1.915 2.643l.017.023q-1.044 1.368-2.082 2.745zm3.676 4.421q-1.422-1.684-2.826-3.383 1.019-1.351 2.046-2.7 1.347 1.8 2.742 3.563-.985 1.259-1.962 2.52zm3.951-5.036c-.377.474-.75.952-1.126 1.428q-1.4-1.762-2.786-3.542.821-1.07 1.648-2.137 1.391 1.793 2.819 3.559l-.556.692z" transform="translate(-1598.483 16.222)" style="fill:#af176e"/>
                <g data-name="Group 341">
                    <path data-name="Path 428" d="M1934.89 204.94a1.877 1.877 0 0 0-1.317.455 2.024 2.024 0 0 0-.61 1.253 1.84 1.84 0 0 0 .455 1.317 1.82 1.82 0 0 0 2.57.155 2.025 2.025 0 0 0 .609-1.253 1.838 1.838 0 0 0-.455-1.317 1.89 1.89 0 0 0-1.252-.61z" transform="translate(-1657.961 41.973)" style="fill:#af176e"/>
                    <path data-name="Path 429" d="M1790.058 210.226a1.523 1.523 0 0 0-1.067.369 1.474 1.474 0 0 0-.125 2.081 1.474 1.474 0 0 0 2.081.125 1.474 1.474 0 0 0 .125-2.081 1.533 1.533 0 0 0-1.014-.494z" transform="translate(-1560.14 38.393)" style="fill:#af176e"/>
                    <path data-name="Path 430" d="M1776.387 445.686a1.415 1.415 0 0 0-.992.343 1.372 1.372 0 0 0-.116 1.937 1.372 1.372 0 0 0 1.937.117 1.372 1.372 0 0 0 .117-1.937 1.425 1.425 0 0 0-.946-.46z" transform="translate(-1550.957 -121.042)" style="fill:#8e0456"/>
                    <path data-name="Path 431" d="M1940.155 438.349c.074-.009.147-.015.219-.017.012-.006-.043-.004-.219.017z" transform="translate(-1662.831 -116.062)" style="fill:#af176e"/>
                    <path data-name="Path 432" d="M1941.884 444.6a2.539 2.539 0 0 1-.327.053 2.055 2.055 0 0 0-.241-.039 1.365 1.365 0 0 0-1.153 2.265c.049.057.432.5.591.5l-.151-.135.306.267a2.089 2.089 0 0 0 .567.252 1.652 1.652 0 0 0 2.156-1.446 1.684 1.684 0 0 0-.408-1.181 1.622 1.622 0 0 0-1.34-.536z" transform="translate(-1662.608 -120.306)" style="fill:#af176e"/>
                    <path data-name="Path 433" d="M1966.068 434.337a1.165 1.165 0 0 0-.817.282 1.129 1.129 0 0 0 .681 1.971 1.165 1.165 0 0 0 .816-.282 1.129 1.129 0 0 0-.681-1.971z" transform="translate(-1679.569 -113.358)" style="fill:#8e0456"/>
                    <path data-name="Path 434" d="M1960.5 197.273a1.286 1.286 0 0 0-.154 2.565 1.286 1.286 0 0 0 .154-2.565z" transform="translate(-1675.713 47.164)" style="fill:#8e0456"/>
                    <path data-name="Path 435" d="M1998.761 164.89a1.283 1.283 0 0 0-.458-.306 1.073 1.073 0 0 0-.837.059l-.3.2a1.18 1.18 0 0 0-.511.906 1.078 1.078 0 0 0 1 1.125 1.168 1.168 0 0 0 .961-.4l.239-.274.124-.251a.819.819 0 0 0 .045-.428 1.025 1.025 0 0 0-.263-.631z" transform="translate(-1701.087 69.335)" style="fill:#8e0456"/>
                    <path data-name="Path 436" d="M2002.49 394.325a1.351 1.351 0 0 0-1.907-.115 1.351 1.351 0 0 0-.115 1.907 1.351 1.351 0 0 0 1.907.115 1.351 1.351 0 0 0 .115-1.907z" transform="translate(-1703.441 -85.958)" style="fill:#8e0456"/>
                    <path data-name="Path 437" d="M1806.127 188.353a1.162 1.162 0 0 0-.139 2.319 1.162 1.162 0 0 0 .139-2.319z" transform="translate(-1571.27 53.204)" style="fill:#ff5582"/>
                    <path data-name="Path 438" d="M1860.692 147.12a1.208 1.208 0 0 0-.846.292 1.17 1.17 0 0 0-.1 1.651 1.17 1.17 0 0 0 1.651.1 1.17 1.17 0 0 0 .1-1.651 1.215 1.215 0 0 0-.805-.392z" transform="translate(-1608.187 81.123)" style="fill:#ff5582"/>
                    <path data-name="Path 439" d="M1944.429 182.64a.886.886 0 0 0-1.5-.09l-.133.169a1.015 1.015 0 1 0 1.749.1z" transform="translate(-1664.49 57.386)" style="fill:#ff5582"/>
                    <path data-name="Path 440" d="M1979.755 150.972a1.164 1.164 0 0 0-.816.282 1.128 1.128 0 0 0 .681 1.971 1.164 1.164 0 0 0 .817-.282 1.128 1.128 0 0 0-.681-1.971z" transform="translate(-1688.836 78.514)" style="fill:#ff5582"/>
                </g>
            </g>
        </g>
        <g data-name="Group 360">
            <path data-name="Path 551" d="M2236.145 675.979a24.82 24.82 0 0 0 6.069-4.263c1.135-1.082-.375-2.986-1.556-1.91-.353.322-.714.622-1.083.906a693.02 693.02 0 0 0 3.91-6.379c.945-1.565 2.047-3.171 3.06-4.824.277.112.558.22.843.336.7.286 1.33.829 2.114.762a.7.7 0 0 0 .526-.962 1.773 1.773 0 0 0-.854-.939 1.839 1.839 0 0 0 1.306-.322.772.772 0 0 0-.039-1.207c-.5-.442-1.309-.293-1.931-.3-.162 0-.326 0-.49.008a18.429 18.429 0 0 0 1.166-2.85c.185-.606-.557-1.3-1.093-.785a17.966 17.966 0 0 0-1.719 1.927l-.02-.046a11.89 11.89 0 0 0-1.169-2.338.892.892 0 0 0-1.52.3.752.752 0 0 0-.877.631 5.774 5.774 0 0 0 .574 2.717 12.5 12.5 0 0 0 .775 2.024c-.915 1.5-1.77 3.028-2.655 4.438a699.48 699.48 0 0 0-4.049 6.557c-.006-.373-.046-.871-.275-.75a1.562 1.562 0 0 0 .322-.691l.013-.057c.247-1.057-1.294-1.809-2.046-1.1-.865.812-.65 1.575-.583 2.681a18.376 18.376 0 0 1-.482 5.151 1.268 1.268 0 0 0 1.763 1.285z" transform="translate(-1931.146 -509.046)" style="fill:#976eff"/>
            <path data-name="Path 552" d="M2207.395 571.56c-3.442-2.711-5.764-1.735-9.783-2.1a12.156 12.156 0 0 0-2.151.621q-7-1.338-6.889-5.788a44.937 44.937 0 0 0-2.717-6.916c-1.8-3.416-8.552-2.639-9.272.262-2.69 10.841-2.217 21.992-2.8 33.109-.121 2.3-.3 4.6-.548 6.888-6.756-2.456-14.991 1.721-16.729 6.43-2.024 5.48-1.331 16.784 11.026 17.2 14.614.492 14.784-16.207 15.571-22.909.949-8.09.924-16.282 1.4-24.416a16.418 16.418 0 0 0 8.363 3.377c6.306.924 7.433-2.653 6.963 3.1-.351 4.3-1.872 7.9 2.32 11.826a2.744 2.744 0 0 0 2.745.415c6.463-3.32 9.015-15.969 2.501-21.099z" transform="translate(-1886.337 -453.63)" style="fill:#f03561"/>
            <path data-name="Path 553" d="M2166.266 587.221c-.055.035-.111.065-.166.1a145.671 145.671 0 0 0 3.336-6.053c.365-.7-.056-1.741-.829-1.7a14.379 14.379 0 0 0-1.735.187 73.3 73.3 0 0 0 4.006-6.875 1.127 1.127 0 0 0-1.114-1.7 15.093 15.093 0 0 0-5 1.252.655.655 0 0 0 .111 1.126 8.44 8.44 0 0 0 2.942.123c-1.615 2.453-3.169 5-4.629 7.543a1.155 1.155 0 0 0 1.438 1.683 9.776 9.776 0 0 1 1.969-.78c-1.406 2.451-2.853 4.871-4.284 7.3a1.113 1.113 0 0 0 1.386 1.622c.2-.112.393-.234.59-.349a56.446 56.446 0 0 0-4.581 10.153.811.811 0 0 0 1.447.72c2.619-3.771 4.412-8.677 6.316-12.943.391-.869-.369-1.941-1.203-1.409z" transform="translate(-1888.628 -462.759)" style="fill:#00ccb8"/>
            <path data-name="Path 554" d="M2130.256 692.056a5.442 5.442 0 0 0-4.068 2.613 32.7 32.7 0 0 0-2.622-5.494.733.733 0 0 0-1.365.331 28.81 28.81 0 0 0-.18 7.492 15.524 15.524 0 0 0-2.776 1.61 1.547 1.547 0 0 0-.751 1.908c.693 1.492 2.8 1.612 4.448 1.243l-.422 4.353a.92.92 0 0 0 1.542.675 14.157 14.157 0 0 0 1.948-2.17 7 7 0 0 0 .792-1.258c.077-.09.136-.166.186-.233.066.029.143.059.239.092a8.886 8.886 0 0 0 4.92 1.5.962.962 0 0 0 .7-1.608 17.992 17.992 0 0 0-2.309-2.547c-.3-.265-1.105-.8-1.187-1.231-.074-.387.4-1.184.546-1.545.7-1.708 1.373-3.2 1.164-5.082a.845.845 0 0 0-.805-.649z" transform="translate(-1865.128 -529.719)" style="fill:#fde027"/>
            <g data-name="Group 359">
                <path data-name="Path 555" d="M2266.916 591.543a9.58 9.58 0 0 0-2.149-1.312c.078.176.157.352.234.53a15.016 15.016 0 0 1 1.045 7.122 28.487 28.487 0 0 1-2.124 8.31 22.512 22.512 0 0 1-1.808 2.656 12.473 12.473 0 0 1-1.908 1.718 10.653 10.653 0 0 0 1.459 1.66 2.744 2.744 0 0 0 2.745.415c6.468-3.32 9.02-15.969 2.506-21.099z" transform="translate(-1945.858 -473.613)" style="fill:#d80043"/>
                <path data-name="Path 556" d="M2184.894 623.261c.947-8.079.924-16.259 1.4-24.381a2.515 2.515 0 0 0-2.425 2.351c-.026 5.588.01 11.2-.378 16.775a79.2 79.2 0 0 1-1.009 8.438 38.243 38.243 0 0 1-1.971 7.827c-1.745 4.222-5.99 6.326-10.15 7.533-2.416.7-4.864 1.307-7.345.583a16.874 16.874 0 0 1-3.276-1.57c-.32-.173-.632-.369-.949-.547 1.613 3.191 4.83 5.706 10.538 5.9a16.116 16.116 0 0 0 3.327-.216 28.015 28.015 0 0 0 5.152-2.208c6.253-4.8 6.492-15.457 7.086-20.485z" transform="translate(-1888.132 -478.536)" style="fill:#d80043"/>
                <path data-name="Path 557" d="M2222.733 598.878a13.227 13.227 0 0 0 2.086 1.4c-.2-.231-.4-.459-.589-.688a1.905 1.905 0 0 0-1.497-.712z" transform="translate(-1924.529 -478.535)" style="fill:#d80043"/>
                <path data-name="Path 558" d="M2224.3 564.466a44.961 44.961 0 0 0-2.717-6.916 4.411 4.411 0 0 0-3.179-2.122 10.3 10.3 0 0 1 .177 1.315c.079 1.274-.046 2.554.046 3.826a8.738 8.738 0 0 0 3.853 6.859 8.978 8.978 0 0 0 4.969 1.653q-3.22-1.587-3.149-4.615z" transform="translate(-1922.065 -453.804)" style="fill:#d80043"/>
            </g>
            <path data-name="Path 559" d="M2168.646 658.4a7.3 7.3 0 0 0-4.571 1.326c-1.448 1.023-3.066 2.694-2.533 4.61a2.311 2.311 0 0 0 .15.389c.1 1.242 2.01 2.038 2.84.967l.067-.087.033-.012c.91-.388 1.167-1.371 1.917-1.946a3.168 3.168 0 0 1 2.1-.615c2.993.119 2.951-4.432-.003-4.632z" transform="translate(-1889.642 -512.408)" style="fill:#ff5582"/>
        </g>
    </g>
</svg>
