<svg xmlns="http://www.w3.org/2000/svg" width="135" height="136.553" viewBox="0 0 135 136.553">
    <defs>
        <clipPath id="iek5km2kma">
            <path data-name="Path 4" d="M206 155h44.755v31.532H206zm0 0" transform="translate(-206 -155)"/>
        </clipPath>
        <clipPath id="y14o6jqw0b">
            <path data-name="Path 3" d="m210.871 144.586 44 9.5-9.5 44-44-9.5zm0 0" transform="translate(-201.375 -144.586)"/>
        </clipPath>
        <clipPath id="ickfykm58c">
            <path data-name="Path 8" d="M206 156h43.738v29.5H206zm0 0" transform="translate(-206 -156)"/>
        </clipPath>
        <clipPath id="coiqqpyhqd">
            <path data-name="Path 12" d="M202 153h52.892v36.618H202zm0 0" transform="translate(-202 -153)"/>
        </clipPath>
        <clipPath id="9d5p5kmkze">
            <path data-name="Path 16" d="M202 153h51.875v35.6H202zm0 0" transform="translate(-202 -153)"/>
        </clipPath>
        <clipPath id="lvk03eyu3f">
            <path data-name="Path 20" d="M222 148h28.48v34.583H222zm0 0" transform="translate(-222 -148)"/>
        </clipPath>
        <clipPath id="ff3qco4j6g">
            <path data-name="Path 32" d="M163 213h35.6v12.039H163zm0 0" transform="translate(-163 -213)"/>
        </clipPath>
        <clipPath id="iiccay6ith">
            <path data-name="Path 35" d="M121.277 113h59.73v101.715h-59.73zm0 0" transform="translate(-121.277 -113)"/>
        </clipPath>
        <clipPath id="nc3ugtjmui">
            <path data-name="Path 72" d="M137 90.586h60.012v48.227H137zm0 0" transform="translate(-137 -90.586)" style="fill:#222e6a"/>
        </clipPath>
        <clipPath id="4q8wntf1qj">
            <path data-name="Path 78" d="M124 118h105.343v38.652H124zm0 0" transform="translate(-124 -118)"/>
        </clipPath>
    </defs>
    <g data-name="Happy ghost">
        <g data-name="Group 108">
            <g data-name="Group 3" transform="translate(86.176 65.519)" style="clip-path:url(#iek5km2kma)">
                <g data-name="Group 2" transform="translate(-4.704 -10.593)" style="clip-path:url(#y14o6jqw0b)">
                    <g data-name="Group 1" style="clip-path:url(#y14o6jqw0b)">
                        <path data-name="Path 1" d="m206.1 182.454 41.341-26.661c.612-.4 3.147 3.533 2.531 3.925l-41.337 26.665c-.617.398-3.148-3.535-2.535-3.929zm0 0" transform="translate(-201.296 -144.394)" style="fill:#39223f"/>
                    </g>
                </g>
            </g>
            <g data-name="Group 6" transform="translate(86.176 66.536)" style="clip-path:url(#ickfykm58c)">
                <g data-name="Group 5" transform="translate(-4.704 -11.61)" style="clip-path:url(#y14o6jqw0b)">
                    <g data-name="Group 4" style="clip-path:url(#y14o6jqw0b)">
                        <path data-name="Path 5" d="m247.964 156.539-41.37 26.681.894 1.39 41.373-26.685zm0 0" transform="translate(-201.285 -144.381)" style="fill:#5f4f61"/>
                    </g>
                </g>
            </g>
            <g data-name="Group 9" transform="translate(82.108 63.485)" style="clip-path:url(#coiqqpyhqd)">
                <g data-name="Group 8" transform="translate(-.636 -8.558)" style="clip-path:url(#y14o6jqw0b)">
                    <g data-name="Group 7" style="clip-path:url(#y14o6jqw0b)">
                        <path data-name="Path 9" d="m253.773 155.777-.417-.647-.679-1.057a1.218 1.218 0 0 0-.282-.291 1.313 1.313 0 0 0-1.55-.1l-3.306 2.133.5.779.9 1.386 1.137 1.761 3.306-2.134a1.318 1.318 0 0 0 .391-1.83zm-46.208 28.886-.894-1.39-.5-.779-3.473 2.241a1.4 1.4 0 0 0-.4 1.828l.684 1.057.417.648a1.319 1.319 0 0 0 1.828.393l3.477-2.237zm0 0" transform="translate(-201.363 -144.434)" style="fill:#dac9db"/>
                    </g>
                </g>
            </g>
            <g data-name="Group 12" transform="translate(82.108 63.485)" style="clip-path:url(#9d5p5kmkze)">
                <g data-name="Group 11" transform="translate(-.636 -8.558)" style="clip-path:url(#y14o6jqw0b)">
                    <g data-name="Group 10" style="clip-path:url(#y14o6jqw0b)">
                        <path data-name="Path 13" d="m248.937 157.973 4.418-2.848-.679-1.057a1.219 1.219 0 0 0-.282-.291l-4.354 2.809zm-42.267 25.294-4.522 2.916a1.412 1.412 0 0 0 .147.377l.684 1.053 4.585-2.956zm0 0" transform="translate(-201.362 -144.428)" style="fill:#fff"/>
                    </g>
                </g>
            </g>
            <g data-name="Group 15" transform="translate(102.451 58.399)" style="clip-path:url(#lvk03eyu3f)">
                <g data-name="Group 14" transform="translate(-20.979 -3.473)" style="clip-path:url(#y14o6jqw0b)">
                    <g data-name="Group 13" style="clip-path:url(#y14o6jqw0b)">
                        <path data-name="Path 17" d="m242.661 170.292 2.158-.306 1.39-2.678a.882.882 0 0 1 1.664.358l.164 3.016 1.835 1.168a.882.882 0 0 1-.349 1.617l-2.146.306-1.455 2.956a.881.881 0 0 1-1.672-.362l-.111-3.294-1.824-1.161a.884.884 0 0 1 .345-1.62M223.439 153.1l3.648-.52 1.978-3.107a1.46 1.46 0 0 1 2.678.58l.521 3.643 3.106 1.979a1.462 1.462 0 0 1-.58 2.681l-3.643.521-1.978 3.107a1.464 1.464 0 0 1-2.682-.581l-.521-3.648-3.106-1.978a1.46 1.46 0 0 1 .58-2.678m11.42 23.438 1.935-.274 1.045-1.645a.773.773 0 0 1 1.419.305l.278 1.932 1.645 1.049a.774.774 0 0 1-.305 1.419l-1.932.274-1.049 1.645a.774.774 0 0 1-1.419-.306l-.278-1.931-1.645-1.049a.759.759 0 0 1-.338-.815.773.773 0 0 1 .644-.6" transform="translate(-201.018 -144.514)" style="fill:#ff8856"/>
                    </g>
                </g>
            </g>
            <path data-name="Path 21" d="M208.531 166.59c1.072 4.3 2.423 8.467 5.53 11.852 1.939 2.234 6.032 1.665 7.954-.636.335 2.785-1.839 5.217-5.832 5.65-4.025.433-11.411-2-18.261-10.832zm0 0" transform="translate(-119.962 -89.282)" style="fill:#dac9db"/>
            <path data-name="Path 22" d="M213.882 178.463c-3.091-3.385-4.458-7.549-5.53-11.852l2.189-1.248c3.294 4.983 9.559 8.014 10.843 10.93a5.464 5.464 0 0 1 .437 1.534c-1.907 2.301-6 2.873-7.939.636zm0 0" transform="translate(-119.783 -89.303)" style="fill:#fff"/>
            <path data-name="Path 23" d="M210.244 165.707a15.868 15.868 0 0 0 1.892 2.464 33.146 33.146 0 0 0 2.17 2.186c1.505 1.366 3.127 2.6 4.577 3.917.353.331.7.664 1.02 1.013a6.412 6.412 0 0 1 .8 1.054c.047.083.083.182.13.265a2.5 2.5 0 0 1 .12.3 6.266 6.266 0 0 1 .182.616 3.856 3.856 0 0 1 .068 1.236 3.678 3.678 0 0 1-1.037 2.181 5.542 5.542 0 0 1-2.22 1.336 8.715 8.715 0 0 1-2.69.432 11.667 11.667 0 0 1-2.789-.365l-.688-.187-.684-.215-.334-.115-.334-.135-.671-.265c-.215-.083-.433-.2-.652-.3s-.433-.2-.651-.314l-.633-.35-.317-.167-.167-.083-.152-.1a29.229 29.229 0 0 1-4.7-3.516 43.505 43.505 0 0 1-4.06-4.3v-.015a.594.594 0 0 0-.934.734 39.187 39.187 0 0 0 4.025 4.617l1.136 1.05 1.188.981c.4.318.835.62 1.236.918.2.151.433.282.636.432l.652.418a20.425 20.425 0 0 0 5.73 2.5 13.491 13.491 0 0 0 3.175.432 10.322 10.322 0 0 0 3.242-.516 6.909 6.909 0 0 0 2.872-1.769 5.18 5.18 0 0 0 1.486-3.162 5.6 5.6 0 0 0-.115-1.753 8.429 8.429 0 0 0-.25-.834c-.052-.131-.1-.267-.167-.4a3.081 3.081 0 0 0-.219-.4 7.473 7.473 0 0 0-1.017-1.331 14.573 14.573 0 0 0-1.152-1.084c-.786-.684-1.574-1.3-2.356-1.935a61.933 61.933 0 0 1-2.309-1.9 23.149 23.149 0 0 1-4.009-4.247.622.622 0 0 0-1.038.682zm0 0" transform="translate(-119.971 -89.313)" style="fill:#775e82"/>
            <path data-name="Path 24" d="M217.907 133c1.37.719-.167 2.5-1.069 2.785-1.8.6-3.545 1.347-5.249 2.1a3.913 3.913 0 0 0 2.411 1.884c4.16.484 7.9-1.717 10.609-5.05a10.422 10.422 0 0 0 1.939-4.9 3.031 3.031 0 0 1 .684 1.366c.234 2.8-2.353 10.048-16.422 14.431h-.1c-2.339.5-1.807-2.249-2.339-4.764a43.729 43.729 0 0 0-3.676-10.732l1.769-.886c-.215-.015-.45-.047-.684-.063 4.088-.082 8.201 1.614 12.127 3.829zm0 0" transform="translate(-119.846 -89.924)" style="fill:#752b0b"/>
            <path data-name="Path 25" d="M148.924 146.021c-.119 1.467-.734 3.533-.568 4.931.067.6-.752 2.5-.652 3.068-.917-.1-2.138-1.748-3.06-2.03-.684-.219-1.418-.437-2.17-.684-3.909-1.284-8.356-3.235-9.205-7.7a145.018 145.018 0 0 0 15.655 2.415zm0 0" transform="translate(-121.071 -89.676)" style="fill:#752b0b"/>
            <path data-name="Path 26" d="M125.664 142.637c2.524 7.517 11.141 12.75 22.369 12.265-.167-.7-.334-1.5-.484-2.364a14.688 14.688 0 0 1-2.774-.552c-.684-.215-1.418-.433-2.17-.684-6.634.052-13.233-2.849-16.941-8.665zm0 0" transform="translate(-121.202 -89.693)" style="fill:#752b0b"/>
            <path data-name="Path 27" d="M159.367 175.145a40.059 40.059 0 0 1-8.554 9.647c-7.184 6.166-16.207 7.335-24.392 11.332-.369.186-.719.384-1.068.584.334-.266.683-.548 1.053-.85a58.964 58.964 0 0 0 10.926-11.6 8.149 8.149 0 0 0 3.79 1.315c3.944.419 11.478-1.93 18.245-10.428zm0 0" transform="translate(-121.207 -89.135)" style="fill:#dac9db"/>
            <path data-name="Path 28" d="M150.923 150.5a90.3 90.3 0 0 1-.2 1.251c-.886.115-1.772.183-2.674.234 1.021-10.632 3.643-35.647 30.761-37.082a28.57 28.57 0 0 1 26.231 13.669 33.138 33.138 0 0 1 3.206 7.1c-8.3-2.932-17.859-2.15-25.913 1.334-9.19 4-17.208 10-26.565 13.5a22.475 22.475 0 0 1-5.046 1.251c.069-.427.137-.844.2-1.257zm0 0" transform="translate(-120.818 -90.17)" style="fill:#dac9db"/>
            <path data-name="Path 29" d="M147.95 152.941c.052-.48.1-1.017.152-1.582.9-.036 1.788-.119 2.674-.234a48.585 48.585 0 0 1-5.7 16.731 81.032 81.032 0 0 0 2.874-14.915zm0 0" transform="translate(-120.869 -89.547)" style="fill:#dac9db"/>
            <path data-name="Path 30" d="M125.409 197.422c.349-.215.7-.4 1.068-.584 8.185-4 17.208-5.166 24.392-11.332a40.059 40.059 0 0 0 8.554-9.647c.119-.135.219-.266.338-.418-.119.152-.219.283-.338.418.219-.335.421-.668.636-1.017-.2.349-.417.682-.636 1.017-6.766 8.5-14.3 10.847-18.261 10.414a7.975 7.975 0 0 1-3.791-1.315 57.731 57.731 0 0 0 8-16.564c.016-.016.033-.052.048-.068-.015.016-.032.052-.048.068.016-.083.048-.167.068-.25a48.542 48.542 0 0 0 5.7-16.732 21.668 21.668 0 0 0 5.046-1.251c9.354-3.5 17.375-9.5 26.566-13.5 8.054-3.484 17.609-4.267 25.913-1.334 2.857 8.749 2.941 19.349 3.31 31.9.5 17.164 1.053 22 3.508 32 1.136 4.6 2.107 6.067 1.169 8.5-2.674 7-9.358 9-16.593 8.217-1.872-.2-3.723.548-5.98 2.634-6.85 6.333-12.865 7.831-21.054 5-5.313-1.832-5.344-4.831-9.019-3.668-8.221 2.619-14.737 3.652-20.053-.663-4.51-3.667-2.17-6.4-4.844-6.167-9.941.85-15.622-4.632-16.875-9-.833-3.107.667-4.593 3.176-6.658zm0 0" transform="translate(-121.265 -89.849)" style="fill:#fff"/>
            <g data-name="Group 16" transform="translate(42.439 124.514)" style="clip-path:url(#ff3qco4j6g)">
                <path data-name="Path 31" d="M164.629 219.257a2.287 2.287 0 0 1 1.538.365c.552.318 1.136.8 1.772 1.236a16.014 16.014 0 0 0 4.192 2.1 29.479 29.479 0 0 0 4.462 1.1 19.909 19.909 0 0 0 4.645.151l.584-.067a3.65 3.65 0 0 0 .584-.083l1.152-.219 1.12-.314c.187-.051.37-.119.552-.186l.552-.2a21.583 21.583 0 0 0 4.108-2.133c.167-.1.318-.215.485-.314l.938-.667c.151-.119.3-.235.449-.35l.9-.7.87-.735.835-.715a10.32 10.32 0 0 1 .838-.636 8.647 8.647 0 0 1 1.736-.965 1 1 0 1 0-.735-1.868c-.015.015-.052.015-.067.036a10.291 10.291 0 0 0-2.07 1.315c-.318.25-.62.5-.906.767l-.819.767-.8.73-.838.7c-.131.115-.266.23-.417.35l-.433.313-.433.318c-.151.115-.286.218-.436.317l-.9.6c-.3.183-.616.35-.934.532a4.566 4.566 0 0 1-.469.251l-.485.234-.484.231-.115.051-.12.048-.25.1-.5.182a3.111 3.111 0 0 1-.5.168l-1.021.3-1.038.2a2.784 2.784 0 0 1-.516.063l-.533.068a18.348 18.348 0 0 1-4.263-.167 26.762 26.762 0 0 1-4.176-1.117 14.432 14.432 0 0 1-1.922-.85 13.86 13.86 0 0 1-1.753-1.132c-.569-.433-1.12-.918-1.824-1.4l-.131-.083-.151-.083c-.1-.052-.2-.12-.3-.167a4.188 4.188 0 0 0-.667-.267 2.416 2.416 0 0 0-.35-.1l-.369-.052a2.819 2.819 0 0 0-.366-.015h-.369a1 1 0 1 0-.032 2h.1zm0 0" transform="translate(-162.992 -212.983)" style="fill:#222e6a"/>
            </g>
            <path data-name="Path 33" d="M139.343 212.744c.052 0 .052 0 .036-.016s-.019-.032.016.016a1.087 1.087 0 0 1 .115.266c.052.119.083.27.135.417a10.362 10.362 0 0 0 .751 1.9 8.524 8.524 0 0 0 1.188 1.7 11.089 11.089 0 0 0 1.455 1.382 14.424 14.424 0 0 0 3.373 2.067 13.365 13.365 0 0 0 3.81 1.017 19.046 19.046 0 0 0 3.895.067c.651-.052 1.283-.115 1.918-.215s1.271-.2 1.888-.318a67.946 67.946 0 0 0 3.711-.866 60.2 60.2 0 0 0 1.82-.485c.3-.083.62-.182.871-.234a7.357 7.357 0 0 1 .734-.1 1 1 0 1 0-.032-2h-.1a5.537 5.537 0 0 0-1.1.235c-.37.115-.62.215-.919.313-.588.2-1.172.4-1.756.585a43.04 43.04 0 0 1-3.56.965 21.312 21.312 0 0 1-7.168.552 15.113 15.113 0 0 1-1.736-.334 11.417 11.417 0 0 1-1.653-.584 12.083 12.083 0 0 1-2.941-1.884 11.42 11.42 0 0 1-1.22-1.232 6 6 0 0 1-.886-1.4 7.426 7.426 0 0 1-.521-1.6c-.032-.152-.083-.318-.131-.485a3.476 3.476 0 0 0-.234-.6 2.049 2.049 0 0 0-.585-.7 2.327 2.327 0 0 0-.838-.365h-.032a1 1 0 1 0-.4 1.966c.029-.046.065-.046.096-.03zm0 0" transform="translate(-120.983 -88.524)" style="fill:#222e6a"/>
            <g data-name="Group 17" transform="translate(0 22.799)" style="clip-path:url(#iiccay6ith)">
                <path data-name="Path 34" d="M179.222 113.919c-1.454.1-2.889.25-4.327.481a34.307 34.307 0 0 0-4.259.969 28.915 28.915 0 0 0-7.919 3.683 27.044 27.044 0 0 0-6.369 5.964 33.526 33.526 0 0 0-2.42 3.616 36.479 36.479 0 0 0-1.928 3.886 48.9 48.9 0 0 0-2.606 8.212 76.826 76.826 0 0 0-1.371 8.452c-.151 1.415-.282 2.833-.417 4.231l-.25 2.082-.135 1.053c-.032.35-.083.7-.146 1.033l-.338 2.066-.167 1.033-.215 1.032-.437 2.051-.048.25-.2.751-.266 1.013-.267 1.017c-.051.167-.083.334-.134.5l-.152.5-.615 2c-.052.167-.1.334-.152.5l-.182.484-.37.982-.365.986c-.068.167-.119.33-.187.481l-.2.484-.819 1.915c-.135.317-.286.636-.453.95l-.469.934-.465.933c-.067.152-.167.318-.25.466l-.25.453-1.021 1.832-1.121 1.768-.282.449-.135.215-.151.219-1.2 1.7-.3.433-.317.417-1.3 1.633c-.1.131-.218.266-.334.4l-.349.4-.688.782c-.235.267-.45.532-.684.783l-1.47 1.5c-.25.25-.485.5-.735.731l-1.538 1.434c-.135.115-.25.235-.385.35l-.4.334-1.605 1.367c-.266.234-.548.449-.819.667-.548.449-1.1.9-1.653 1.4a10.3 10.3 0 0 0-1.553 1.716 5.9 5.9 0 0 0-.585 1.117l-.1.3c-.036.1-.052.2-.083.314l-.068.317c-.015.1-.015.215-.036.318a6.731 6.731 0 0 0 .271 2.416 11.368 11.368 0 0 0 2.205 4 14.585 14.585 0 0 0 3.373 2.968 15.442 15.442 0 0 0 1.971 1.085 17.723 17.723 0 0 0 2.089.8 19.712 19.712 0 0 0 4.379.834c.735.048 1.486.083 2.221.064l.552-.016.552-.032.516-.033a1.494 1.494 0 0 1 .3.016 1 1 0 1 0 .417-1.951h-.083a2.834 2.834 0 0 0-.77-.032l-.533.032-.5.032-.5.02a16.263 16.263 0 0 1-2.019-.036 18.7 18.7 0 0 1-3.961-.7 12.586 12.586 0 0 1-1.872-.7 13.728 13.728 0 0 1-1.756-.934 13 13 0 0 1-3-2.567 9.516 9.516 0 0 1-1.891-3.365 5.043 5.043 0 0 1-.215-1.769 3.294 3.294 0 0 1 .569-1.581 8.921 8.921 0 0 1 1.267-1.434c.5-.45 1.036-.9 1.574-1.352.265-.23.548-.449.818-.682l1.638-1.4.4-.35c.131-.115.266-.25.4-.366l1.553-1.485a9.933 9.933 0 0 0 .751-.767l.752-.783.751-.767c.234-.267.469-.532.719-.8l.7-.815.35-.4c.119-.135.235-.266.35-.417l1.339-1.685.334-.413.318-.437.615-.882.62-.882.151-.219.152-.23.282-.454 1.136-1.816 1.037-1.883.265-.465a4.845 4.845 0 0 0 .251-.485l.937-1.931c.152-.318.318-.636.45-.97l.834-1.982.219-.5c.067-.167.119-.33.183-.5l.369-1 .365-1 .187-.5c.048-.163.1-.33.167-.517l.636-2.046.147-.517c.051-.167.083-.353.134-.52l.267-1.033.271-1.033.131-.516.067-.267.052-.266.433-2.1.218-1.053.167-1.05.35-2.114c.068-.353.1-.7.152-1.053l.134-1.065.251-2.118c.146-1.414.265-2.817.432-4.215a72.214 72.214 0 0 1 1.371-8.264c.317-1.352.667-2.7 1.1-4.033s.922-2.618 1.455-3.9a35.42 35.42 0 0 1 1.872-3.7 29.809 29.809 0 0 1 2.324-3.4 25.519 25.519 0 0 1 6.015-5.53 27.078 27.078 0 0 1 7.466-3.349 35.535 35.535 0 0 1 8.152-1.252 1 1 0 1 0-.1-2zm0 0" transform="translate(-121.279 -112.985)" style="fill:#222e6a"/>
            </g>
            <path data-name="Path 36" d="M196.706 217.656a4.481 4.481 0 0 1 1.688-.417h.433c.067 0 .151.02.219.02l.265.015c.366.033.735.064 1.085.083a22.981 22.981 0 0 0 4.394-.151 16.847 16.847 0 0 0 4.311-1.117 13.053 13.053 0 0 0 3.827-2.384 12.1 12.1 0 0 0 1.553-1.649 13.126 13.126 0 0 0 1.221-1.883l.25-.5.234-.5c.083-.167.152-.349.219-.516l.1-.266.1-.282a6.742 6.742 0 0 0 .287-1.185 5.988 5.988 0 0 0 .032-1.215 13 13 0 0 0-.433-2.233c-.183-.7-.386-1.367-.584-2.034s-.369-1.331-.536-2.015l-.5-2.034c-.651-2.717-1.235-5.451-1.62-8.2-.4-2.749-.668-5.531-.85-8.333s-.3-5.6-.421-8.4c-.1-2.8-.183-5.615-.266-8.431-.152-5.619-.282-11.265-.886-16.9a65.624 65.624 0 0 0-1.4-8.415 39.521 39.521 0 0 0-2.857-8.118l-.234-.48-.5-.969c-.083-.147-.183-.314-.266-.465l-.271-.469c-.083-.147-.2-.3-.282-.45l-.584-.913-.3-.453-.334-.433-.652-.867c-.119-.151-.219-.3-.334-.433l-.354-.417-.715-.815-.186-.2a2.073 2.073 0 0 1-.183-.2l-.385-.381-.767-.767c-.267-.25-.552-.485-.819-.719s-.552-.481-.818-.715l-.871-.652-.432-.334-.219-.167a2.653 2.653 0 0 0-.235-.146l-.917-.6-.453-.3c-.148-.1-.314-.183-.465-.267a30 30 0 0 0-8.054-3.25 31.4 31.4 0 0 0-8.654-.831.993.993 0 1 0 .083 1.983h.015a28.367 28.367 0 0 1 15.722 3.6 4.466 4.466 0 0 1 .45.25l.437.282.866.548c.067.052.152.083.219.135l.2.151.417.3.819.616c.266.219.517.449.783.667.25.219.52.433.77.667l.735.715.365.366.187.186.167.2.684.767.334.381c.119.134.219.265.318.4l.619.815.317.4.283.433.568.85c.1.152.2.283.283.433l.27.449c.083.152.183.3.266.454l.5.9.235.468a35.818 35.818 0 0 1 2.773 7.764 64.591 64.591 0 0 1 1.387 8.217c.6 5.551.751 11.165.917 16.783.067 2.813.151 5.615.254 8.431s.215 5.635.4 8.447.437 5.65.854 8.452c.4 2.817.969 5.6 1.605 8.348l.485 2.066c.167.7.35 1.382.532 2.066s.385 1.367.569 2.019a12.19 12.19 0 0 1 .369 1.914 3.835 3.835 0 0 1-.036.887 4.337 4.337 0 0 1-.215.866l-.083.215-.1.235a3.687 3.687 0 0 1-.2.449l-.219.449-.234.433a10.688 10.688 0 0 1-1.084 1.634 10.023 10.023 0 0 1-1.355 1.418 11.687 11.687 0 0 1-3.342 2.015 14.881 14.881 0 0 1-3.858.934 21.822 21.822 0 0 1-4.044.083c-.334-.033-.684-.048-1.017-.1l-.25-.032c-.1-.016-.2-.016-.318-.036-.2-.016-.417-.016-.619-.016a6.86 6.86 0 0 0-2.4.552.992.992 0 0 0-.537 1.315.942.942 0 0 0 1.288.532zm0 0" transform="translate(-120.316 -90.186)" style="fill:#222e6a"/>
            <path data-name="Path 37" d="M213.808 205.77c.484-4.065-1.621 3.568-9.942 1.951-4.661-.918-2.122-2.766-5.046.318a13.806 13.806 0 0 1-16.123 3.246c-4.514-2.249-3.128-3.1-6.834-.965a21.321 21.321 0 0 1-24.762-1.951c-3.91-3.414-2.924-3.9-6.683-2.6-3.743 1.3-9.223 2.515-14.486-1.3-3.576-2.6-5.4-4.184-4.562-1.467 1.386 4.518 8.018 6.982 14.92 6.2.954-.1 1.84 0 2.622 2.766 1.554 5.567 9.575 8.566 19.736 4.669 4.879-1.867 4.327-1.351 7.767 1.351 5.13 4 14.5 5 23.792-3.333 2.991-2.686 3.894-1.936 9.508-1.936 3.925 0 9.372-2.181 10.139-6.4" transform="translate(-121.21 -88.682)" style="fill:#ff8856"/>
            <path data-name="Path 38" d="M125.936 202.778a2.661 2.661 0 0 1-.219-.632.365.365 0 0 1-.015-.119v-.033a.182.182 0 0 1-.016.068.327.327 0 0 1-.036.048c-.016.019-.032.052-.048.067a.292.292 0 0 1-.135.083c-.015 0-.036.016-.052.016h-.015a.517.517 0 0 1 .119.036c.083.032.183.083.282.131.2.1.418.234.636.369.85.533 1.689 1.148 2.524 1.765l.636.468.684.466c.115.083.219.151.334.234l.35.2c.234.135.469.267.719.4a14.573 14.573 0 0 0 3.106 1.116 15.911 15.911 0 0 0 6.517-.015 26.938 26.938 0 0 0 3.11-.834c.5-.168.986-.335 1.47-.485a2.959 2.959 0 0 1 1.2-.2.906.906 0 0 1 .386.167 3.505 3.505 0 0 1 .5.433c.354.334.735.715 1.1 1.084.385.365.767.731 1.169 1.08.385.35.818.716 1.255 1.05a22.059 22.059 0 0 0 5.678 3.1 22.7 22.7 0 0 0 6.334 1.363 21.02 21.02 0 0 0 6.464-.58 24.512 24.512 0 0 0 3.091-1l.755-.318a3.07 3.07 0 0 0 .366-.167l.369-.183c.234-.115.485-.23.719-.349l.7-.381c.235-.135.469-.267.688-.386s.45-.25.668-.381.432-.235.651-.334a1.941 1.941 0 0 1 .517-.183.366.366 0 0 1 .135 0c.032 0 .1.032.182.048a3.688 3.688 0 0 1 .569.334c.433.266.886.568 1.355.85.465.267.934.532 1.419.767l.182.083.187.083.381.167c.135.048.25.115.385.167l.385.131a13.484 13.484 0 0 0 3.222.734c.27.033.552.052.818.068a7.449 7.449 0 0 0 .839.016l.834-.016c.267-.016.552-.052.819-.083.134-.016.265-.036.417-.052l.8-.167c.135-.032.266-.048.4-.083l.8-.215.2-.052.2-.067.381-.131.386-.135c.067-.015.135-.048.2-.063l.183-.083.751-.354a1.149 1.149 0 0 0 .183-.083l.186-.1.7-.4.182-.1c.052-.032.12-.079.168-.115a13.081 13.081 0 0 0 1.322-.965l.632-.517c.2-.183.386-.385.589-.569l.282-.282c.1-.1.2-.2.286-.283l.543-.575.52-.584c.083-.083.167-.183.215-.234l.016-.016-.016.016a.051.051 0 0 0-.032.015c-.016 0-.016 0-.036.02a.254.254 0 0 1-.115.015h-.135a.754.754 0 0 1-.083-.015c-.068-.036-.048-.036-.016 0l.152.115c.115.083.234.183.365.266a6.176 6.176 0 0 0 .8.417 8.83 8.83 0 0 0 1.621.5 12.606 12.606 0 0 0 3.294.3 10.048 10.048 0 0 0 3.274-.7 10.4 10.4 0 0 0 2.841-1.733c.215-.182.417-.349.6-.532l.286-.266a2.673 2.673 0 0 1 .25-.219c.032-.032.063-.047.048-.032h-.049a.062.062 0 0 0-.052.016h-.083a.217.217 0 0 1-.1-.016l-.119-.052c-.032-.032-.063-.032-.083-.067-.015-.016-.048-.064-.063-.064-.02-.019-.02-.036-.036-.051l-.016-.033a.058.058 0 0 0-.016-.036v.135c0 .215-.036.465-.051.715a.591.591 0 0 0 .536.652.6.6 0 0 0 .651-.517c.033-.266.064-.536.084-.834v-.266a.122.122 0 0 0-.02-.083l-.016-.1c0-.036-.032-.083-.032-.134a.271.271 0 0 0-.036-.084.4.4 0 0 0-.048-.083l-.1-.1a.493.493 0 0 0-.134-.1.734.734 0 0 0-.167-.067.481.481 0 0 0-.152-.016h-.135c-.032 0-.063.016-.1.016a.157.157 0 0 1-.083.015l-.068.02a1.2 1.2 0 0 0-.282.163c-.135.1-.235.187-.35.286l-.3.266c-.2.167-.386.334-.584.485a9.472 9.472 0 0 1-2.523 1.482 8.288 8.288 0 0 1-2.841.548 11.631 11.631 0 0 1-2.924-.314 8.568 8.568 0 0 1-1.371-.437 4.627 4.627 0 0 1-.584-.313c-.083-.068-.167-.119-.266-.2l-.167-.131-.052-.033-.067-.051-.033-.016-.051-.036-.052-.032c-.016-.016-.032-.016-.064-.033-.067-.019-.119-.036-.186-.051a1.015 1.015 0 0 0-.231-.016.931.931 0 0 0-.2.032c-.032.016-.067.016-.083.036l-.135.064-.048.036-.083.067c-.051.033-.083.064-.135.1a2.482 2.482 0 0 0-.317.334l-.532.581-.521.568-.131.135-.135.131-.267.267-.536.516-.584.469a12.715 12.715 0 0 1-1.2.867l-.151.1-.167.083-.318.182-.313.183-.171.083c-.048.036-.116.052-.167.083l-.668.3-.167.083a.829.829 0 0 0-.167.063l-.35.12-.353.115-.167.067-.183.048-.719.187a2.436 2.436 0 0 1-.365.063l-.37.068-.365.067a2.825 2.825 0 0 1-.369.032c-.25.016-.485.052-.735.068l-.735.015c-.25.016-.484-.015-.734-.015a5.132 5.132 0 0 1-.735-.068 11.968 11.968 0 0 1-2.856-.663l-.35-.119a2.217 2.217 0 0 1-.334-.152l-.334-.146-.168-.083-.171-.083a22.73 22.73 0 0 1-1.318-.735c-.433-.25-.85-.532-1.3-.815a6.5 6.5 0 0 0-.782-.453 2.871 2.871 0 0 0-.569-.167 2.145 2.145 0 0 0-.636 0 4 4 0 0 0-.969.3 8.091 8.091 0 0 0-.751.381c-.235.135-.469.27-.7.385-.234.131-.449.265-.683.381l-.672.369c-.215.115-.449.215-.682.334l-.335.163c-.115.052-.234.1-.349.152l-.7.3a21.107 21.107 0 0 1-2.872.913 19.991 19.991 0 0 1-5.968.552 20.423 20.423 0 0 1-5.865-1.251 20.666 20.666 0 0 1-5.276-2.849c-.787-.6-1.538-1.3-2.289-2-.37-.35-.739-.719-1.136-1.1a5.544 5.544 0 0 0-.7-.569 3.362 3.362 0 0 0-.469-.265 2.257 2.257 0 0 0-.568-.152 3.409 3.409 0 0 0-1.033.052c-.3.067-.569.135-.838.219-.517.163-1.017.349-1.5.517a23.512 23.512 0 0 1-2.924.814 14.776 14.776 0 0 1-5.916.083 13.457 13.457 0 0 1-2.789-.949c-.219-.116-.433-.235-.652-.35l-.334-.183c-.1-.067-.2-.134-.318-.2l-.619-.4-.632-.453c-.854-.6-1.7-1.215-2.643-1.78a7.084 7.084 0 0 0-.734-.4c-.135-.068-.266-.116-.433-.183a1.275 1.275 0 0 0-.266-.067l-.067-.016-.083-.016h-.2a.282.282 0 0 0-.115.016 2.07 2.07 0 0 0-.151.052.718.718 0 0 0-.3.182.885.885 0 0 0-.25.533 1.629 1.629 0 0 0 .051.615 8.491 8.491 0 0 0 .3.835.6.6 0 0 0 .787.3.7.7 0 0 0 .34-.867zm0 0" transform="translate(-121.223 -88.69)" style="fill:#222e6a"/>
            <path data-name="Path 39" d="M197.738 146.145a5.719 5.719 0 1 1-5.515 5.717 5.624 5.624 0 0 1 5.515-5.717zm0 0" transform="translate(-120.06 -89.633)" style="fill:#222e6a"/>
            <path data-name="Path 40" d="M165.738 147.98a5.72 5.72 0 1 1-5.515 5.714 5.626 5.626 0 0 1 5.515-5.714zm0 0" transform="translate(-120.609 -89.601)" style="fill:#222e6a"/>
            <path data-name="Path 41" d="M162.113 151.925c0 1.2 1.569 2.2 3.593 2.2s3.508-.969 3.523-2.17c0-1.3-1.569-2.766-3.54-2.781-1.955.002-3.56 1.452-3.576 2.751zm0 0" transform="translate(-120.576 -89.581)" style="fill:#fff"/>
            <path data-name="Path 42" d="M194.129 150.073c0 1.2 1.569 2.2 3.592 2.2s3.508-.969 3.524-2.169c0-1.3-1.569-2.766-3.54-2.782-1.955.002-3.56 1.469-3.576 2.751zm0 0" transform="translate(-120.027 -89.613)" style="fill:#fff"/>
            <path data-name="Path 43" d="M179.242 161.619a14.676 14.676 0 0 1-.719-3.068c2.424 2.118 8.237 1.8 9.958-.235-.4 1.685-.385 4.268-1.319 6.015-1.605-2.363-5.046-3.083-7.92-2.712zm0 0" transform="translate(-120.295 -89.424)" style="fill:#a65a7f"/>
            <path data-name="Path 44" d="M187.15 164.277a3.558 3.558 0 0 1-.9 1.137c-1.772 1.466-5.332.93-7.017-3.85 2.867-.37 6.311.349 7.917 2.713zm0 0" transform="translate(-120.283 -89.37)" style="fill:#ffb0d7"/>
            <path data-name="Path 45" d="M187.973 158.21c-.235.867-.354 1.717-.5 2.531a14.882 14.882 0 0 1-.537 2.353 5.9 5.9 0 0 1-.453 1.017 3.088 3.088 0 0 1-.3.417 1.052 1.052 0 0 1-.167.183l-.187.167a2.475 2.475 0 0 1-1.8.565 3.366 3.366 0 0 1-1.9-.767 5.363 5.363 0 0 1-.8-.767 6.207 6.207 0 0 1-.668-.934 13.916 13.916 0 0 1-1.589-4.514.525.525 0 0 0-.632-.417.543.543 0 0 0-.437.569 13.842 13.842 0 0 0 .453 2.583 11.475 11.475 0 0 0 .986 2.483c.1.2.235.4.35.58a6.542 6.542 0 0 0 .417.552 6.26 6.26 0 0 0 1 1 4.929 4.929 0 0 0 2.722 1.1 3.916 3.916 0 0 0 2.872-.95l.287-.23a2.321 2.321 0 0 0 .25-.3 6.923 6.923 0 0 0 .417-.616 8.509 8.509 0 0 0 .536-1.3 14.689 14.689 0 0 0 .465-2.6c.083-.849.152-1.68.271-2.463v-.02a.538.538 0 0 0-1.053-.215zm0 0" transform="translate(-120.304 -89.433)" style="fill:#46334d"/>
            <path data-name="Path 46" d="M178.183 158.96a5.266 5.266 0 0 0 1.2.9 6.869 6.869 0 0 0 1.355.552 10.19 10.19 0 0 0 5.663-.1 6.262 6.262 0 0 0 1.339-.6 3.737 3.737 0 0 0 1.152-1.033.549.549 0 0 0-.115-.747.532.532 0 0 0-.671.032l-.033.016a4.846 4.846 0 0 1-2.07.965 9.68 9.68 0 0 1-1.22.219 9.955 9.955 0 0 1-1.24.083 7.543 7.543 0 0 1-1.236-.052 9.471 9.471 0 0 1-1.22-.183 6.254 6.254 0 0 1-2.205-.882l-.015-.016a.555.555 0 0 0-.752.131.592.592 0 0 0 .068.715zm0 0" transform="translate(-120.303 -89.433)" style="fill:#46334d"/>
            <path data-name="Path 47" d="M150.819 139.846c9.69-2.7 18.015-8.181 26.752-13.08 9.107-5.134 19.262-6.636 29.354-6.651 1.088.015 2.205.052 3.31.135a46.22 46.22 0 0 0-7.637-1.268h-.067a46.881 46.881 0 0 0-8.821.152c-13.549 1.446-25.58 8.149-35.171 13.413a32.427 32.427 0 0 1-3.076 1.482c-.949.4-1.9.767-2.872 1.1-1.2.4-2.4.752-3.608 1.033a53.666 53.666 0 0 1-10.358 1.4 62.215 62.215 0 0 1-10.327-.413c-2.391-.3-3.31.449-3.358 1.931 8.822.92 17.09 3.448 25.879.766zm0 0" transform="translate(-121.214 -90.101)" style="fill:#f3ca9c"/>
            <path data-name="Path 48" d="M223.977 127.6a56.956 56.956 0 0 1 2.169 2.816 4.757 4.757 0 0 0 .083-.552 14.278 14.278 0 0 0-2.252-2.264zm0 0" transform="translate(-119.515 -89.951)" style="fill:#b777ba"/>
            <path data-name="Path 49" d="M218.507 123.16a47.771 47.771 0 0 0-8.256-2.916 54.492 54.492 0 0 0-3.306-.135c-10.113.037-20.268 1.519-29.359 6.651-8.753 4.9-17.077 10.382-26.748 13.081-8.788 2.666-17.044.135-25.85-.751 0 .167 0 .353.016.536a14.521 14.521 0 0 0 .7 3.417c3.712 5.813 10.311 8.714 16.926 8.681-3.91-1.283-8.356-3.233-9.206-7.7 4.593.95 9.107 2.432 13.8 2.818 0-.1.015-.2.015-.3a32.941 32.941 0 0 0 4.8-.5 37.545 37.545 0 0 0 2.272-.465 27.1 27.1 0 0 0 1.1-.266 82.82 82.82 0 0 0 11.312-4.017c.215-.083.433-.183.668-.283 5.6-2.4 11.51-5.249 17.959-7.85a52.06 52.06 0 0 1 15.941-3.866c.917-.068 1.824-.083 2.689-.1 1.121 0 2.19.052 3.211.135 4.092-.1 8.2 1.613 12.13 3.831 1.367.719-.167 2.5-1.072 2.785-1.8.6-3.541 1.347-5.245 2.1a3.918 3.918 0 0 0 2.409 1.884c4.159.484 7.9-1.717 10.608-5.05a10.142 10.142 0 0 0 1.856-4.346 53.813 53.813 0 0 0-2.174-2.818 35.125 35.125 0 0 0-7.196-4.556zm0 0" transform="translate(-121.213 -90.079)" style="fill:#f25510"/>
            <path data-name="Path 50" d="M163.614 123.755a4.554 4.554 0 0 1-.986-4.185l-1.721.85a1.071 1.071 0 0 0-.453 1.367l.135.314 1.418 3.433a.9.9 0 0 0 1.236.536l2.71-1.336a2.753 2.753 0 0 1-2.339-.979zm0 0" transform="translate(-120.606 -90.089)" style="fill:#38263b"/>
            <path data-name="Path 51" d="m166.736 117.555-4.16 2.05a4.53 4.53 0 0 0 .986 4.185 2.789 2.789 0 0 0 2.336.981l3.643-1.783c.167-2.283-.735-4.635-2.805-5.433zm0 0" transform="translate(-120.57 -90.123)" style="fill:#5f5061"/>
            <path data-name="Path 52" d="m171.774 120.742-1.486-3.583-.068-.183a.912.912 0 0 0-1.236-.533l-2.3 1.133c2.07.8 2.956 3.15 2.805 5.432l1.823-.9a1.1 1.1 0 0 0 .462-1.366zm0 0" transform="translate(-120.498 -90.144)" style="fill:#38263b"/>
            <path data-name="Path 53" d="M156.7 119a1.066 1.066 0 0 0-.449 1.367l1.117 2.7-.116.052c-.083.048-.167.1-.25.146l1.8 3.85a384.61 384.61 0 0 0 2.674-10.465zm0 0" transform="translate(-120.679 -90.139)" style="fill:#e6d093"/>
            <path data-name="Path 54" d="m161.2 123.62-.6-1.449-.134-.314a1.065 1.065 0 0 1 .449-1.367l1.438-.7c.453-1.419.9-2.837 1.371-4.252l-2.325 1.148c-.834 3.5-1.736 7-2.67 10.466.3.652.6 1.3.918 1.951a279.78 279.78 0 0 1 1.553-5.483zm0 0" transform="translate(-120.635 -90.158)" style="fill:#fff"/>
            <path data-name="Path 55" d="M163.658 129.384c.4-1.382.8-2.766 1.2-4.167l-1.605.786a.9.9 0 0 1-1.236-.536l-.818-1.983a312.854 312.854 0 0 0-1.554 5.483c.318.684.652 1.367.97 2.066.973-.548 2.009-1.1 3.043-1.649zm0 0" transform="translate(-120.619 -90.022)" style="fill:#e6d093"/>
            <path data-name="Path 56" d="m167.991 113.441-4.312 2.118a329.756 329.756 0 0 0-1.37 4.248l4.665-2.28c.349-1.352.682-2.719 1.017-4.086zm0 0" transform="translate(-120.573 -90.194)" style="fill:#e6d093"/>
            <path data-name="Path 57" d="M164.793 125.227c-.4 1.386-.8 2.785-1.2 4.167a181.535 181.535 0 0 1 5.082-2.6c.282-1.283.569-2.583.834-3.886zm0 0" transform="translate(-120.551 -90.031)" style="fill:#fff"/>
            <path data-name="Path 58" d="M173.33 114.7a.742.742 0 0 1-.083.037l-.954-2.286a.945.945 0 0 0-.834-.615c-.052.334-.1.667-.151 1-.25 1.649-.533 3.3-.835 4.931l1.252 3.051a1.068 1.068 0 0 1-.45 1.367l-1.855.913c-.265 1.3-.552 2.6-.834 3.886 2.789-1.366 5.7-2.666 8.721-3.817-1.407-2.781-2.789-5.582-3.977-8.467zm0 0" transform="translate(-120.465 -90.221)" style="fill:#e6d093"/>
            <path data-name="Path 59" d="M171.487 111.836a.859.859 0 0 0-.4.083l-3.175 1.565a335.801 335.801 0 0 1-1.017 4.069l2.085-1.017a.9.9 0 0 1 1.236.532l.068.183.218.533c.3-1.634.585-3.282.835-4.931.052-.353.099-.683.15-1.017zm0 0" transform="translate(-120.494 -90.221)" style="fill:#fff"/>
            <path data-name="Path 60" d="M191.4 111.277a46.049 46.049 0 0 0-18.146 3.418c1.188 2.9 2.574 5.686 3.977 8.467a62.934 62.934 0 0 1 15.67-3.9 49.907 49.907 0 0 1 5.1-.286 23.718 23.718 0 0 0-6.601-7.699zm0 0" transform="translate(-120.385 -90.231)" style="fill:#5f5061"/>
            <path data-name="Path 61" d="M197.689 118.978c1.236 0 2.472.036 3.727.134l.016-.432a52.535 52.535 0 0 0-6.568-7.251l-.1.135a40.43 40.43 0 0 0-3.675-.287 23.718 23.718 0 0 1 6.6 7.701zm0 0" transform="translate(-120.079 -90.231)" style="fill:#ab9bad"/>
            <path data-name="Path 62" d="M153.421 125.188c-.45.234-.886.432-1.288.6h-.015a20.138 20.138 0 0 1-3.524 10.236v.032c1.2-.282 2.408-.632 3.608-1.033a36.394 36.394 0 0 0 2.339-.866 37.305 37.305 0 0 0-1.12-8.969zm0 0" transform="translate(-120.808 -89.992)" style="fill:#38263b"/>
            <path data-name="Path 63" d="M157.015 123.156c-1.351.8-2.587 1.5-3.691 2.051a38.317 38.317 0 0 1 1.136 8.967c.183-.067.35-.151.537-.219a37.782 37.782 0 0 0 3.071-1.482c.854-.469 1.74-.949 2.643-1.449-1.236-2.615-2.456-5.234-3.696-7.868zm0 0" transform="translate(-120.727 -90.027)" style="fill:#5f5061"/>
            <path data-name="Path 64" d="M151.911 117.031c.282 5.483-.938 11-4.446 14.813a7.881 7.881 0 0 1-5.381 2.785 16.194 16.194 0 0 1-3.659 2.984 54.252 54.252 0 0 0 10.358-1.4v-.033a20.077 20.077 0 0 0 3.524-10.231h.02c.115-.052.215-.1.334-.152a50.3 50.3 0 0 0-.75-8.766zm0 0" transform="translate(-120.983 -90.132)" style="fill:#8e5e1f"/>
            <path data-name="Path 65" d="M173.2 95.622c4.144.266 6.666 5.666 10.728 7.183a40.416 40.416 0 0 1 4.326 1.765c-6.7-5.114-9.5-11.749-15.956-13.033-4.41-.882-12.564 2.149-22.5 12.516-6.532 6.8-2.841 16.715-4.728 24.849 1.987-4.283 2.289-10.335 3.373-14.582C151 102.707 162.891 95.257 173.2 95.622zm0 0" transform="translate(-120.869 -90.572)" style="fill:#f3ca9c"/>
            <path data-name="Path 66" d="M152.39 125.708c.3-.135.619-.3.953-.453a55.312 55.312 0 0 0-1.12-3.966c.134 1.466.167 2.932.167 4.419zm0 0" transform="translate(-120.746 -90.059)" style="fill:#eebef0"/>
            <path data-name="Path 67" d="M183.654 104.293a52.071 52.071 0 0 1 8.038 7.2 42.55 42.55 0 0 1 3.259.266l.1-.135c-2.137-2.015-3.492-4.383-6.718-6.7-.231-.167-.465-.334-.684-.5a35.176 35.176 0 0 0-4.327-1.765 12.344 12.344 0 0 1-3.946-2.733 17.8 17.8 0 0 0 4.278 4.367zm0 0" transform="translate(-120.28 -90.426)" style="fill:#eebef0"/>
            <path data-name="Path 68" d="M184.3 104.368a17.517 17.517 0 0 1-4.284-4.368c-2.138-2-4.125-4.267-6.766-4.434-10.323-.366-22.223 7.084-24.778 18.714-1.084 4.235-1.386 10.3-3.373 14.582a13.658 13.658 0 0 1-3.091 6.151 7.871 7.871 0 0 0 5.38-2.782c2.941-3.218 4.275-7.6 4.462-12.166a142.27 142.27 0 0 0-1.323-3.667l.186-.016-.186.016c.469 1.215.9 2.432 1.323 3.667.032-.886.032-1.768-.02-2.65-.131-.7-.282-1.419-.465-2.134l.2.183-.2-.183c.183.715.334 1.415.465 2.134a32.507 32.507 0 0 0-1.053-6.651l.2.183-.2-.183a32.288 32.288 0 0 1 1.053 6.651 41.521 41.521 0 0 1 .569 4.331 67.324 67.324 0 0 1 1.12 3.969c1.188-.6 2.491-1.351 3.941-2.2l.119-.052-1.12-2.7a1.069 1.069 0 0 1 .453-1.367l14.588-7.166a.9.9 0 0 1 1.236.537l.953 2.28a45.652 45.652 0 0 1 18.646-3.433 49.3 49.3 0 0 0-8.035-7.246zm0 0" transform="translate(-120.921 -90.501)" style="fill:#f25510"/>
            <path data-name="Path 69" d="M134.1 144.1a26.841 26.841 0 0 0 11.427 3 31.752 31.752 0 0 0 5.932-.381c.485-.067.969-.167 1.454-.265l1.455-.283c.949-.219 1.9-.469 2.856-.734a93.523 93.523 0 0 0 10.978-4.1c3.572-1.534 7.1-3.166 10.625-4.716q2.658-1.175 5.312-2.3l1.34-.548c.449-.167.886-.35 1.334-.517l1.355-.5c.45-.167.9-.314 1.351-.465s.922-.286 1.371-.433.917-.266 1.371-.386c.917-.25 1.855-.465 2.773-.667a47.289 47.289 0 0 1 5.646-.831 35.883 35.883 0 0 1 5.7-.067 33.951 33.951 0 0 1 5.635.834 27.607 27.607 0 0 1 5.359 1.816c.437.2.854.418 1.255.633l.3.167.25.151-.019-.016.019.016c.016.016.033.052.048.067a.126.126 0 0 1 .036.084c0 .032.016.047.033.083a.744.744 0 0 1-.033.365 1.025 1.025 0 0 0-.051.1l-.016.051-.036.048-.064.1a.39.39 0 0 0-.083.1 4.793 4.793 0 0 1-.969.783l-.019.016a.573.573 0 0 0-.183.814.579.579 0 0 0 .8.2 5.524 5.524 0 0 0 1.3-1c.052-.048.1-.115.152-.167l.135-.2.063-.1.052-.119a1.4 1.4 0 0 0 .1-.231 1.891 1.891 0 0 0 .1-1.068c-.015-.083-.048-.183-.063-.267a1.868 1.868 0 0 0-.12-.25 2.071 2.071 0 0 0-.151-.235c-.032-.032-.067-.083-.1-.115l-.051-.067a.312.312 0 0 0-.083-.064l-.048-.036a.055.055 0 0 0-.036-.016l-.033-.032-.083-.052-.167-.1-.317-.2a23.405 23.405 0 0 0-1.319-.7 27.917 27.917 0 0 0-5.6-2.014 34.847 34.847 0 0 0-5.865-.934 38.663 38.663 0 0 0-5.916.015 49.571 49.571 0 0 0-11.562 2.333c-.465.152-.934.3-1.4.469-.469.147-.918.334-1.387.5s-.917.35-1.37.533l-1.351.548c-1.8.734-3.593 1.518-5.364 2.285-3.544 1.565-7.068 3.2-10.608 4.748a103.03 103.03 0 0 1-10.78 4.1 36.347 36.347 0 0 1-11.209 1.748 25.206 25.206 0 0 1-5.6-.715 21.423 21.423 0 0 1-2.706-.835c-.886-.313-1.756-.7-2.626-1.1a.6.6 0 0 0-.8.287.644.644 0 0 0 .271.832zm0 0" transform="translate(-121.063 -89.94)" style="fill:#222e6a"/>
            <path data-name="Path 70" d="M194.393 111.884c.516.636 1.068 1.236 1.62 1.852l1.653 1.8 1.638 1.8 1.637 1.783v.016a.592.592 0 0 0 .854.032.576.576 0 0 0 .115-.73 18.4 18.4 0 0 0-1.4-2.118c-.25-.335-.516-.648-.786-.982-.266-.318-.548-.636-.834-.95s-.569-.619-.867-.9c-.3-.3-.588-.584-.906-.866A21.873 21.873 0 0 0 195.2 111a.59.59 0 0 0-.835.119.643.643 0 0 0 .028.765zm0 0" transform="translate(-120.025 -90.238)" style="fill:#31133d"/>
            <g data-name="Group 18" transform="translate(15.993)" style="clip-path:url(#nc3ugtjmui)">
                <path data-name="Path 71" d="M138.687 138.6a17.555 17.555 0 0 0 2.523-1.768 13.55 13.55 0 0 0 2.138-2.265 15.157 15.157 0 0 0 1.589-2.7 16.947 16.947 0 0 0 .97-2.948 28.952 28.952 0 0 0 .615-6.067c.036-2.015-.016-4 .016-5.965a28.84 28.84 0 0 1 .588-5.768 14.915 14.915 0 0 1 .85-2.7 12.779 12.779 0 0 1 1.37-2.431c.283-.37.569-.735.886-1.085l.235-.266.25-.265.517-.533c.35-.353.7-.7 1.053-1.036s.7-.679 1.069-1.013a57.671 57.671 0 0 1 4.494-3.8c.786-.6 1.574-1.164 2.391-1.7s1.638-1.053 2.488-1.518a22.963 22.963 0 0 1 5.316-2.185 13.188 13.188 0 0 1 1.386-.266c.231-.032.465-.048.684-.084.235-.016.469-.032.684-.032a8.786 8.786 0 0 1 1.34.1c.215.032.449.1.667.151.219.068.453.115.667.2a13.465 13.465 0 0 1 4.729 3c1.422 1.315 2.725 2.8 4.1 4.251a51.909 51.909 0 0 0 4.342 4.216l.585.48.6.469 1.2.882a19.219 19.219 0 0 1 2.189 1.884c1.371 1.351 2.575 2.968 4.093 4.367a.588.588 0 0 0 .838-.032.6.6 0 0 0-.019-.835 27.754 27.754 0 0 1-1.955-2.166 49.5 49.5 0 0 0-2-2.268 19.707 19.707 0 0 0-2.289-2.051l-1.188-.9-.569-.45-.552-.469A47 47 0 0 1 183.4 98.9c-1.336-1.45-2.638-2.968-4.129-4.383a19.85 19.85 0 0 0-2.42-1.951 12.538 12.538 0 0 0-2.841-1.415c-.25-.1-.52-.151-.77-.234-.267-.068-.517-.135-.783-.183a7.954 7.954 0 0 0-1.637-.135c-.271 0-.537.016-.8.036s-.537.048-.787.084a15.552 15.552 0 0 0-1.553.3 25.227 25.227 0 0 0-5.713 2.316 32.31 32.31 0 0 0-2.622 1.585c-.854.548-1.673 1.148-2.492 1.748a58.2 58.2 0 0 0-4.613 3.918c-.365.35-.734.7-1.084 1.049s-.719.7-1.069 1.065l-.517.536-.27.266-.267.283a14.856 14.856 0 0 0-1 1.231 13.859 13.859 0 0 0-1.537 2.75 17.284 17.284 0 0 0-.938 2.983 29.317 29.317 0 0 0-.569 6.084c-.015 2.018.052 4 .052 5.968a28.658 28.658 0 0 1-.517 5.78 15.053 15.053 0 0 1-.838 2.718 12.489 12.489 0 0 1-1.386 2.464 14.609 14.609 0 0 1-4.227 3.8.593.593 0 0 0-.2.815.6.6 0 0 0 .814.222zm0 0" transform="translate(-136.987 -90.586)" style="fill:#222e6a"/>
            </g>
            <path data-name="Path 73" d="m170.02 117.332.77 1.883.385.95.183.449.1.235.015.067.02.032a.13.13 0 0 1 .016.083.679.679 0 0 1-.135.569.711.711 0 0 1-.1.083c-.016.016-.036.016-.052.032l-.115.052-.469.215-1.836.866-3.679 1.753-1.836.882-.234.116-.052.036-.015.015c-.016 0-.033 0-.033.016a.206.206 0 0 1-.167-.016.325.325 0 0 1-.151-.115c-.016-.036-.052-.067-.068-.1l-.015-.033-.016-.067-.052-.115-.786-1.884-.4-.934-.2-.465-.1-.234-.019-.052-.016-.032c-.015-.016-.015-.033-.015-.068a.6.6 0 0 1 .083-.484c.015-.033.052-.048.067-.064s.032-.016.052-.036l.115-.048.454-.234 1.82-.934 3.623-1.848 1.824-.917.235-.115.047-.037.037-.015c.015-.016.032-.016.063-.016a.47.47 0 0 1 .254.016.516.516 0 0 1 .231.167.327.327 0 0 1 .083.131l.019.036.016.067zm.77-.318-.051-.115-.016-.068-.032-.083a3.111 3.111 0 0 0-.187-.3 1.333 1.333 0 0 0-.584-.417 1.465 1.465 0 0 0-.751-.052.87.87 0 0 0-.183.068l-.083.032-.052.036-.234.116-1.836.882-3.675 1.752-1.84.867-.469.215-.115.052c-.052.032-.119.067-.167.1a1.155 1.155 0 0 0-.3.266 1.618 1.618 0 0 0-.35 1.434c.016.068.033.116.048.183l.036.083.016.067.1.235.182.465.386.949.771 1.884.048.115.016.068.036.083a1.22 1.22 0 0 0 .219.334 1.513 1.513 0 0 0 .651.469 1.435 1.435 0 0 0 .834.048.812.812 0 0 0 .2-.068l.1-.032.052-.032.235-.119 1.82-.914 3.627-1.851 1.82-.934.454-.235.115-.047c.052-.037.119-.068.167-.1a2.171 2.171 0 0 0 .286-.25 1.519 1.519 0 0 0 .3-1.351c-.016-.052-.032-.116-.048-.167l-.036-.083-.016-.068-.1-.23-.2-.469-.4-.934zm0 0" transform="translate(-120.616 -90.151)" style="fill:#31133d"/>
            <path data-name="Path 74" d="M173.4 115.308c1.752-.585 3.508-1.133 5.3-1.582a48.978 48.978 0 0 1 5.38-1.117c.9-.151 1.8-.25 2.722-.35.9-.1 1.824-.151 2.741-.182a49.847 49.847 0 0 1 5.495.1.588.588 0 0 0 .636-.552.628.628 0 0 0-.484-.632 32.316 32.316 0 0 0-5.663-.484c-.953 0-1.907.036-2.856.119-.469.032-.954.1-1.423.131-.469.052-.934.119-1.418.183-.938.151-1.872.334-2.793.536s-1.836.449-2.738.731a41.372 41.372 0 0 0-5.3 1.982.591.591 0 0 0-.3.782.541.541 0 0 0 .701.335zm0 0" transform="translate(-120.396 -90.244)" style="fill:#31133d"/>
            <path data-name="Path 75" d="M152.317 126.386a8.3 8.3 0 0 0 1.47-.484 14.31 14.31 0 0 0 1.371-.667 14.784 14.784 0 0 0 2.491-1.7.6.6 0 0 0-.6-1.017 10.894 10.894 0 0 0-1.367.584c-.453.215-.886.433-1.3.684-.437.23-.854.48-1.271.73s-.819.5-1.22.783h-.016a.631.631 0 0 0-.151.85.583.583 0 0 0 .593.237zm0 0" transform="translate(-120.757 -90.039)" style="fill:#31133d"/>
            <path data-name="Path 76" d="M160.371 131.094a.7.7 0 0 0 .25-.048.68.68 0 0 0 .369-.867l-4.128-9.984a.425.425 0 0 1 .135-.517l14.586-7.164a.158.158 0 0 1 .151 0 .317.317 0 0 1 .183.2l4.227 10.231a.666.666 0 0 0 1.236-.5l-4.228-10.236a1.636 1.636 0 0 0-.953-.934 1.452 1.452 0 0 0-1.2.068l-14.57 7.168a1.732 1.732 0 0 0-.786 2.216l4.108 9.965a.66.66 0 0 0 .62.402zm0 0" transform="translate(-120.69 -90.233)" style="fill:#31133d"/>
            <g data-name="Group 19" transform="translate(2.77 27.884)" style="clip-path:url(#4q8wntf1qj)">
                <path data-name="Path 77" d="M148.011 154.743a31.996 31.996 0 0 1-2.543-.021c-.85-.032-1.7-.115-2.554-.214a25.913 25.913 0 0 1-4.979-1.133 22.234 22.234 0 0 1-4.592-2.133 17.478 17.478 0 0 1-3.878-3.2 15.012 15.012 0 0 1-2.69-4.164 12.924 12.924 0 0 1-.751-2.368 9.989 9.989 0 0 1-.219-1.216 8.134 8.134 0 0 1-.067-.615 3.328 3.328 0 0 1-.016-.552 1.5 1.5 0 0 1 .235-.815.725.725 0 0 1 .266-.219 1.508 1.508 0 0 1 .4-.147 4.522 4.522 0 0 1 1.084-.067c.2.016.385.032.6.067l.652.083c1.752.2 3.524.314 5.28.381a60.653 60.653 0 0 0 10.573-.584 45.391 45.391 0 0 0 10.295-2.714c.819-.334 1.637-.7 2.439-1.084.4-.2.8-.4 1.184-.616l1.156-.636c1.534-.83 3.056-1.664 4.593-2.479 3.075-1.638 6.182-3.187 9.341-4.585a80.5 80.5 0 0 1 9.707-3.616 58.506 58.506 0 0 1 10.092-2.1 46.011 46.011 0 0 1 20.3 2.217 47.44 47.44 0 0 1 4.764 1.935 30.839 30.839 0 0 1 4.394 2.6c.7.484 1.386 1 2.038 1.549a20.224 20.224 0 0 1 1.82 1.717 6.114 6.114 0 0 1 .7.934 1.406 1.406 0 0 1 .2.432.172.172 0 0 1 .015.083v.1c0 .083.016.183.016.286a7.047 7.047 0 0 1-.449 2.3 12.282 12.282 0 0 1-2.674 4.137 17.9 17.9 0 0 1-1.856 1.7 22.782 22.782 0 0 1-2.07 1.486 38.646 38.646 0 0 1-9.388 4.164.592.592 0 0 0-.385.751.6.6 0 0 0 .735.4 39.99 39.99 0 0 0 9.738-4.216 29.528 29.528 0 0 0 2.209-1.533 21.028 21.028 0 0 0 2.018-1.8 13.649 13.649 0 0 0 3.008-4.569 8.12 8.12 0 0 0 .569-2.8 3.194 3.194 0 0 0-.016-.386v-.1c0-.048-.016-.083-.016-.131-.015-.083-.036-.167-.051-.234a3.929 3.929 0 0 0-.334-.767 7.567 7.567 0 0 0-.871-1.148 17.942 17.942 0 0 0-1.97-1.883 31.04 31.04 0 0 0-2.122-1.634 33.428 33.428 0 0 0-4.593-2.753 50.9 50.9 0 0 0-4.915-2.03 45.856 45.856 0 0 0-10.359-2.384 48.249 48.249 0 0 0-10.624.016 59.6 59.6 0 0 0-10.394 2.134 82.87 82.87 0 0 0-9.909 3.683c-3.222 1.414-6.349 3-9.436 4.648-1.538.819-3.076 1.669-4.613 2.5l-1.137.636c-.369.2-.751.4-1.136.584-.767.381-1.537.715-2.34 1.049a43.056 43.056 0 0 1-9.905 2.63 59.1 59.1 0 0 1-10.311.62 68.785 68.785 0 0 1-5.161-.334l-.636-.068a9.126 9.126 0 0 0-.7-.067 5.411 5.411 0 0 0-1.518.1 3.39 3.39 0 0 0-.823.318 2.322 2.322 0 0 0-.715.632 2.922 2.922 0 0 0-.4.834 2.859 2.859 0 0 0-.119.819 3.606 3.606 0 0 0 .036.747c.016.235.048.454.083.684a12.131 12.131 0 0 0 .251 1.351 15.086 15.086 0 0 0 .849 2.6 16.214 16.214 0 0 0 2.976 4.55 19.65 19.65 0 0 0 4.208 3.4 23.042 23.042 0 0 0 4.9 2.216 28.109 28.109 0 0 0 5.229 1.133c.886.1 1.772.167 2.654.2.454.019.886.019 1.34.019s.87-.019 1.351-.036a.587.587 0 0 0 .568-.615.594.594 0 0 0-.615-.569zm0 0" transform="translate(-123.997 -117.998)" style="fill:#222e6a"/>
            </g>
            <path data-name="Path 79" d="M149.072 136.518c.151-.182.265-.334.4-.5l.35-.5c.115-.166.219-.35.334-.517l.3-.532a18.164 18.164 0 0 0 1.033-2.2c.134-.381.3-.748.421-1.133l.182-.584c.068-.2.1-.381.167-.58l.152-.584.131-.6c.1-.4.151-.8.219-1.184.067-.4.1-.8.151-1.2s.083-.8.1-1.2a22.251 22.251 0 0 0-.016-2.416 23.678 23.678 0 0 0-.751-4.732.6.6 0 0 0-.735-.417.583.583 0 0 0-.437.647 41.651 41.651 0 0 1 .37 4.55 27.181 27.181 0 0 1-.318 4.518 25.056 25.056 0 0 1-1.069 4.382 22.227 22.227 0 0 1-.853 2.082l-.5 1c-.083.167-.182.334-.266.485s-.2.314-.287.449l-.015.033a.577.577 0 0 0 .183.818.523.523 0 0 0 .754-.085zm0 0" transform="translate(-120.818 -90.122)" style="fill:#222e6a"/>
            <path data-name="Path 80" d="M145.218 167.738c-3.294 4.983-8.387 7.847-9.675 10.764-1.486 3.37.684 6.684 5.4 7.184 4.029.433 11.411-2 18.261-10.832" transform="translate(-121.04 -89.262)" style="fill:#fff"/>
            <path data-name="Path 81" d="M144.731 167.414a28.421 28.421 0 0 1-3.827 4.315c-.7.668-1.438 1.319-2.157 1.986-.735.664-1.47 1.331-2.189 2.067a12.088 12.088 0 0 0-1.017 1.2 5.942 5.942 0 0 0-.454.684l-.1.183-.1.2a3.32 3.32 0 0 0-.167.385 5.656 5.656 0 0 0-.3 3.381 5.065 5.065 0 0 0 .684 1.6 6.134 6.134 0 0 0 1.136 1.283 7.888 7.888 0 0 0 2.924 1.5 8.878 8.878 0 0 0 1.569.3 8.784 8.784 0 0 0 1.605.048 12.086 12.086 0 0 0 1.569-.167 15 15 0 0 0 1.522-.334 20.851 20.851 0 0 0 5.582-2.532 29.784 29.784 0 0 0 4.745-3.767q1.079-1.048 2.054-2.2a43.076 43.076 0 0 0 1.872-2.348.594.594 0 0 0-.934-.735q-.929 1.126-1.907 2.2c-.667.7-1.351 1.382-2.055 2.034a28.559 28.559 0 0 1-4.577 3.464 19.691 19.691 0 0 1-5.18 2.265c-.45.119-.9.219-1.371.3a9.442 9.442 0 0 1-1.367.151 8.7 8.7 0 0 1-1.339-.052 6.64 6.64 0 0 1-1.319-.266 6.119 6.119 0 0 1-2.3-1.148 4.177 4.177 0 0 1-.818-.918 3.672 3.672 0 0 1-.469-1.1 4.038 4.038 0 0 1 .2-2.416 7.219 7.219 0 0 1 1.49-2.185c.632-.7 1.351-1.363 2.054-2.03a64.61 64.61 0 0 0 2.138-2.067 28.038 28.038 0 0 0 3.827-4.668.6.6 0 0 0-.183-.815.684.684 0 0 0-.841.202zm0 0" transform="translate(-121.054 -89.273)" style="fill:#222e6a"/>
            <path data-name="Path 82" d="M156.609 162.747a1.349 1.349 0 0 0 .386.906 3.25 3.25 0 0 0 1.093.767 7.1 7.1 0 0 0 1.637.516 10.5 10.5 0 0 0 3.862 0 7.115 7.115 0 0 0 1.637-.516 3.245 3.245 0 0 0 1.092-.767 1.258 1.258 0 0 0 0-1.813 3.286 3.286 0 0 0-1.092-.766 6.877 6.877 0 0 0-1.637-.513 10.5 10.5 0 0 0-3.862 0 6.862 6.862 0 0 0-1.637.513 3.291 3.291 0 0 0-1.093.766 1.351 1.351 0 0 0-.386.907zm0 0" transform="translate(-120.671 -89.389)" style="fill:#ff8856"/>
            <path data-name="Path 83" d="M198.2 160.258a1.457 1.457 0 0 0 .322.886 2.888 2.888 0 0 0 .926.751 5.12 5.12 0 0 0 1.382.5 7.5 7.5 0 0 0 3.258 0 5.14 5.14 0 0 0 1.383-.5 2.911 2.911 0 0 0 .926-.751 1.455 1.455 0 0 0 .321-.886 1.438 1.438 0 0 0-.321-.886 2.8 2.8 0 0 0-.926-.752 5.32 5.32 0 0 0-1.383-.5 7.672 7.672 0 0 0-3.258 0 5.3 5.3 0 0 0-1.382.5 2.775 2.775 0 0 0-.926.752 1.439 1.439 0 0 0-.322.886zm0 0" transform="translate(-119.957 -89.43)" style="fill:#ff8856"/>
        </g>
    </g>
</svg>
