<svg xmlns="http://www.w3.org/2000/svg" width="95.193" height="120.235" viewBox="0 0 95.193 120.235">
    <defs>
        <clipPath id="9mgx3au8wa">
            <path data-name="Path 32" d="M163 213h31.346v10.6H163zm0 0" transform="translate(-163 -213)"/>
        </clipPath>
        <clipPath id="q539rhzrwb">
            <path data-name="Path 35" d="M121.277 113h52.593v89.56h-52.593zm0 0" transform="translate(-121.277 -113)"/>
        </clipPath>
        <clipPath id="jd5jc8yocc">
            <path data-name="Path 72" d="M137 90.586h52.841v42.464H137zm0 0" transform="translate(-137 -90.586)" style="fill:#222e6a"/>
        </clipPath>
        <clipPath id="vryfbf0ifd">
            <path data-name="Path 78" d="M124 118h92.754v34.033H124zm0 0" transform="translate(-124 -118)"/>
        </clipPath>
    </defs>
    <g data-name="Sad ghost">
        <g data-name="Group 108">
            <path data-name="Path 21" d="M207.263 166.59c.944 3.788 2.133 7.455 4.869 10.436 1.707 1.967 5.311 1.466 7-.56.295 2.452-1.619 4.594-5.135 4.975-3.544.382-10.048-1.76-16.079-9.537zm0 0" transform="translate(-129.278 -98.52)" style="fill:#dac9db"/>
            <path data-name="Path 22" d="M213.221 176.9c-2.722-2.981-3.925-6.647-4.869-10.436l1.927-1.1c2.9 4.388 8.417 7.056 9.547 9.624a4.812 4.812 0 0 1 .385 1.351c-1.679 2.025-5.283 2.525-6.99.561zm0 0" transform="translate(-130.367 -98.392)" style="fill:#fff"/>
            <path data-name="Path 23" d="M208.707 165.595a13.972 13.972 0 0 0 1.666 2.169c.6.675 1.249 1.308 1.91 1.925 1.326 1.2 2.753 2.287 4.03 3.449.311.291.619.585.9.892a5.647 5.647 0 0 1 .708.928c.041.073.073.16.115.234a2.2 2.2 0 0 1 .106.262 5.52 5.52 0 0 1 .16.543 3.4 3.4 0 0 1 .06 1.088 3.238 3.238 0 0 1-.914 1.92 4.88 4.88 0 0 1-1.955 1.176 7.673 7.673 0 0 1-2.369.381 10.274 10.274 0 0 1-2.456-.322l-.605-.165-.6-.189-.294-.1-.294-.119-.591-.234c-.189-.073-.382-.176-.574-.266s-.382-.176-.573-.277l-.557-.308-.279-.147-.147-.073-.133-.087a25.736 25.736 0 0 1-4.135-3.1 38.3 38.3 0 0 1-3.575-3.789v-.013a.523.523 0 0 0-.822.647 34.5 34.5 0 0 0 3.544 4.065l1 .924 1.046.863c.354.28.735.546 1.088.809.175.133.382.248.56.381l.574.368a17.984 17.984 0 0 0 5.045 2.2 11.879 11.879 0 0 0 2.8.381 9.09 9.09 0 0 0 2.854-.454 6.084 6.084 0 0 0 2.52-1.557 4.561 4.561 0 0 0 1.308-2.784 4.93 4.93 0 0 0-.1-1.543 7.422 7.422 0 0 0-.22-.734c-.046-.116-.088-.235-.147-.35a2.713 2.713 0 0 0-.193-.353 6.579 6.579 0 0 0-.9-1.172 12.828 12.828 0 0 0-1.015-.955c-.692-.6-1.386-1.144-2.074-1.7a56.425 56.425 0 0 1-2.033-1.673 20.383 20.383 0 0 1-3.53-3.739.548.548 0 0 0-.914.6zm0 0" transform="translate(-129.222 -98.33)" style="fill:#775e82"/>
            <path data-name="Path 24" d="M216.328 132.545c1.206.633-.147 2.2-.941 2.452-1.589.528-3.121 1.186-4.621 1.847a3.446 3.446 0 0 0 2.12 1.659c3.663.426 6.958-1.512 9.341-4.447a9.177 9.177 0 0 0 1.707-4.313 2.669 2.669 0 0 1 .6 1.2c.206 2.467-2.072 8.848-14.46 12.707h-.088c-2.06.441-1.591-1.98-2.06-4.2a38.5 38.5 0 0 0-3.237-9.45l1.557-.78c-.189-.013-.4-.041-.6-.056 3.604-.064 7.225 1.428 10.682 3.381zm0 0" transform="translate(-129.985 -94.614)" style="fill:#752b0b"/>
            <path data-name="Path 25" d="M147.053 145.732c-.1 1.291-.647 3.11-.5 4.342.059.528-.662 2.2-.574 2.7-.808-.088-1.883-1.54-2.694-1.788-.6-.193-1.248-.385-1.91-.6-3.442-1.13-7.357-2.848-8.105-6.781a127.687 127.687 0 0 0 13.783 2.127zm0 0" transform="translate(-122.529 -96.121)" style="fill:#752b0b"/>
            <path data-name="Path 26" d="M125.664 142.637c2.222 6.619 9.81 11.226 19.7 10.8a33.815 33.815 0 0 1-.426-2.081 12.932 12.932 0 0 1-2.442-.486c-.6-.189-1.248-.382-1.91-.6a17.29 17.29 0 0 1-14.922-7.633zm0 0" transform="translate(-121.735 -96.02)" style="fill:#752b0b"/>
            <path data-name="Path 27" d="M155.3 175.145a35.271 35.271 0 0 1-7.532 8.494c-6.326 5.429-14.271 6.458-21.478 9.978-.325.164-.633.339-.94.514.294-.235.6-.483.927-.749a51.919 51.919 0 0 0 9.623-10.212 7.175 7.175 0 0 0 3.337 1.158c3.474.372 10.107-1.7 16.063-9.183zm0 0" transform="translate(-121.702 -99.413)" style="fill:#dac9db"/>
            <path data-name="Path 28" d="M150.58 146.237c-.056.367-.116.734-.175 1.1-.78.1-1.56.161-2.355.206.9-9.362 3.208-31.387 27.085-32.651a25.156 25.156 0 0 1 23.1 12.035 29.177 29.177 0 0 1 2.823 6.249 31.832 31.832 0 0 0-22.816 1.175c-8.092 3.523-15.152 8.806-23.39 11.885a19.788 19.788 0 0 1-4.443 1.1c.056-.364.116-.736.171-1.099zm0 0" transform="translate(-124.072 -93.12)" style="fill:#dac9db"/>
            <path data-name="Path 29" d="M147.607 152.724c.046-.423.091-.9.133-1.393.794-.031 1.574-.1 2.355-.206a42.778 42.778 0 0 1-5.017 14.732 71.347 71.347 0 0 0 2.529-13.133zm0 0" transform="translate(-123.762 -96.906)" style="fill:#dac9db"/>
            <path data-name="Path 30" d="M125 189.786c.307-.189.615-.35.94-.514 7.207-3.52 15.152-4.549 21.477-9.978a35.271 35.271 0 0 0 7.532-8.494c.1-.119.193-.235.3-.368-.1.133-.193.249-.3.368.193-.295.371-.588.56-.9-.175.307-.367.6-.56.9-5.958 7.483-12.591 9.551-16.079 9.169a7.022 7.022 0 0 1-3.338-1.158 50.833 50.833 0 0 0 7.046-14.585c.014-.014.029-.046.042-.06-.013.014-.028.046-.042.06.014-.073.042-.147.06-.22a42.742 42.742 0 0 0 5.016-14.733 19.079 19.079 0 0 0 4.443-1.1c8.236-3.082 15.3-8.365 23.391-11.885a31.837 31.837 0 0 1 22.816-1.175c2.516 7.7 2.589 17.037 2.914 28.085.441 15.113.927 19.371 3.089 28.173 1 4.052 1.855 5.342 1.029 7.484-2.355 6.164-8.24 7.923-14.61 7.235-1.648-.175-3.278.483-5.265 2.32-6.031 5.576-11.328 6.9-18.538 4.4-4.678-1.613-4.706-4.254-7.941-3.23-7.238 2.306-12.976 3.215-17.657-.584-3.971-3.229-1.91-5.636-4.265-5.43-8.753.749-13.756-4.079-14.858-7.923-.734-2.73.592-4.043 2.798-5.857zm0 0" transform="translate(-121.353 -95.068)" style="fill:#fff"/>
            <g data-name="Group 16" transform="translate(37.367 109.635)" style="clip-path:url(#9mgx3au8wa)">
                <path data-name="Path 31" d="M164.489 218.627a2.014 2.014 0 0 1 1.354.322c.486.28 1 .7 1.56 1.088a14.1 14.1 0 0 0 3.691 1.848 25.953 25.953 0 0 0 3.929.969 17.531 17.531 0 0 0 4.09.133l.514-.059a3.212 3.212 0 0 0 .514-.073l1.015-.193.986-.277c.165-.045.326-.1.486-.164l.486-.176a19.005 19.005 0 0 0 3.617-1.878c.147-.088.28-.189.427-.277l.826-.587c.133-.1.262-.207.395-.308l.794-.615.766-.648.735-.63a9.09 9.09 0 0 1 .738-.56 7.613 7.613 0 0 1 1.529-.85.884.884 0 1 0-.648-1.644c-.013.013-.046.013-.059.031a9.061 9.061 0 0 0-1.823 1.158 13.3 13.3 0 0 0-.8.675l-.721.675-.7.643-.738.62c-.116.1-.235.2-.367.308l-.382.276-.382.28c-.133.1-.252.192-.384.279l-.794.528c-.266.161-.543.308-.822.468a4.018 4.018 0 0 1-.413.221l-.427.206-.426.2-.1.045-.106.042-.22.091-.441.16a2.741 2.741 0 0 1-.441.148l-.9.262-.914.179a2.449 2.449 0 0 1-.454.056l-.469.06a16.154 16.154 0 0 1-3.754-.147 23.559 23.559 0 0 1-3.677-.983 12.7 12.7 0 0 1-1.693-.749 12.2 12.2 0 0 1-1.543-1c-.5-.382-.986-.809-1.606-1.231l-.116-.073-.133-.073c-.088-.046-.178-.106-.266-.147a3.686 3.686 0 0 0-.588-.235 2.129 2.129 0 0 0-.308-.088L165 216.9a2.481 2.481 0 0 0-.322-.013h-.325a.88.88 0 1 0-.028 1.76h.087zm0 0" transform="translate(-163.048 -213.103)" style="fill:#222e6a"/>
            </g>
            <path data-name="Path 33" d="M139.235 212.51c.046 0 .046 0 .031-.014s-.017-.028.014.014a.957.957 0 0 1 .1.235c.046.1.073.237.119.367a9.124 9.124 0 0 0 .661 1.672 7.506 7.506 0 0 0 1.046 1.5 9.762 9.762 0 0 0 1.281 1.217 12.7 12.7 0 0 0 2.97 1.82 11.769 11.769 0 0 0 3.355.9 16.771 16.771 0 0 0 3.429.059c.573-.046 1.129-.1 1.689-.189s1.12-.178 1.662-.28a59.982 59.982 0 0 0 3.267-.762c.546-.133 1.074-.28 1.6-.427.266-.073.546-.16.767-.206a6.476 6.476 0 0 1 .647-.088.88.88 0 1 0-.028-1.76h-.09a4.877 4.877 0 0 0-.969.207c-.326.1-.546.189-.809.276-.518.179-1.032.354-1.546.515a38.211 38.211 0 0 1-3.135.85 18.766 18.766 0 0 1-6.311.486 13.307 13.307 0 0 1-1.529-.294 10.053 10.053 0 0 1-1.455-.514 10.639 10.639 0 0 1-2.589-1.659 10.056 10.056 0 0 1-1.074-1.085 5.282 5.282 0 0 1-.78-1.235 6.538 6.538 0 0 1-.459-1.406c-.028-.133-.073-.28-.116-.427a3.06 3.06 0 0 0-.206-.528 1.8 1.8 0 0 0-.515-.615 2.049 2.049 0 0 0-.738-.321h-.024a.883.883 0 1 0-.354 1.731c.03-.049.061-.049.089-.039zm0 0" transform="translate(-123.068 -103.135)" style="fill:#222e6a"/>
            <g data-name="Group 17" transform="translate(0 20.074)" style="clip-path:url(#q539rhzrwb)">
                <path data-name="Path 34" d="M172.281 113.911c-1.28.088-2.544.22-3.81.424a30.209 30.209 0 0 0-3.75.854 25.459 25.459 0 0 0-6.972 3.243 23.813 23.813 0 0 0-5.608 5.251 29.515 29.515 0 0 0-2.131 3.184 32.117 32.117 0 0 0-1.694 3.421 43.056 43.056 0 0 0-2.295 7.231 67.64 67.64 0 0 0-1.207 7.442c-.133 1.246-.248 2.494-.367 3.726l-.22 1.833-.119.927a9.49 9.49 0 0 1-.129.91l-.3 1.819-.147.91-.189.909-.385 1.806-.042.22-.178.661-.235.892-.235.9c-.045.147-.073.294-.118.442l-.133.441-.542 1.76c-.046.147-.091.294-.133.441l-.16.426-.326.864-.322.868c-.06.147-.1.29-.165.424l-.175.426-.721 1.686c-.119.279-.252.56-.4.837l-.413.822-.409.821c-.059.133-.147.28-.22.41l-.22.4-.9 1.613-.987 1.557-.248.395-.119.189-.133.193-1.057 1.5-.266.382-.279.367-1.148 1.437a5.743 5.743 0 0 1-.294.35l-.307.354-.605.689c-.207.235-.4.468-.6.69l-1.294 1.322c-.22.22-.427.441-.648.644l-1.354 1.263c-.119.1-.22.207-.339.308l-.353.294-1.413 1.2c-.235.206-.483.395-.721.587-.483.4-.969.791-1.455 1.231a9.074 9.074 0 0 0-1.368 1.511 5.192 5.192 0 0 0-.515.983l-.087.266c-.031.088-.046.175-.073.277l-.06.279c-.013.088-.013.189-.031.28a5.927 5.927 0 0 0 .238 2.127 10.009 10.009 0 0 0 1.942 3.519 12.842 12.842 0 0 0 2.97 2.613 13.6 13.6 0 0 0 1.736.956 15.606 15.606 0 0 0 1.84.7 17.357 17.357 0 0 0 3.856.734c.648.042 1.308.073 1.956.056l.486-.014.486-.028.454-.029a1.316 1.316 0 0 1 .266.014.878.878 0 1 0 .367-1.718h-.073a2.5 2.5 0 0 0-.681-.033l-.469.028-.441.028-.444.018a14.328 14.328 0 0 1-1.778-.031 16.468 16.468 0 0 1-3.487-.616 11.08 11.08 0 0 1-1.648-.615 12.091 12.091 0 0 1-1.546-.822 11.447 11.447 0 0 1-2.646-2.26 8.379 8.379 0 0 1-1.665-2.963 4.44 4.44 0 0 1-.189-1.557 2.9 2.9 0 0 1 .5-1.392 7.854 7.854 0 0 1 1.116-1.263c.441-.4.913-.791 1.386-1.19.234-.2.483-.395.72-.6l1.442-1.231.353-.308c.116-.1.235-.22.354-.322l1.368-1.308a8.746 8.746 0 0 0 .661-.675l.662-.69.661-.675c.206-.235.413-.468.633-.7l.619-.717.308-.353c.1-.119.207-.235.308-.367l1.179-1.484.294-.364.28-.385.542-.776.546-.776.133-.193.133-.2.248-.4 1-1.6.913-1.658.234-.409a4.279 4.279 0 0 0 .221-.427l.825-1.7c.133-.28.28-.56.4-.854l.734-1.746.193-.441c.059-.147.1-.29.161-.437l.325-.882.322-.881.165-.441c.042-.143.088-.29.147-.455l.56-1.8.13-.455c.045-.147.073-.311.118-.458l.235-.91.238-.91.116-.454.059-.235.046-.235.382-1.847.192-.927.147-.924.308-1.861c.06-.311.088-.619.133-.927l.118-.938.221-1.865c.129-1.245.234-2.48.381-3.711a63.588 63.588 0 0 1 1.207-7.277c.279-1.19.588-2.38.969-3.551s.811-2.305 1.281-3.436a31.186 31.186 0 0 1 1.648-3.257 26.248 26.248 0 0 1 2.046-2.995 22.47 22.47 0 0 1 5.3-4.869 23.842 23.842 0 0 1 6.574-2.949 31.288 31.288 0 0 1 7.178-1.1.881.881 0 1 0-.087-1.759zm0 0" transform="translate(-121.262 -113.089)" style="fill:#222e6a"/>
            </g>
            <path data-name="Path 36" d="M194.389 205.254a3.946 3.946 0 0 1 1.487-.367h.382c.059 0 .133.018.193.018l.234.013c.322.029.648.056.956.073a20.236 20.236 0 0 0 3.869-.133 14.833 14.833 0 0 0 3.8-.983 11.492 11.492 0 0 0 3.369-2.1 10.653 10.653 0 0 0 1.368-1.452 11.559 11.559 0 0 0 1.075-1.658l.22-.441.206-.442c.073-.147.133-.307.193-.454l.088-.235.087-.248a5.934 5.934 0 0 0 .253-1.043 5.272 5.272 0 0 0 .028-1.07 11.443 11.443 0 0 0-.382-1.966c-.161-.616-.339-1.2-.514-1.791s-.325-1.172-.472-1.774l-.442-1.791c-.573-2.392-1.087-4.8-1.427-7.22s-.588-4.87-.749-7.337-.266-4.928-.371-7.395c-.088-2.463-.161-4.944-.235-7.424-.133-4.947-.248-9.919-.78-14.88a57.78 57.78 0 0 0-1.235-7.409 34.8 34.8 0 0 0-2.516-7.148l-.206-.423-.441-.854c-.073-.13-.161-.277-.235-.409l-.238-.413c-.073-.13-.175-.262-.248-.4l-.514-.8-.266-.4-.294-.382-.574-.763c-.1-.133-.193-.262-.294-.382l-.312-.367-.63-.717-.164-.178a1.826 1.826 0 0 1-.161-.175l-.339-.336-.675-.675c-.235-.22-.486-.427-.721-.633l-.72-.63-.767-.574-.381-.294-.193-.147a2.401 2.401 0 0 0-.207-.129l-.808-.528-.4-.266c-.13-.088-.277-.161-.409-.235a26.412 26.412 0 0 0-7.091-2.861 27.644 27.644 0 0 0-7.62-.732.874.874 0 1 0 .073 1.746h.013a24.977 24.977 0 0 1 13.843 3.17 3.932 3.932 0 0 1 .4.22l.385.248.762.483c.059.046.133.073.193.119l.178.133.367.262.721.543c.235.193.455.395.69.588s.458.382.678.588l.648.63.322.322.165.164.147.176.6.675.294.336c.1.118.193.234.28.353l.545.717.279.353.249.382.5.749c.088.133.176.249.249.382l.237.395c.073.133.161.266.235.4l.441.791.207.412a31.539 31.539 0 0 1 2.441 6.836 56.873 56.873 0 0 1 1.222 7.235c.531 4.887.661 9.831.808 14.777.059 2.477.133 4.944.224 7.424s.189 4.962.349 7.438.385 4.975.752 7.442.854 4.929 1.413 7.35l.427 1.819c.147.616.308 1.217.468 1.819s.339 1.2.5 1.778a10.733 10.733 0 0 1 .325 1.686 3.377 3.377 0 0 1-.031.781 3.819 3.819 0 0 1-.189.762l-.073.189-.09.207a3.245 3.245 0 0 1-.176.395l-.193.395-.206.382a9.411 9.411 0 0 1-.955 1.438 8.826 8.826 0 0 1-1.193 1.248 10.291 10.291 0 0 1-2.943 1.774 13.1 13.1 0 0 1-3.4.822 19.213 19.213 0 0 1-3.561.073c-.294-.029-.6-.042-.9-.088l-.22-.028c-.091-.014-.178-.014-.28-.031-.178-.014-.367-.014-.545-.014a6.041 6.041 0 0 0-2.116.486.873.873 0 0 0-.473 1.158.829.829 0 0 0 1.134.468zm0 0" transform="translate(-127.128 -93.017)" style="fill:#222e6a"/>
            <path data-name="Path 37" d="M203.216 205.27c.426-3.579-1.428 3.142-8.754 1.718-4.1-.808-1.868-2.435-4.443.28a12.156 12.156 0 0 1-14.2 2.858c-3.975-1.98-2.754-2.729-6.018-.85a18.773 18.773 0 0 1-21.8-1.718c-3.443-3.006-2.575-3.432-5.884-2.288s-8.12 2.215-12.755-1.144c-3.149-2.288-4.751-3.684-4.017-1.291 1.221 3.978 7.06 6.147 13.137 5.458.84-.087 1.62 0 2.309 2.435 1.368 4.9 8.431 7.543 17.377 4.111 4.3-1.644 3.81-1.189 6.839 1.189 4.517 3.52 12.77 4.4 20.949-2.935 2.634-2.365 3.428-1.7 8.372-1.7 3.456 0 8.252-1.92 8.927-5.632" transform="translate(-121.683 -102.174)" style="fill:#ff8856"/>
            <path data-name="Path 38" d="M125.754 202.579a2.343 2.343 0 0 1-.193-.556.322.322 0 0 1-.013-.1v-.029a.16.16 0 0 1-.014.06.288.288 0 0 1-.031.042c-.014.017-.028.046-.042.059a.257.257 0 0 1-.119.073c-.013 0-.031.014-.046.014h-.013a.455.455 0 0 1 .1.031c.073.028.161.073.248.116.176.088.368.206.56.325.749.469 1.488 1.011 2.222 1.554l.56.412.6.41c.1.073.193.133.294.206l.308.175c.206.119.413.235.633.354a12.831 12.831 0 0 0 2.735.982 14.01 14.01 0 0 0 5.738-.013 23.721 23.721 0 0 0 2.739-.734c.441-.148.868-.295 1.294-.427a2.605 2.605 0 0 1 1.057-.175.8.8 0 0 1 .339.147 3.084 3.084 0 0 1 .441.382c.312.294.647.63.973.955s.675.644 1.029.951.72.631 1.105.924a19.423 19.423 0 0 0 5 2.732 19.987 19.987 0 0 0 5.577 1.2 18.508 18.508 0 0 0 5.692-.51 21.582 21.582 0 0 0 2.722-.881l.665-.28a2.705 2.705 0 0 0 .322-.147l.325-.161c.206-.1.427-.2.633-.307l.615-.336c.207-.119.413-.235.605-.339s.4-.22.588-.336.381-.207.573-.294a1.709 1.709 0 0 1 .455-.161.323.323 0 0 1 .119 0c.028 0 .087.028.16.042a3.249 3.249 0 0 1 .5.294c.382.235.78.5 1.193.749s.822.468 1.249.675l.16.073.165.073.336.147c.119.042.22.1.339.147l.339.116a11.873 11.873 0 0 0 2.837.647c.237.029.486.046.72.06a6.561 6.561 0 0 0 .739.014l.734-.014c.235-.014.486-.046.721-.073.118-.014.234-.031.367-.046l.707-.147c.119-.028.235-.042.353-.073l.707-.189.176-.046.178-.059.336-.116.339-.119c.059-.013.119-.042.178-.056l.161-.073.661-.312a1.012 1.012 0 0 0 .161-.073l.164-.088.616-.349.16-.091a2.73 2.73 0 0 0 .148-.1 11.515 11.515 0 0 0 1.164-.85l.556-.455c.179-.161.339-.339.519-.5l.248-.248.252-.249.469-.514.458-.514c.073-.073.147-.161.189-.206l.014-.014-.014.014a.044.044 0 0 0-.028.013c-.014 0-.014 0-.031.018a.224.224 0 0 1-.1.013h-.119a.664.664 0 0 1-.073-.013c-.06-.031-.042-.031-.014 0l.133.1c.1.073.206.161.322.235a5.438 5.438 0 0 0 .707.367 7.776 7.776 0 0 0 1.428.441 11.1 11.1 0 0 0 2.9.262 8.847 8.847 0 0 0 2.883-.615 9.159 9.159 0 0 0 2.5-1.526c.189-.16.367-.307.528-.468l.252-.235a2.352 2.352 0 0 1 .22-.193c.028-.028.055-.041.042-.028h-.042a.055.055 0 0 0-.046.014H203a.191.191 0 0 1-.088-.014l-.1-.046c-.028-.028-.056-.028-.073-.059-.013-.014-.042-.056-.056-.056-.018-.017-.018-.031-.031-.045l-.014-.029a.051.051 0 0 0-.014-.031v.119c0 .189-.031.409-.045.63a.521.521 0 0 0 .472.574.528.528 0 0 0 .573-.455c.029-.235.056-.472.074-.734v-.235a.108.108 0 0 0-.018-.073l-.014-.088c0-.031-.028-.073-.028-.118a.239.239 0 0 0-.031-.074.356.356 0 0 0-.042-.073l-.088-.087a.434.434 0 0 0-.118-.088.646.646 0 0 0-.147-.059.424.424 0 0 0-.133-.014h-.119c-.028 0-.056.014-.087.014a.138.138 0 0 1-.073.013l-.06.018a1.056 1.056 0 0 0-.248.143 6.354 6.354 0 0 0-.308.252l-.266.235c-.178.147-.339.294-.514.427a8.34 8.34 0 0 1-2.221 1.3 7.3 7.3 0 0 1-2.5.483 10.241 10.241 0 0 1-2.575-.277 7.547 7.547 0 0 1-1.207-.385 4.073 4.073 0 0 1-.514-.276c-.073-.06-.147-.1-.235-.178l-.147-.116-.046-.029-.059-.045-.029-.014-.045-.031-.046-.028c-.014-.014-.028-.014-.056-.029-.059-.017-.1-.031-.164-.045a.894.894 0 0 0-.2-.014.819.819 0 0 0-.178.028c-.028.014-.059.014-.073.031l-.119.056-.042.031-.073.059c-.045.029-.073.056-.119.088a2.186 2.186 0 0 0-.279.294l-.468.511-.459.5-.116.119-.119.116-.235.235-.472.454-.514.413a11.19 11.19 0 0 1-1.06.763c-.042.028-.087.059-.133.088l-.147.073-.28.16-.276.161-.15.073c-.042.031-.1.046-.147.073l-.588.266-.147.073a.731.731 0 0 0-.147.056l-.308.106-.311.1-.147.059-.161.042-.633.165a2.144 2.144 0 0 1-.321.056l-.326.06-.322.059a2.486 2.486 0 0 1-.325.028c-.22.014-.427.046-.648.06l-.648.013c-.22.014-.426-.013-.647-.013a4.519 4.519 0 0 1-.648-.06 10.537 10.537 0 0 1-2.515-.584l-.308-.1a1.952 1.952 0 0 1-.294-.133l-.294-.129-.148-.073-.15-.073c-.395-.207-.776-.413-1.161-.648s-.749-.468-1.148-.717a5.725 5.725 0 0 0-.689-.4 2.527 2.527 0 0 0-.5-.147 1.889 1.889 0 0 0-.56 0 3.525 3.525 0 0 0-.854.266 7.124 7.124 0 0 0-.661.336c-.207.119-.413.237-.62.339s-.395.234-.6.336l-.592.325c-.189.1-.395.189-.6.294l-.295.143c-.1.046-.206.091-.307.133l-.62.266a18.586 18.586 0 0 1-2.529.8 17.6 17.6 0 0 1-5.255.486 17.981 17.981 0 0 1-5.164-1.1 18.2 18.2 0 0 1-4.646-2.509c-.693-.528-1.354-1.145-2.015-1.76-.326-.308-.651-.633-1-.969a4.882 4.882 0 0 0-.62-.5 2.964 2.964 0 0 0-.413-.234 1.988 1.988 0 0 0-.5-.133 3 3 0 0 0-.91.046 8.98 8.98 0 0 0-.738.193c-.455.143-.9.307-1.323.455a20.7 20.7 0 0 1-2.575.716 13.01 13.01 0 0 1-5.209.073 11.849 11.849 0 0 1-2.456-.836c-.193-.1-.382-.207-.574-.308l-.294-.161a5.501 5.501 0 0 0-.28-.178l-.545-.35-.556-.4c-.752-.528-1.5-1.07-2.327-1.567a6.238 6.238 0 0 0-.647-.353c-.119-.06-.235-.1-.382-.161a1.123 1.123 0 0 0-.235-.059l-.059-.014-.073-.014h-.179a.248.248 0 0 0-.1.014 1.608 1.608 0 0 0-.133.046.632.632 0 0 0-.266.16.779.779 0 0 0-.22.469 1.434 1.434 0 0 0 .045.542 7.482 7.482 0 0 0 .262.735.525.525 0 0 0 .693.262.612.612 0 0 0 .319-.764zm0 0" transform="translate(-121.605 -102.124)" style="fill:#222e6a"/>
            <path data-name="Path 39" d="M197.079 146.145a5.036 5.036 0 1 1-4.856 5.034 4.952 4.952 0 0 1 4.856-5.034zm0 0" transform="translate(-128.683 -96.386)" style="fill:#222e6a"/>
            <path data-name="Path 40" d="M165.079 147.98a5.036 5.036 0 1 1-4.856 5.031 4.954 4.954 0 0 1 4.856-5.031zm0 0" transform="translate(-125.343 -96.578)" style="fill:#222e6a"/>
            <path data-name="Path 41" d="M162.113 151.6c0 1.057 1.382 1.938 3.163 1.938s3.089-.854 3.1-1.91c0-1.144-1.382-2.435-3.117-2.449s-3.132 1.274-3.146 2.421zm0 0" transform="translate(-125.54 -96.702)" style="fill:#fff"/>
            <path data-name="Path 42" d="M194.129 149.745c0 1.057 1.382 1.938 3.162 1.938s3.089-.853 3.1-1.909c0-1.145-1.382-2.435-3.117-2.449s-3.131 1.29-3.145 2.42zm0 0" transform="translate(-128.882 -96.509)" style="fill:#fff"/>
            <path data-name="Path 46" d="M.138 1a4.636 4.636 0 0 0 1.056.791 6.048 6.048 0 0 0 1.193.486 8.542 8.542 0 0 0 2.5.308 8.51 8.51 0 0 0 2.484-.4 5.513 5.513 0 0 0 1.179-.528A3.29 3.29 0 0 0 9.566.749a.483.483 0 0 0-.1-.657.468.468 0 0 0-.592.028l-.029.014a4.267 4.267 0 0 1-1.823.85 8.526 8.526 0 0 1-1.074.193 8.766 8.766 0 0 1-1.092.073 6.641 6.641 0 0 1-1.087-.05A8.339 8.339 0 0 1 2.7 1.043 5.507 5.507 0 0 1 .754.266L.74.252a.489.489 0 0 0-.662.116.521.521 0 0 0 .06.632zm0 0" transform="rotate(180 29.923 33.486)" style="fill:#222e6a"/>
            <path data-name="Path 47" d="M147.727 137.336c8.532-2.375 15.862-7.2 23.555-11.517 8.018-4.52 16.96-5.843 25.846-5.856.958.013 1.942.046 2.914.119a40.7 40.7 0 0 0-6.724-1.117h-.059a41.279 41.279 0 0 0-7.767.133c-11.93 1.274-22.524 7.176-30.968 11.81a28.547 28.547 0 0 1-2.708 1.3c-.836.354-1.676.675-2.529.969-1.06.354-2.116.662-3.177.91a47.253 47.253 0 0 1-9.12 1.231 54.781 54.781 0 0 1-9.093-.364c-2.106-.266-2.914.395-2.956 1.7 7.767.816 15.047 3.046 22.786.682zm0 0" transform="translate(-121.659 -93.536)" style="fill:#f3ca9c"/>
            <path data-name="Path 48" d="M223.977 127.6a48.578 48.578 0 0 1 1.909 2.48 4.19 4.19 0 0 0 .073-.486 12.573 12.573 0 0 0-1.982-1.994zm0 0" transform="translate(-131.998 -94.45)" style="fill:#b777ba"/>
            <path data-name="Path 49" d="M207.332 122.8a42.063 42.063 0 0 0-7.27-2.568 52.49 52.49 0 0 0-2.911-.119c-8.9.032-17.846 1.337-25.851 5.856-7.707 4.314-15.036 9.141-23.552 11.517-7.738 2.347-15.008.119-22.761-.661 0 .147 0 .311.014.472a12.785 12.785 0 0 0 .619 3.008 17.35 17.35 0 0 0 14.9 7.644c-3.443-1.129-7.357-2.847-8.106-6.78 4.045.836 8.018 2.141 12.151 2.481 0-.088.013-.179.013-.266a29 29 0 0 0 4.223-.441 32.858 32.858 0 0 0 2-.409c.326-.073.648-.148.973-.235a72.921 72.921 0 0 0 9.96-3.537c.189-.073.382-.161.588-.249 4.929-2.113 10.135-4.621 15.813-6.912a45.838 45.838 0 0 1 14.036-3.4c.808-.06 1.606-.073 2.368-.088.987 0 1.928.046 2.827.119 3.6-.091 7.22 1.42 10.68 3.373 1.2.633-.147 2.2-.944 2.452-1.589.528-3.118 1.186-4.619 1.847a3.45 3.45 0 0 0 2.121 1.659c3.662.426 6.958-1.512 9.34-4.447a8.93 8.93 0 0 0 1.634-3.827 47.302 47.302 0 0 0-1.914-2.481 30.928 30.928 0 0 0-6.332-4.008zm0 0" transform="translate(-121.664 -93.668)" style="fill:#f25510"/>
            <path data-name="Path 50" d="M163.226 123.254a4.01 4.01 0 0 1-.868-3.685l-1.515.749a.943.943 0 0 0-.4 1.2l.119.277 1.248 3.023a.8.8 0 0 0 1.088.472l2.386-1.176a2.424 2.424 0 0 1-2.058-.86zm0 0" transform="translate(-125.358 -93.612)" style="fill:#38263b"/>
            <path data-name="Path 51" d="m166.226 117.555-3.663 1.8a3.989 3.989 0 0 0 .868 3.685 2.456 2.456 0 0 0 2.057.863l3.208-1.57c.147-2.004-.648-4.075-2.47-4.778zm0 0" transform="translate(-125.577 -93.401)" style="fill:#5f5061"/>
            <path data-name="Path 52" d="m171.165 120.218-1.308-3.155-.06-.161a.8.8 0 0 0-1.088-.469l-2.029 1c1.823.7 2.6 2.774 2.47 4.783l1.6-.791a.965.965 0 0 0 .415-1.207zm0 0" transform="translate(-126.017 -93.276)" style="fill:#38263b"/>
            <path data-name="Path 53" d="M156.636 118.723a.939.939 0 0 0-.395 1.2l.983 2.375-.1.046-.22.129q.793 1.7 1.589 3.39a342.573 342.573 0 0 0 2.355-9.215zm0 0" transform="translate(-124.919 -93.307)" style="fill:#e6d093"/>
            <path data-name="Path 54" d="m160.906 122.655-.528-1.276-.118-.277a.938.938 0 0 1 .395-1.2l1.266-.615c.4-1.249.794-2.5 1.207-3.744l-2.047 1.011a324.424 324.424 0 0 1-2.351 9.215c.262.574.528 1.147.809 1.718.44-1.631.895-3.233 1.367-4.832zm0 0" transform="translate(-125.187 -93.191)" style="fill:#fff"/>
            <path data-name="Path 55" d="M163.178 128.679c.353-1.217.707-2.435 1.06-3.669l-1.413.692a.792.792 0 0 1-1.088-.472l-.72-1.746c-.469 1.6-.927 3.215-1.368 4.828.28.6.574 1.2.854 1.819.853-.483 1.766-.969 2.675-1.452zm0 0" transform="translate(-125.283 -94.02)" style="fill:#e6d093"/>
            <path data-name="Path 56" d="m167.312 113.441-3.8 1.865a281.805 281.805 0 0 0-1.206 3.74l4.107-2.008c.31-1.19.604-2.393.899-3.597zm0 0" transform="translate(-125.56 -92.972)" style="fill:#e6d093"/>
            <path data-name="Path 57" d="m164.649 124.95-1.059 3.669a156.16 156.16 0 0 1 4.474-2.288c.248-1.129.5-2.274.734-3.421zm0 0" transform="translate(-125.694 -93.96)" style="fill:#fff"/>
            <path data-name="Path 58" d="M172.763 114.358a.65.65 0 0 1-.073.032l-.84-2.012a.832.832 0 0 0-.734-.542c-.046.294-.087.588-.133.881-.22 1.452-.469 2.9-.735 4.342l1.1 2.687a.94.94 0 0 1-.4 1.2l-1.634.8c-.234 1.147-.486 2.292-.734 3.421 2.456-1.2 5.017-2.347 7.679-3.361-1.229-2.442-2.45-4.906-3.496-7.448zm0 0" transform="translate(-126.216 -92.804)" style="fill:#e6d093"/>
            <path data-name="Path 59" d="M170.939 111.836a.756.756 0 0 0-.353.073l-2.8 1.378c-.295 1.2-.588 2.393-.9 3.582l1.836-.9a.793.793 0 0 1 1.088.468l.06.161.192.469c.266-1.438.515-2.89.735-4.342.055-.302.096-.595.142-.889zm0 0" transform="translate(-126.039 -92.804)" style="fill:#fff"/>
            <path data-name="Path 60" d="M189.228 111.275a40.546 40.546 0 0 0-15.978 3.009c1.046 2.553 2.267 5.006 3.5 7.455a55.414 55.414 0 0 1 13.8-3.432 43.947 43.947 0 0 1 4.489-.252 20.884 20.884 0 0 0-5.811-6.78zm0 0" transform="translate(-126.703 -92.744)" style="fill:#5f5061"/>
            <path data-name="Path 61" d="M196.9 118.058c1.088 0 2.176.031 3.281.118l.014-.381a46.255 46.255 0 0 0-5.783-6.385l-.088.119a36.03 36.03 0 0 0-3.236-.253 20.884 20.884 0 0 1 5.812 6.782zm0 0" transform="translate(-128.565 -92.746)" style="fill:#ab9bad"/>
            <path data-name="Path 62" d="M152.845 125.188c-.4.206-.78.381-1.134.528h-.011a17.732 17.732 0 0 1-3.1 9.012v.028a35.551 35.551 0 0 0 3.177-.91 33.439 33.439 0 0 0 2.06-.762 32.846 32.846 0 0 0-.992-7.896zm0 0" transform="translate(-124.129 -94.198)" style="fill:#38263b"/>
            <path data-name="Path 63" d="M156.574 123.156c-1.189.707-2.278 1.323-3.25 1.806a33.738 33.738 0 0 1 1 7.9c.161-.059.308-.133.473-.193a33.776 33.776 0 0 0 2.7-1.3c.752-.413 1.532-.836 2.327-1.276-1.084-2.312-2.158-4.617-3.25-6.937zm0 0" transform="translate(-124.623 -93.986)" style="fill:#5f5061"/>
            <path data-name="Path 64" d="M150.3 117.031c.248 4.828-.826 9.684-3.915 13.043a6.939 6.939 0 0 1-4.738 2.452 14.259 14.259 0 0 1-3.221 2.628 47.769 47.769 0 0 0 9.12-1.235v-.029a17.678 17.678 0 0 0 3.1-9.008h.018c.1-.046.189-.091.294-.133a44.289 44.289 0 0 0-.658-7.718zm0 0" transform="translate(-123.067 -93.347)" style="fill:#8e5e1f"/>
            <path data-name="Path 65" d="M169.835 95.117c3.649.234 5.87 4.989 9.446 6.325A35.582 35.582 0 0 1 183.09 103c-5.9-4.5-8.368-10.345-14.049-11.475-3.883-.777-11.063 1.893-19.815 11.02-5.752 5.989-2.5 14.717-4.163 21.88 1.749-3.771 2.015-9.1 2.97-12.839 2.253-10.231 12.727-16.791 21.802-16.469zm0 0" transform="translate(-123.76 -90.67)" style="fill:#f3ca9c"/>
            <path data-name="Path 66" d="M152.37 125.179c.266-.119.545-.266.839-.4a50.227 50.227 0 0 0-.986-3.492c.118 1.293.147 2.584.147 3.892zm0 0" transform="translate(-124.508 -93.791)" style="fill:#eebef0"/>
            <path data-name="Path 67" d="M183.143 103.771a45.849 45.849 0 0 1 7.077 6.339c.941.042 1.9.116 2.87.235l.087-.119c-1.882-1.774-3.075-3.859-5.915-5.9-.2-.147-.409-.294-.6-.441a30.972 30.972 0 0 0-3.81-1.554 10.869 10.869 0 0 1-3.474-2.407 15.674 15.674 0 0 0 3.765 3.847zm0 0" transform="translate(-127.342 -91.561)" style="fill:#eebef0"/>
            <path data-name="Path 68" d="M179.242 103.314a15.423 15.423 0 0 1-3.768-3.845c-1.883-1.76-3.632-3.757-5.958-3.9-9.089-.322-19.567 6.238-21.817 16.478-.955 3.729-1.221 9.068-2.97 12.839a12.026 12.026 0 0 1-2.722 5.416 6.93 6.93 0 0 0 4.737-2.449 16.663 16.663 0 0 0 3.929-10.712 127.42 127.42 0 0 0-1.165-3.229l.164-.014-.164.014c.413 1.07.794 2.141 1.165 3.229.028-.78.028-1.557-.018-2.333a30.075 30.075 0 0 0-.409-1.879l.175.161-.175-.161c.161.63.294 1.246.409 1.879a28.622 28.622 0 0 0-.927-5.856l.178.161-.178-.161a28.428 28.428 0 0 1 .927 5.856 36.555 36.555 0 0 1 .5 3.813c.367 1.162.692 2.32.986 3.495 1.046-.528 2.193-1.189 3.47-1.938l.1-.046-.986-2.375a.942.942 0 0 1 .4-1.2l12.843-6.311a.8.8 0 0 1 1.088.473l.839 2.008a40.2 40.2 0 0 1 16.418-3.023 43.408 43.408 0 0 0-7.071-6.39zm0 0" transform="translate(-123.441 -91.105)" style="fill:#f25510"/>
            <path data-name="Path 69" d="M134.057 142.209a23.633 23.633 0 0 0 10.061 2.638 27.957 27.957 0 0 0 5.223-.336c.427-.059.853-.147 1.281-.234l1.281-.249a57.706 57.706 0 0 0 2.515-.647 82.35 82.35 0 0 0 9.666-3.611c3.145-1.351 6.252-2.788 9.355-4.152q2.34-1.034 4.677-2.026l1.18-.483c.395-.147.78-.308 1.175-.455l1.193-.441c.4-.147.794-.277 1.189-.409s.811-.252 1.207-.382.808-.235 1.207-.339c.808-.22 1.634-.409 2.441-.587a41.642 41.642 0 0 1 4.972-.732 31.6 31.6 0 0 1 5.016-.059 29.9 29.9 0 0 1 4.962.734 24.308 24.308 0 0 1 4.719 1.6c.385.176.752.368 1.105.557l.266.147.22.133-.017-.014.017.014c.014.014.029.046.042.059a.111.111 0 0 1 .031.074c0 .028.014.041.029.073a.655.655 0 0 1-.029.322.9.9 0 0 0-.045.088l-.014.045-.031.042-.056.088a.344.344 0 0 0-.073.09 4.221 4.221 0 0 1-.854.69l-.017.014a.5.5 0 0 0-.161.716.51.51 0 0 0 .707.179 4.863 4.863 0 0 0 1.147-.882c.046-.042.088-.1.133-.147l.119-.175.056-.088.046-.1a1.234 1.234 0 0 0 .087-.2 1.665 1.665 0 0 0 .088-.94c-.013-.073-.042-.161-.056-.235a1.643 1.643 0 0 0-.106-.22 1.821 1.821 0 0 0-.133-.207c-.028-.028-.059-.073-.088-.1l-.045-.059a.275.275 0 0 0-.073-.056l-.042-.031a.048.048 0 0 0-.031-.014l-.029-.028-.073-.046-.147-.087-.279-.178a19.846 19.846 0 0 0-1.162-.616 24.581 24.581 0 0 0-4.929-1.773 30.682 30.682 0 0 0-5.164-.822 34.042 34.042 0 0 0-5.209.013 43.647 43.647 0 0 0-10.18 2.054c-.409.133-.822.266-1.235.413-.413.13-.809.294-1.222.441s-.808.308-1.206.469l-1.189.483c-1.589.647-3.163 1.336-4.723 2.012-3.12 1.378-6.224 2.816-9.34 4.181a90.721 90.721 0 0 1-9.492 3.61 32 32 0 0 1-9.87 1.54 22.194 22.194 0 0 1-4.929-.63 18.858 18.858 0 0 1-2.382-.735 27.096 27.096 0 0 1-2.312-.969.525.525 0 0 0-.7.253.567.567 0 0 0 .23.722zm0 0" transform="translate(-122.581 -94.518)" style="fill:#222e6a"/>
            <path data-name="Path 70" d="M194.376 111.764c.454.56.94 1.088 1.427 1.631l1.455 1.584 1.442 1.585 1.441 1.57v.014a.522.522 0 0 0 .752.028.508.508 0 0 0 .1-.643 16.207 16.207 0 0 0-1.235-1.865c-.22-.295-.454-.571-.692-.864s-.483-.56-.734-.836-.5-.545-.763-.794-.518-.514-.8-.762a19.262 19.262 0 0 0-1.689-1.424.52.52 0 0 0-.735.1.566.566 0 0 0 .031.676zm0 0" transform="translate(-128.895 -92.705)" style="fill:#31133d"/>
            <g data-name="Group 18" transform="translate(14.082)" style="clip-path:url(#jd5jc8yocc)">
                <path data-name="Path 71" d="M138.579 132.863a15.457 15.457 0 0 0 2.221-1.557 11.929 11.929 0 0 0 1.883-1.995 13.344 13.344 0 0 0 1.4-2.379 14.922 14.922 0 0 0 .854-2.6 25.493 25.493 0 0 0 .542-5.342c.031-1.774-.014-3.52.014-5.252a25.391 25.391 0 0 1 .518-5.079 13.131 13.131 0 0 1 .749-2.376 11.252 11.252 0 0 1 1.206-2.141c.249-.326.5-.648.78-.956l.207-.235.22-.234.455-.469c.308-.311.619-.619.927-.913s.619-.6.941-.892a50.774 50.774 0 0 1 3.957-3.348c.692-.528 1.386-1.025 2.106-1.494s1.442-.927 2.191-1.336a20.219 20.219 0 0 1 4.68-1.924 11.618 11.618 0 0 1 1.221-.234c.2-.028.409-.042.6-.074.207-.014.413-.028.6-.028a7.739 7.739 0 0 1 1.18.087c.189.028.395.088.588.133s.4.1.588.175a11.856 11.856 0 0 1 4.164 2.641c1.252 1.158 2.4 2.466 3.607 3.743a45.706 45.706 0 0 0 3.822 3.716l.515.423.527.413 1.06.777a16.921 16.921 0 0 1 1.927 1.659c1.207 1.189 2.268 2.613 3.6 3.845a.518.518 0 0 0 .738-.028.531.531 0 0 0-.017-.735 24.443 24.443 0 0 1-1.721-1.907 45.984 45.984 0 0 0-1.763-2 17.351 17.351 0 0 0-2.015-1.806l-1.046-.79-.5-.4-.486-.413a41.387 41.387 0 0 1-3.676-3.638c-1.176-1.277-2.323-2.613-3.635-3.859a17.481 17.481 0 0 0-2.131-1.718 11.04 11.04 0 0 0-2.5-1.246c-.22-.087-.458-.133-.678-.206s-.455-.119-.69-.161a7 7 0 0 0-1.441-.119c-.238 0-.473.014-.707.031s-.473.042-.693.074a13.692 13.692 0 0 0-1.368.262 22.213 22.213 0 0 0-5.031 2.04c-.794.427-1.56.9-2.309 1.4-.752.483-1.473 1.011-2.194 1.539a51.24 51.24 0 0 0-4.062 3.449c-.322.308-.647.615-.955.923s-.633.616-.941.938l-.455.472-.237.235-.235.249a13.079 13.079 0 0 0-.882 1.084 12.2 12.2 0 0 0-1.353 2.422 15.219 15.219 0 0 0-.826 2.627 25.814 25.814 0 0 0-.5 5.357c-.013 1.777.046 3.522.046 5.255a25.232 25.232 0 0 1-.455 5.09 13.253 13.253 0 0 1-.738 2.393 11 11 0 0 1-1.221 2.169 12.863 12.863 0 0 1-3.722 3.348.522.522 0 0 0-.176.717.532.532 0 0 0 .725.198zm0 0" transform="translate(-137.082 -90.587)" style="fill:#222e6a"/>
            </g>
            <path data-name="Path 73" d="m168.8 117.168.678 1.658.339.836.161.395.088.207.013.059.018.028a.114.114 0 0 1 .014.073.6.6 0 0 1-.119.5.629.629 0 0 1-.088.073c-.014.014-.031.014-.046.028l-.1.046-.413.189-1.617.762-3.239 1.543-1.617.776-.206.1-.046.031-.013.013c-.014 0-.029 0-.029.014a.181.181 0 0 1-.147-.014.286.286 0 0 1-.133-.1c-.014-.031-.046-.059-.06-.09l-.013-.029-.014-.059-.046-.1-.692-1.659-.354-.822-.175-.409-.088-.206-.017-.046-.014-.028c-.013-.014-.013-.029-.013-.06a.524.524 0 0 1 .073-.426c.013-.029.046-.042.059-.056s.028-.014.046-.031l.1-.042.4-.206 1.6-.822 3.19-1.627 1.606-.808.207-.1.041-.032.032-.013c.013-.014.028-.014.056-.014a.414.414 0 0 1 .224.014.454.454 0 0 1 .2.147.288.288 0 0 1 .073.116l.017.031.014.059zm.678-.28-.045-.1-.014-.06-.028-.073a2.737 2.737 0 0 0-.165-.262 1.174 1.174 0 0 0-.514-.367 1.29 1.29 0 0 0-.661-.046.766.766 0 0 0-.161.06l-.073.028-.046.031-.206.1-1.617.777-3.236 1.542-1.62.763-.413.189-.1.046-.147.087a1.017 1.017 0 0 0-.266.235 1.424 1.424 0 0 0-.308 1.263c.014.06.029.1.042.161l.031.073.014.059.088.207.16.409.339.836.679 1.659.042.1.014.06.031.073a1.074 1.074 0 0 0 .193.294 1.332 1.332 0 0 0 .573.413 1.263 1.263 0 0 0 .734.042.714.714 0 0 0 .176-.06l.087-.028.046-.028.207-.1 1.6-.805 3.194-1.63 1.6-.822.4-.207.1-.041c.046-.032.1-.06.147-.088a1.914 1.914 0 0 0 .252-.22 1.338 1.338 0 0 0 .262-1.189l-.042-.147-.031-.073-.014-.06-.087-.2-.178-.413-.35-.822zm0 0" transform="translate(-125.301 -93.234)" style="fill:#31133d"/>
            <path data-name="Path 74" d="M173.305 114.734c1.542-.515 3.089-1 4.663-1.393a43.124 43.124 0 0 1 4.737-.983c.794-.133 1.588-.22 2.4-.308a32.103 32.103 0 0 1 2.414-.16 43.892 43.892 0 0 1 4.838.087.518.518 0 0 0 .56-.486.553.553 0 0 0-.426-.556 28.454 28.454 0 0 0-4.986-.426c-.839 0-1.679.031-2.515.1-.413.028-.84.088-1.253.116-.413.046-.822.1-1.248.161-.826.133-1.648.294-2.459.472s-1.617.395-2.411.644a36.43 36.43 0 0 0-4.663 1.746.52.52 0 0 0-.266.689.476.476 0 0 0 .615.297zm0 0" transform="translate(-126.639 -92.666)" style="fill:#31133d"/>
            <path data-name="Path 75" d="M152.233 125.92a7.3 7.3 0 0 0 1.294-.426 12.6 12.6 0 0 0 1.207-.587 13.016 13.016 0 0 0 2.193-1.494.531.531 0 0 0-.532-.9 9.588 9.588 0 0 0-1.2.514c-.4.189-.78.382-1.147.6-.385.2-.752.423-1.12.643s-.721.442-1.074.69h-.014a.556.556 0 0 0-.133.749.513.513 0 0 0 .526.211zm0 0" transform="translate(-124.444 -93.916)" style="fill:#31133d"/>
            <path data-name="Path 76" d="M159.79 128.714a.62.62 0 0 0 .22-.042.6.6 0 0 0 .325-.763l-3.634-8.791a.374.374 0 0 1 .119-.455l12.843-6.308a.139.139 0 0 1 .133 0 .28.28 0 0 1 .161.176l3.722 9.008a.586.586 0 0 0 1.088-.437l-3.723-9.012a1.44 1.44 0 0 0-.839-.822 1.279 1.279 0 0 0-1.057.06l-12.829 6.311a1.525 1.525 0 0 0-.692 1.952l3.617 8.774a.581.581 0 0 0 .546.349zm0 0" transform="translate(-124.85 -92.736)" style="fill:#31133d"/>
            <g data-name="Group 19" transform="translate(2.439 24.552)" style="clip-path:url(#vryfbf0ifd)">
                <path data-name="Path 77" d="M145.164 150.367c-.339.014-.738.014-1.105.014s-.749-.014-1.134-.032c-.749-.028-1.5-.1-2.249-.188a22.816 22.816 0 0 1-4.384-1 19.579 19.579 0 0 1-4.044-1.878 15.389 15.389 0 0 1-3.415-2.82 13.218 13.218 0 0 1-2.369-3.667 11.38 11.38 0 0 1-.661-2.085 8.794 8.794 0 0 1-.193-1.07 7.122 7.122 0 0 1-.059-.542 2.93 2.93 0 0 1-.014-.486 1.322 1.322 0 0 1 .207-.717.638.638 0 0 1 .235-.193 1.328 1.328 0 0 1 .353-.13 3.981 3.981 0 0 1 .955-.059c.179.014.339.028.532.059l.574.073c1.542.176 3.1.277 4.649.336a53.407 53.407 0 0 0 9.31-.514 39.968 39.968 0 0 0 9.064-2.389 41.81 41.81 0 0 0 2.148-.955c.354-.175.707-.354 1.042-.543l1.018-.56c1.351-.731 2.69-1.465 4.045-2.183 2.707-1.442 5.443-2.806 8.224-4.037a70.879 70.879 0 0 1 8.547-3.184 51.516 51.516 0 0 1 8.886-1.85 40.513 40.513 0 0 1 17.874 1.952 41.774 41.774 0 0 1 4.195 1.7 27.154 27.154 0 0 1 3.869 2.288c.616.426 1.221.881 1.795 1.364a17.806 17.806 0 0 1 1.6 1.512 5.384 5.384 0 0 1 .619.822 1.237 1.237 0 0 1 .176.381.151.151 0 0 1 .013.073v.088c0 .073.014.161.014.252a6.205 6.205 0 0 1-.395 2.022 10.814 10.814 0 0 1-2.355 3.642 15.764 15.764 0 0 1-1.635 1.493 20.054 20.054 0 0 1-1.823 1.308 34.027 34.027 0 0 1-8.266 3.667.521.521 0 0 0-.339.661.533.533 0 0 0 .648.354 35.213 35.213 0 0 0 8.574-3.712 25.59 25.59 0 0 0 1.945-1.35 18.516 18.516 0 0 0 1.777-1.585 12.018 12.018 0 0 0 2.648-4.023 7.15 7.15 0 0 0 .5-2.463 2.811 2.811 0 0 0-.014-.339v-.088c0-.042-.014-.073-.014-.116-.013-.073-.031-.147-.045-.206a3.459 3.459 0 0 0-.294-.675 6.664 6.664 0 0 0-.767-1.011 15.8 15.8 0 0 0-1.735-1.658c-.6-.515-1.235-.983-1.868-1.438a29.435 29.435 0 0 0-4.045-2.424 44.825 44.825 0 0 0-4.328-1.788 40.376 40.376 0 0 0-9.121-2.1 42.482 42.482 0 0 0-9.355.014 52.477 52.477 0 0 0-9.152 1.879 72.968 72.968 0 0 0-8.725 3.243c-2.837 1.245-5.59 2.641-8.309 4.093-1.354.721-2.708 1.47-4.062 2.2l-1 .56a32.245 32.245 0 0 1-3.061 1.437 37.912 37.912 0 0 1-8.721 2.316 52.042 52.042 0 0 1-9.079.546 60.28 60.28 0 0 1-4.544-.294l-.56-.06a7.974 7.974 0 0 0-.619-.059 4.764 4.764 0 0 0-1.336.087 2.986 2.986 0 0 0-.725.28 2.044 2.044 0 0 0-.63.556 2.572 2.572 0 0 0-.354.734 2.517 2.517 0 0 0-.1.721 3.175 3.175 0 0 0 .031.657c.014.207.042.4.073.6a10.68 10.68 0 0 0 .221 1.189 13.285 13.285 0 0 0 .748 2.288 14.277 14.277 0 0 0 2.621 4.006 17.3 17.3 0 0 0 3.705 2.995 20.289 20.289 0 0 0 4.313 1.952 24.75 24.75 0 0 0 4.6 1c.78.087 1.56.147 2.337.175.4.017.78.017 1.18.017s.766-.017 1.189-.031a.517.517 0 0 0 .5-.542.523.523 0 0 0-.542-.5zm0 0" transform="translate(-124.02 -118.013)" style="fill:#222e6a"/>
            </g>
            <path data-name="Path 79" d="M148.949 134.259c.133-.16.234-.294.353-.441.1-.147.207-.294.308-.441s.193-.308.294-.455l.266-.468a15.992 15.992 0 0 0 .91-1.938c.118-.336.265-.658.371-1l.16-.514c.06-.175.088-.336.147-.51s.088-.339.133-.514l.116-.528c.09-.354.133-.707.193-1.042.059-.354.087-.7.133-1.057s.073-.7.088-1.057a19.6 19.6 0 0 0-.014-2.127 20.849 20.849 0 0 0-.661-4.166.528.528 0 0 0-.648-.367.513.513 0 0 0-.385.57 36.672 36.672 0 0 1 .326 4.006 23.935 23.935 0 0 1-.28 3.978 22.06 22.06 0 0 1-.941 3.858 19.567 19.567 0 0 1-.751 1.833l-.442.881c-.073.147-.16.294-.234.427s-.179.277-.253.395l-.013.029a.508.508 0 0 0 .161.72.461.461 0 0 0 .663-.072zm0 0" transform="translate(-124.071 -93.408)" style="fill:#222e6a"/>
            <path data-name="Path 80" d="M144.006 167.738c-2.9 4.388-7.385 6.91-8.519 9.477-1.309 2.967.6 5.885 4.751 6.326 3.547.382 10.048-1.76 16.079-9.537" transform="translate(-122.718 -98.64)" style="fill:#fff"/>
            <path data-name="Path 81" d="M143.483 167.383a25.027 25.027 0 0 1-3.369 3.8c-.619.588-1.266 1.162-1.9 1.749s-1.294 1.172-1.927 1.82a10.646 10.646 0 0 0-.9 1.056 5.236 5.236 0 0 0-.4.6l-.087.161-.088.175a2.92 2.92 0 0 0-.147.339 4.98 4.98 0 0 0-.266 2.977 4.459 4.459 0 0 0 .6 1.411 5.4 5.4 0 0 0 1 1.129 6.946 6.946 0 0 0 2.575 1.319 7.817 7.817 0 0 0 1.382.266 7.735 7.735 0 0 0 1.413.042 10.638 10.638 0 0 0 1.382-.147 13.2 13.2 0 0 0 1.34-.294 18.359 18.359 0 0 0 4.915-2.229 26.224 26.224 0 0 0 4.178-3.316q.95-.923 1.808-1.938a37.493 37.493 0 0 0 1.648-2.067.523.523 0 0 0-.822-.648q-.818.991-1.679 1.938a41.83 41.83 0 0 1-1.809 1.791 25.146 25.146 0 0 1-4.03 3.05 17.338 17.338 0 0 1-4.561 1.994c-.4.1-.794.193-1.207.266a8.312 8.312 0 0 1-1.2.133 7.66 7.66 0 0 1-1.179-.046 5.847 5.847 0 0 1-1.162-.234 5.388 5.388 0 0 1-2.029-1.011 3.678 3.678 0 0 1-.72-.809 3.234 3.234 0 0 1-.413-.969 3.555 3.555 0 0 1 .175-2.127 6.356 6.356 0 0 1 1.312-1.924c.556-.616 1.189-1.2 1.808-1.788s1.264-1.189 1.883-1.82a24.686 24.686 0 0 0 3.369-4.11.531.531 0 0 0-.161-.717.6.6 0 0 0-.732.178zm0 0" transform="translate(-122.635 -98.579)" style="fill:#222e6a"/>
            <path data-name="Path 82" d="M156.609 162.464a1.188 1.188 0 0 0 .339.8 2.861 2.861 0 0 0 .963.675 6.25 6.25 0 0 0 1.441.454 9.247 9.247 0 0 0 3.4 0 6.265 6.265 0 0 0 1.441-.454 2.857 2.857 0 0 0 .962-.675 1.108 1.108 0 0 0 0-1.6 2.894 2.894 0 0 0-.962-.674 6.055 6.055 0 0 0-1.441-.451 9.248 9.248 0 0 0-3.4 0 6.042 6.042 0 0 0-1.441.451 2.9 2.9 0 0 0-.963.674 1.19 1.19 0 0 0-.339.8zm0 0" transform="translate(-124.965 -97.872)" style="fill:#ff8856"/>
            <path data-name="Path 83" d="M198.2 159.981a1.283 1.283 0 0 0 .284.78 2.543 2.543 0 0 0 .815.661 4.508 4.508 0 0 0 1.217.441 6.6 6.6 0 0 0 2.869 0 4.526 4.526 0 0 0 1.218-.441 2.563 2.563 0 0 0 .815-.661 1.281 1.281 0 0 0 .283-.78 1.266 1.266 0 0 0-.283-.78 2.463 2.463 0 0 0-.815-.662 4.685 4.685 0 0 0-1.218-.444 6.755 6.755 0 0 0-2.869 0 4.665 4.665 0 0 0-1.217.444 2.444 2.444 0 0 0-.815.662 1.267 1.267 0 0 0-.284.78zm0 0" transform="translate(-129.308 -97.617)" style="fill:#ff8856"/>
        </g>
    </g>
</svg>
