<svg xmlns="http://www.w3.org/2000/svg" width="21.827" height="21.827" viewBox="0 0 21.827 21.827">
    <g data-name="Icon feather-settings">
        <path data-name="Path 600" d="M19.18 16.34a2.84 2.84 0 1 1-2.84-2.84 2.84 2.84 0 0 1 2.84 2.84z" transform="translate(-5.426 -5.426)" style="fill:none;stroke:#77838f;stroke-linecap:round;stroke-linejoin:round"/>
        <path data-name="Path 601" d="M18.919 14.754a1.562 1.562 0 0 0 .312 1.723l.057.057a1.894 1.894 0 1 1-2.679 2.679l-.057-.057a1.575 1.575 0 0 0-2.67 1.117v.161a1.893 1.893 0 0 1-3.787 0v-.085a1.562 1.562 0 0 0-1.022-1.429 1.562 1.562 0 0 0-1.723.312l-.057.057a1.894 1.894 0 1 1-2.679-2.679l.057-.057a1.575 1.575 0 0 0-1.117-2.67h-.161a1.893 1.893 0 0 1 0-3.787h.085a1.562 1.562 0 0 0 1.43-1.022A1.562 1.562 0 0 0 4.6 7.351l-.057-.057a1.894 1.894 0 1 1 2.675-2.679l.057.057A1.562 1.562 0 0 0 9 4.984h.076a1.562 1.562 0 0 0 .947-1.429v-.162a1.893 1.893 0 0 1 3.787 0v.085A1.575 1.575 0 0 0 16.477 4.6l.057-.057a1.894 1.894 0 1 1 2.679 2.679l-.057.057A1.562 1.562 0 0 0 18.843 9v.076a1.562 1.562 0 0 0 1.429.947h.161a1.893 1.893 0 0 1 0 3.787h-.085a1.562 1.562 0 0 0-1.429.947z" style="fill:none;stroke:#77838f;stroke-linecap:round;stroke-linejoin:round" transform="translate(-1 -1)"/>
    </g>
</svg>
